<?xml version="1.0" encoding="UTF-8"?>
<svg xmlns="http://www.w3.org/2000/svg" width="214" height="61" viewBox="0 0 214 61" fill="none">
    <path d="M37.1367 20.2815L47.3135 30.496L37.1367 40.7023L61.0686 30.496L37.1367 20.2815Z"
          fill="url(#paint0_linear)"></path>
    <path d="M42.6605 12.0017L0 30.496L42.6605 48.9821L24.096 30.496L42.6605 12.0017Z"
          fill="url(#paint1_linear)"></path>
    <path d="M37.1367 40.7021L43.9158 47.5965L61.0686 30.4958L37.1367 40.7021Z" fill="url(#paint2_linear)"></path>
    <path d="M37.1367 20.2813L61.0686 30.4958L43.9158 13.4033L37.1367 20.2813Z" fill="url(#paint3_linear)"></path>
    <path d="M30.5961 60.9999L42.6605 48.9819L0 30.4958L30.5961 60.9999Z" fill="url(#paint4_linear)"></path>
    <path d="M30.5961 0L0 30.4959L42.6605 12.0016L30.5961 0Z" fill="url(#paint5_linear)"></path>
    <path d="M0 30.4958H24.096L42.6605 48.9819L0 30.4958Z" fill="url(#paint6_linear)"></path>
    <path d="M47.3135 30.4958H61.0686L37.1777 40.6693L47.3135 30.4958Z" fill="url(#paint7_linear)"></path>
    <path d="M72.6918 22.1997V29.6516H80.7758V30.7173H72.6918V38.8577H71.4033V21.134H82.0315V22.1997H72.6918Z"
          fill="#000000"></path>
    <path d="M72.8713 39.0216H71.2217V20.9536H82.211V22.3718H72.8713V29.463H80.9553V30.8812H72.8713V39.0216ZM71.5828 38.6691H72.5184V30.5287H80.6024V29.8237H72.5184V22.0193H81.8581V21.3143H71.5828V38.6691Z"
          fill="#000000"></path>
    <path d="M97.7809 38.8495H96.6812C96.5416 38.8495 96.4185 38.8249 96.32 38.7839C96.2216 38.7348 96.1313 38.6528 96.0492 38.5298L90.3617 31.3485C90.296 31.2583 90.2222 31.1764 90.1565 31.1108C90.0827 31.0452 90.0088 30.996 89.9185 30.955C89.8282 30.914 89.7298 30.8894 89.6066 30.873C89.4835 30.8567 89.3358 30.8485 89.1635 30.8485H86.8491V38.8577H85.5605V21.134H90.0991C92.1344 21.134 93.6609 21.5275 94.6786 22.3145C95.6963 23.1015 96.2051 24.2574 96.2051 25.7904C96.2051 26.4626 96.0902 27.0857 95.8522 27.6431C95.6142 28.2006 95.2859 28.6924 94.8428 29.1105C94.4078 29.5286 93.8743 29.8729 93.2506 30.1434C92.6269 30.414 91.9292 30.5861 91.1496 30.6845C91.3465 30.8075 91.5271 30.9796 91.6912 31.1846L97.7809 38.8495ZM89.9103 29.8811C90.6982 29.8811 91.3958 29.7909 92.0195 29.6024C92.6433 29.4138 93.1685 29.1433 93.5953 28.7908C94.0221 28.4383 94.3503 28.0202 94.5801 27.5283C94.8017 27.0365 94.9166 26.479 94.9166 25.8642C94.9166 24.6017 94.5063 23.6672 93.6856 23.0605C92.8649 22.4539 91.6584 22.1506 90.0827 22.1506H86.8326V29.8893H89.9103V29.8811Z"
          fill="#000000"></path>
    <path d="M98.1572 39.0216H96.6799C96.5157 39.0216 96.368 38.9888 96.2449 38.9314C96.1218 38.8741 96.0069 38.7675 95.9002 38.6117L90.2209 31.4386C90.1552 31.3485 90.0978 31.2829 90.0321 31.2173C89.9747 31.1681 89.9172 31.1271 89.8434 31.0943C89.7695 31.0615 89.6792 31.0369 89.5725 31.0287C89.4576 31.0123 89.3181 31.0041 89.154 31.0041H87.0119V39.0134H85.3623V20.9536H90.0814C92.1496 20.9536 93.7253 21.3635 94.7676 22.1751C95.8264 22.9949 96.3598 24.2081 96.3598 25.7903C96.3598 26.4871 96.2367 27.1348 95.9987 27.7086C95.7525 28.2907 95.3996 28.7989 94.9482 29.2416C94.4968 29.6761 93.9387 30.0368 93.3068 30.3073C92.7815 30.5287 92.207 30.7008 91.5751 30.7992C91.6571 30.8812 91.7392 30.9714 91.8213 31.0697L98.1572 39.0216ZM86.659 30.6516H89.154C89.3345 30.6516 89.4987 30.6598 89.6218 30.6762C89.7613 30.6926 89.8762 30.7254 89.9829 30.7664C90.0896 30.8156 90.1881 30.873 90.2701 30.955C90.3522 31.0287 90.4261 31.1189 90.4999 31.2173L96.1875 38.3986C96.2613 38.5052 96.327 38.5707 96.3926 38.6035C96.4665 38.6363 96.5568 38.6527 96.6717 38.6527H97.4021L91.534 31.2829C91.3863 31.0861 91.2222 30.9386 91.0416 30.8238L90.6066 30.5533L91.1155 30.4959C91.8705 30.4057 92.5599 30.2336 93.1672 29.9712C93.7664 29.7171 94.2834 29.381 94.702 28.9711C95.1205 28.5694 95.4488 28.0939 95.6704 27.5611C95.892 27.0282 96.0069 26.4298 96.0069 25.7739C96.0069 24.3147 95.5145 23.1916 94.5543 22.4374C93.5776 21.675 92.0757 21.2897 90.0814 21.2897H85.7234V38.6445H86.659V30.6516ZM89.909 30.0614H86.659V21.9701H90.0814C91.69 21.9701 92.9375 22.2899 93.791 22.9211C94.6609 23.5605 95.0959 24.5525 95.0959 25.8723C95.0959 26.5117 94.9728 27.102 94.743 27.6102C94.505 28.1267 94.1603 28.5694 93.7089 28.9383C93.2657 29.299 92.7077 29.5859 92.0675 29.7745C91.4356 29.963 90.7133 30.0614 89.909 30.0614ZM87.0201 29.7007H89.909C90.6723 29.7007 91.3699 29.6105 91.969 29.4302C92.5681 29.2498 93.077 28.9875 93.4873 28.6514C93.8977 28.3235 94.2096 27.9136 94.4229 27.4545C94.6363 26.9872 94.743 26.4544 94.743 25.8641C94.743 24.6508 94.3655 23.7819 93.5776 23.1998C92.7897 22.6178 91.6161 22.3226 90.0814 22.3226H87.0119V29.7007H87.0201Z"
          fill="#000000"></path>
    <path d="M111.421 37.7838L111.397 38.8495H100.769V21.134H111.397V22.1997H102.057V29.3564H109.829V30.3976H102.057V37.7838H111.421Z"
          fill="#000000"></path>
    <path d="M111.568 39.0216H100.587V20.9536H111.576V22.3718H102.237V29.176H110.009V30.5697H102.237V37.5952H111.601L111.568 39.0216ZM100.948 38.6691H111.223L111.24 37.9641H101.884V30.2172H109.656V29.5367H101.884V22.0193H111.223V21.3143H100.948V38.6691Z"
          fill="#000000"></path>
    <path d="M123.913 23.29C123.839 23.4293 123.732 23.5031 123.584 23.5031C123.478 23.5031 123.338 23.4293 123.166 23.2736C122.994 23.1178 122.764 22.9457 122.468 22.7571C122.173 22.5686 121.812 22.3964 121.369 22.2406C120.934 22.0849 120.392 22.0029 119.744 22.0029C119.103 22.0029 118.537 22.0931 118.045 22.2816C117.552 22.462 117.15 22.7161 116.814 23.0358C116.485 23.3555 116.231 23.7245 116.059 24.1343C115.886 24.5524 115.804 24.9869 115.804 25.446C115.804 26.0444 115.935 26.5445 116.19 26.938C116.444 27.3315 116.781 27.6676 117.199 27.9381C117.618 28.2169 118.094 28.4464 118.619 28.6349C119.153 28.8235 119.694 29.012 120.252 29.1924C120.81 29.3727 121.36 29.5777 121.886 29.799C122.411 30.0204 122.887 30.2991 123.305 30.6352C123.724 30.9713 124.06 31.3812 124.315 31.8649C124.569 32.3568 124.701 32.9634 124.701 33.6848C124.701 34.4308 124.569 35.1276 124.315 35.7834C124.06 36.4393 123.691 37.0049 123.207 37.4886C122.723 37.9723 122.132 38.3576 121.426 38.6363C120.72 38.915 119.924 39.0544 119.021 39.0544C117.848 39.0544 116.846 38.8494 116.001 38.4313C115.156 38.0215 114.417 37.4558 113.785 36.7344L114.138 36.1851C114.237 36.0622 114.351 35.9966 114.491 35.9966C114.565 35.9966 114.663 36.0458 114.778 36.1441C114.893 36.2425 115.041 36.3655 115.205 36.5131C115.369 36.6606 115.574 36.8164 115.804 36.9885C116.042 37.1607 116.313 37.3164 116.617 37.464C116.928 37.6116 117.281 37.7345 117.684 37.8329C118.086 37.9313 118.537 37.9805 119.046 37.9805C119.752 37.9805 120.375 37.8739 120.925 37.6607C121.475 37.4476 121.943 37.1607 122.321 36.7918C122.698 36.4229 122.994 35.9884 123.19 35.4801C123.387 34.9719 123.494 34.4308 123.494 33.857C123.494 33.2339 123.363 32.7175 123.108 32.3076C122.854 31.9059 122.518 31.5616 122.099 31.291C121.68 31.0205 121.204 30.791 120.679 30.6106C120.146 30.4303 119.604 30.2499 119.046 30.0696C118.488 29.8974 117.938 29.7007 117.413 29.4793C116.879 29.258 116.411 28.9874 115.993 28.6431C115.574 28.307 115.238 27.8807 114.983 27.3807C114.729 26.8724 114.598 26.2412 114.598 25.487C114.598 24.8967 114.713 24.3229 114.934 23.7736C115.156 23.2244 115.492 22.7407 115.927 22.3144C116.362 21.8963 116.896 21.552 117.536 21.2979C118.176 21.0438 118.906 20.9126 119.719 20.9126C120.638 20.9126 121.459 21.0602 122.197 21.3471C122.928 21.6422 123.593 22.0849 124.2 22.6833L123.913 23.29Z"
          fill="#000000"></path>
    <path d="M119.036 39.2266C117.846 39.2266 116.804 39.0135 115.934 38.5872C115.072 38.1691 114.309 37.5788 113.661 36.8492L113.57 36.7509L113.997 36.0868C114.178 35.8573 114.366 35.8163 114.498 35.8163C114.621 35.8163 114.752 35.8737 114.9 36.013C115.015 36.1114 115.162 36.2344 115.327 36.382C115.491 36.5213 115.688 36.6771 115.918 36.8492C116.139 37.0132 116.402 37.1689 116.705 37.3083C117.001 37.4477 117.346 37.5706 117.74 37.669C118.125 37.7674 118.568 37.8166 119.061 37.8166C119.734 37.8166 120.349 37.71 120.875 37.5132C121.4 37.3083 121.851 37.0296 122.212 36.6853C122.573 36.341 122.853 35.9147 123.041 35.4392C123.23 34.9555 123.329 34.4309 123.329 33.8816C123.329 33.2914 123.205 32.8077 122.976 32.4306C122.738 32.0535 122.418 31.7256 122.024 31.4715C121.621 31.2091 121.154 30.9878 120.637 30.8074C120.103 30.6271 119.561 30.4467 119.003 30.2746C118.437 30.0942 117.887 29.8975 117.354 29.6843C116.812 29.463 116.311 29.1679 115.885 28.8236C115.45 28.4711 115.097 28.0284 114.826 27.5037C114.563 26.979 114.424 26.315 114.424 25.528C114.424 24.9132 114.539 24.3148 114.777 23.7409C115.015 23.1671 115.359 22.6588 115.811 22.2243C116.262 21.7898 116.82 21.4373 117.477 21.175C118.133 20.9127 118.897 20.7815 119.734 20.7815C120.669 20.7815 121.523 20.9291 122.278 21.2324C123.025 21.5357 123.722 21.9948 124.338 22.6096L124.428 22.6998L124.067 23.3966C123.936 23.6507 123.731 23.7081 123.583 23.7081C123.427 23.7081 123.255 23.6179 123.041 23.4294C122.877 23.2818 122.647 23.1179 122.368 22.9375C122.089 22.7572 121.728 22.585 121.31 22.4375C120.891 22.2899 120.366 22.2079 119.75 22.2079C119.135 22.2079 118.585 22.2981 118.117 22.4702C117.657 22.6424 117.263 22.8883 116.952 23.1835C116.64 23.4786 116.402 23.8311 116.238 24.2246C116.073 24.6181 115.991 25.0362 115.991 25.4706C115.991 26.0363 116.106 26.5036 116.344 26.8643C116.582 27.2332 116.911 27.5529 117.305 27.8152C117.707 28.0776 118.174 28.3071 118.692 28.4874C119.217 28.676 119.767 28.8563 120.325 29.0449C120.883 29.2253 121.441 29.4302 121.974 29.6597C122.516 29.8893 123.008 30.1762 123.443 30.5205C123.878 30.8648 124.231 31.2993 124.502 31.8076C124.773 32.3158 124.904 32.9635 124.904 33.7095C124.904 34.4719 124.773 35.2015 124.51 35.8737C124.248 36.5459 123.862 37.1443 123.361 37.6444C122.861 38.1445 122.245 38.5462 121.523 38.8331C120.793 39.079 119.955 39.2266 119.036 39.2266ZM114.022 36.7099C114.621 37.3575 115.318 37.8822 116.098 38.2675C116.911 38.6691 117.904 38.8659 119.036 38.8659C119.914 38.8659 120.702 38.7265 121.375 38.456C122.048 38.1855 122.631 37.8166 123.091 37.3493C123.558 36.882 123.911 36.3328 124.157 35.7015C124.404 35.0703 124.527 34.3899 124.527 33.6685C124.527 32.9717 124.404 32.3896 124.166 31.9305C123.919 31.4633 123.599 31.0698 123.205 30.7582C122.803 30.4385 122.335 30.168 121.827 29.9549C121.301 29.7335 120.752 29.5286 120.202 29.3564C119.644 29.1761 119.094 28.9875 118.56 28.799C118.019 28.6104 117.526 28.3645 117.099 28.0858C116.664 27.7988 116.303 27.4463 116.041 27.0364C115.77 26.6183 115.63 26.0855 115.63 25.4461C115.63 24.9624 115.721 24.5033 115.901 24.0606C116.082 23.6261 116.344 23.2326 116.697 22.8965C117.042 22.5604 117.477 22.2981 117.986 22.1095C118.495 21.921 119.085 21.8226 119.75 21.8226C120.407 21.8226 120.973 21.9046 121.433 22.0686C121.884 22.2325 122.262 22.4129 122.565 22.6096C122.861 22.7982 123.107 22.9785 123.288 23.1425C123.484 23.3228 123.575 23.331 123.591 23.331C123.649 23.331 123.706 23.3146 123.755 23.2162L123.993 22.7572C123.435 22.2243 122.811 21.8144 122.147 21.5521C121.441 21.2734 120.628 21.1258 119.742 21.1258C118.954 21.1258 118.24 21.2488 117.625 21.4947C117.009 21.7406 116.492 22.0686 116.073 22.4702C115.655 22.8719 115.343 23.3392 115.121 23.8721C114.908 24.3967 114.793 24.9542 114.793 25.5198C114.793 26.2494 114.916 26.8561 115.154 27.3316C115.392 27.807 115.721 28.2169 116.115 28.5366C116.517 28.8645 116.976 29.1351 117.493 29.34C118.019 29.5532 118.56 29.7499 119.118 29.9221C119.676 30.0942 120.226 30.2746 120.76 30.4631C121.301 30.6517 121.794 30.8894 122.221 31.1681C122.656 31.4551 123.017 31.8158 123.279 32.2339C123.55 32.6683 123.69 33.2176 123.69 33.8734C123.69 34.4719 123.583 35.0375 123.378 35.5622C123.173 36.0868 122.861 36.5459 122.467 36.9312C122.073 37.3165 121.58 37.6198 121.006 37.8412C120.44 38.0625 119.783 38.1691 119.061 38.1691C118.536 38.1691 118.068 38.1199 117.649 38.0133C117.239 37.9067 116.87 37.7838 116.549 37.6362C116.229 37.4887 115.95 37.3165 115.704 37.1443C115.466 36.9722 115.261 36.8082 115.089 36.6607C114.924 36.5131 114.777 36.3901 114.662 36.2918C114.539 36.1852 114.49 36.1852 114.49 36.1852C114.44 36.1852 114.366 36.2016 114.276 36.3082L114.022 36.7099Z"
          fill="#000000"></path>
    <path d="M142.395 21.134V38.8495H141.107V30.3566H130.002V38.8413H128.714V21.134H130.002V29.3974H141.107V21.134H142.395Z"
          fill="#000000"></path>
    <path d="M142.575 39.0216H140.925V30.5369H130.182V39.0216H128.532V20.9536H130.182V29.217H140.925V20.9536H142.575V39.0216ZM141.286 38.6691H142.222V21.3143H141.286V29.5777H129.821V21.3143H128.885V38.6691H129.821V30.1762H141.286V38.6691Z"
          fill="#000000"></path>
    <path d="M160.434 35.8655C160.516 35.8655 160.589 35.8983 160.647 35.9557L161.148 36.4967C160.778 36.8902 160.384 37.2427 159.949 37.5542C159.523 37.8658 159.047 38.1363 158.529 38.3576C158.012 38.579 157.454 38.7511 156.839 38.8741C156.223 38.9971 155.55 39.0544 154.812 39.0544C153.581 39.0544 152.456 38.8413 151.43 38.4068C150.404 37.9805 149.526 37.3657 148.796 36.5787C148.057 35.7917 147.491 34.8408 147.089 33.7177C146.687 32.6028 146.481 31.3567 146.481 29.9877C146.481 28.6432 146.687 27.4135 147.105 26.3068C147.524 25.2001 148.106 24.241 148.862 23.4458C149.617 22.6506 150.519 22.0276 151.57 21.5931C152.62 21.1586 153.786 20.9373 155.058 20.9373C156.273 20.9373 157.339 21.1258 158.275 21.5029C159.211 21.88 160.064 22.4047 160.827 23.0933L160.442 23.6589C160.376 23.7573 160.269 23.8065 160.13 23.8065C160.031 23.8065 159.867 23.7163 159.637 23.5278C159.416 23.3474 159.096 23.1425 158.694 22.9211C158.291 22.6998 157.791 22.4948 157.2 22.3145C156.601 22.1341 155.887 22.0358 155.05 22.0358C153.983 22.0358 152.998 22.2161 152.112 22.585C151.225 22.9539 150.454 23.4786 149.822 24.159C149.182 24.8394 148.681 25.6756 148.328 26.6593C147.967 27.6431 147.786 28.7498 147.786 29.9795C147.786 31.2337 147.967 32.3486 148.328 33.3324C148.689 34.3161 149.19 35.1523 149.822 35.8327C150.454 36.5131 151.209 37.0378 152.07 37.3985C152.932 37.7592 153.868 37.9395 154.869 37.9395C155.501 37.9395 156.067 37.8986 156.568 37.8166C157.069 37.7346 157.52 37.6116 157.939 37.4395C158.357 37.2755 158.743 37.0706 159.104 36.8246C159.465 36.5787 159.818 36.3 160.171 35.9721C160.212 35.9393 160.253 35.9147 160.294 35.8901C160.351 35.8737 160.392 35.8655 160.434 35.8655Z"
          fill="#000000"></path>
    <path d="M154.819 39.2266C153.572 39.2266 152.415 39.0053 151.372 38.5708C150.33 38.1363 149.419 37.5051 148.672 36.7017C147.925 35.8983 147.334 34.9146 146.924 33.7833C146.514 32.652 146.309 31.3731 146.309 29.9959C146.309 28.635 146.522 27.3808 146.949 26.2495C147.376 25.1182 147.975 24.1426 148.738 23.3311C149.501 22.5195 150.437 21.88 151.504 21.4374C152.571 20.9947 153.769 20.7651 155.057 20.7651C156.288 20.7651 157.388 20.9619 158.348 21.339C159.3 21.7243 160.179 22.2653 160.958 22.9622L161.073 23.0687L160.597 23.7655C160.531 23.8721 160.392 23.9951 160.138 23.9951C159.99 23.9951 159.801 23.8967 159.538 23.6836C159.325 23.5032 159.013 23.3065 158.627 23.0933C158.242 22.8802 157.749 22.6834 157.167 22.5031C156.592 22.3227 155.886 22.2325 155.074 22.2325C154.031 22.2325 153.071 22.4129 152.201 22.7736C151.34 23.1261 150.593 23.6426 149.969 24.3066C149.353 24.9706 148.861 25.7904 148.508 26.7495C148.155 27.7087 147.983 28.8072 147.983 30.0041C147.983 31.2338 148.163 32.3405 148.516 33.2996C148.869 34.2587 149.362 35.0785 149.977 35.7344C150.593 36.3902 151.331 36.9066 152.168 37.2592C153.006 37.6117 153.925 37.792 154.901 37.792C155.525 37.792 156.083 37.751 156.567 37.669C157.052 37.5871 157.495 37.4641 157.905 37.3001C158.307 37.1362 158.693 36.9394 159.038 36.7017C159.391 36.464 159.735 36.1852 160.08 35.8655C160.138 35.8163 160.195 35.7835 160.244 35.759C160.433 35.6606 160.646 35.7098 160.786 35.8491L161.401 36.5132L161.287 36.6361C160.909 37.0378 160.499 37.3985 160.064 37.7182C159.62 38.0379 159.136 38.3167 158.611 38.538C158.086 38.7594 157.503 38.9397 156.879 39.0627C156.256 39.161 155.558 39.2266 154.819 39.2266ZM155.057 21.1094C153.818 21.1094 152.669 21.3226 151.643 21.7571C150.617 22.1834 149.731 22.79 149.001 23.5688C148.27 24.3476 147.687 25.2903 147.285 26.3724C146.875 27.4546 146.67 28.676 146.67 29.9877C146.67 31.3321 146.867 32.5618 147.269 33.6603C147.663 34.7506 148.229 35.6934 148.943 36.4558C149.657 37.2182 150.527 37.8248 151.52 38.2429C152.513 38.661 153.629 38.8741 154.828 38.8741C155.55 38.8741 156.215 38.8167 156.814 38.6938C157.413 38.579 157.971 38.4068 158.471 38.1937C158.972 37.9806 159.432 37.7182 159.85 37.4149C160.228 37.1444 160.581 36.8329 160.909 36.4968L160.523 36.0787C160.499 36.0541 160.458 36.0295 160.4 36.0623C160.367 36.0787 160.335 36.0951 160.302 36.1197C159.957 36.4394 159.588 36.7345 159.227 36.9804C158.857 37.2264 158.455 37.4395 158.028 37.6117C157.602 37.7838 157.126 37.915 156.617 37.997C156.108 38.0789 155.533 38.1281 154.885 38.1281C153.867 38.1281 152.899 37.9396 152.013 37.5707C151.126 37.2018 150.346 36.6607 149.698 35.9639C149.05 35.2671 148.533 34.4063 148.163 33.4062C147.794 32.406 147.605 31.2583 147.605 29.9877C147.605 28.7416 147.794 27.6103 148.155 26.6102C148.525 25.61 149.033 24.7411 149.69 24.0443C150.346 23.3475 151.134 22.7982 152.045 22.4211C152.956 22.044 153.966 21.8554 155.049 21.8554C155.894 21.8554 156.641 21.9538 157.249 22.1424C157.856 22.3309 158.373 22.5359 158.783 22.7654C159.194 22.9867 159.514 23.1999 159.752 23.3884C160.031 23.618 160.121 23.6262 160.129 23.6262C160.236 23.6262 160.269 23.5934 160.293 23.5524L160.597 23.1179C159.875 22.5031 159.079 22.0112 158.209 21.6669C157.298 21.298 156.239 21.1094 155.057 21.1094Z"
          fill="#000000"></path>
    <path d="M180.033 29.9796C180.033 31.3486 179.827 32.5865 179.417 33.7014C179.007 34.8163 178.432 35.7673 177.685 36.5542C176.939 37.3412 176.052 37.9561 175.01 38.3824C173.968 38.8086 172.819 39.03 171.571 39.03C170.324 39.03 169.175 38.8168 168.141 38.3824C167.106 37.9561 166.212 37.3412 165.473 36.5542C164.726 35.7673 164.152 34.8163 163.742 33.7014C163.331 32.5865 163.126 31.3486 163.126 29.9796C163.126 28.6188 163.331 27.3809 163.742 26.266C164.152 25.1511 164.726 24.2001 165.473 23.4131C166.22 22.6261 167.106 22.0113 168.141 21.5768C169.175 21.1423 170.324 20.9292 171.571 20.9292C172.819 20.9292 173.968 21.1423 175.01 21.5768C176.052 22.0031 176.939 22.6179 177.685 23.4131C178.432 24.2083 179.007 25.1593 179.417 26.2742C179.827 27.3891 180.033 28.627 180.033 29.9796ZM178.703 29.9796C178.703 28.7417 178.531 27.635 178.186 26.6513C177.841 25.6675 177.357 24.8314 176.733 24.1509C176.11 23.4705 175.355 22.9459 174.476 22.577C173.598 22.2163 172.63 22.0359 171.571 22.0359C170.521 22.0359 169.552 22.2163 168.674 22.577C167.796 22.9377 167.041 23.4623 166.409 24.1509C165.777 24.8396 165.293 25.6675 164.94 26.6513C164.595 27.635 164.423 28.7499 164.423 29.9796C164.423 31.2257 164.595 32.3324 164.94 33.3161C165.284 34.2998 165.777 35.1278 166.409 35.8164C167.041 36.4969 167.796 37.0215 168.674 37.3822C169.552 37.7429 170.512 37.9233 171.571 37.9233C172.63 37.9233 173.598 37.7429 174.476 37.3822C175.355 37.0215 176.11 36.5051 176.733 35.8164C177.357 35.136 177.841 34.2998 178.186 33.3161C178.531 32.3406 178.703 31.2257 178.703 29.9796Z"
          fill="#000000"></path>
    <path d="M171.57 39.2103C170.298 39.2103 169.124 38.9889 168.066 38.5545C167.015 38.12 166.096 37.4887 165.333 36.6853C164.578 35.882 163.978 34.9064 163.568 33.7669C163.15 32.6356 162.944 31.365 162.944 29.9795C162.944 28.6023 163.158 27.3316 163.568 26.2085C163.987 25.0772 164.578 24.0935 165.333 23.2901C166.088 22.4867 167.007 21.8555 168.066 21.4128C169.116 20.9701 170.298 20.7488 171.57 20.7488C172.842 20.7488 174.024 20.9701 175.083 21.4046C176.141 21.8391 177.061 22.4703 177.824 23.2819C178.579 24.0853 179.178 25.069 179.588 26.2003C180.007 27.3316 180.212 28.5941 180.212 29.9713C180.212 31.3568 179.999 32.6274 179.588 33.7587C179.17 34.89 178.579 35.8738 177.824 36.6772C177.069 37.4805 176.141 38.1118 175.083 38.5463C174.024 38.9889 172.842 39.2103 171.57 39.2103ZM171.57 21.1095C170.347 21.1095 169.215 21.3226 168.205 21.7489C167.196 22.167 166.317 22.7736 165.595 23.5442C164.873 24.3148 164.307 25.2494 163.905 26.3397C163.502 27.43 163.305 28.6597 163.305 29.9877C163.305 31.3322 163.511 32.5618 163.905 33.6522C164.307 34.7425 164.873 35.677 165.595 36.4476C166.317 37.2182 167.196 37.8166 168.205 38.2347C169.215 38.6528 170.347 38.866 171.57 38.866C172.793 38.866 173.925 38.6528 174.943 38.2347C175.953 37.8166 176.831 37.2182 177.553 36.4476C178.275 35.677 178.841 34.7425 179.244 33.6522C179.646 32.5618 179.843 31.3322 179.843 29.9877C179.843 28.6515 179.638 27.43 179.244 26.3397C178.841 25.2576 178.275 24.3148 177.553 23.536C176.831 22.7654 175.953 22.167 174.943 21.7489C173.934 21.3226 172.793 21.1095 171.57 21.1095ZM171.57 38.0954C170.503 38.0954 169.502 37.9068 168.607 37.5461C167.713 37.1772 166.925 36.6362 166.285 35.9393C165.636 35.2425 165.136 34.3818 164.783 33.3816C164.43 32.3897 164.249 31.242 164.249 29.9877C164.249 28.7335 164.43 27.594 164.783 26.602C165.136 25.6019 165.644 24.7329 166.285 24.0361C166.933 23.3393 167.713 22.79 168.607 22.4211C169.502 22.0522 170.503 21.8637 171.57 21.8637C172.653 21.8637 173.655 22.0522 174.549 22.4211C175.444 22.79 176.223 23.3393 176.872 24.0361C177.512 24.7329 178.013 25.6019 178.365 26.602C178.71 27.6022 178.891 28.7417 178.891 29.9877C178.891 31.242 178.718 32.3897 178.365 33.3816C178.013 34.3818 177.512 35.2425 176.872 35.9393C176.232 36.6362 175.452 37.1854 174.549 37.5461C173.655 37.915 172.653 38.0954 171.57 38.0954ZM171.57 22.2162C170.544 22.2162 169.592 22.3965 168.747 22.749C167.901 23.1016 167.155 23.6098 166.547 24.2738C165.932 24.9379 165.456 25.7576 165.119 26.7168C164.783 27.6759 164.61 28.7745 164.61 29.9877C164.61 31.2092 164.783 32.3077 165.119 33.2669C165.456 34.2178 165.94 35.0376 166.547 35.7016C167.155 36.3656 167.893 36.8739 168.747 37.2182C169.6 37.5625 170.552 37.7429 171.57 37.7429C172.604 37.7429 173.556 37.5625 174.41 37.2182C175.255 36.8739 175.994 36.3574 176.601 35.7016C177.208 35.0376 177.684 34.2178 178.021 33.2669C178.357 32.3077 178.521 31.2092 178.521 29.9877C178.521 28.7745 178.349 27.6759 178.021 26.7168C177.684 25.7576 177.208 24.9379 176.601 24.2738C175.994 23.6098 175.255 23.1016 174.41 22.749C173.556 22.3883 172.604 22.2162 171.57 22.2162Z"
          fill="#000000"></path>
    <path d="M199.056 29.9795C199.056 31.3485 198.851 32.5782 198.441 33.6685C198.03 34.7588 197.456 35.6934 196.709 36.464C195.962 37.2346 195.076 37.8166 194.033 38.2265C192.991 38.6364 191.85 38.8413 190.595 38.8413H184.119V21.134H190.595C191.85 21.134 192.991 21.339 194.033 21.7489C195.076 22.1588 195.962 22.749 196.709 23.5114C197.456 24.282 198.03 25.2084 198.441 26.3069C198.851 27.3972 199.056 28.6268 199.056 29.9795ZM197.727 29.9795C197.727 28.7416 197.554 27.6431 197.209 26.6758C196.865 25.7084 196.381 24.8886 195.757 24.2246C195.133 23.5606 194.378 23.0441 193.5 22.6998C192.622 22.3473 191.653 22.1752 190.595 22.1752H185.408V37.8084H190.595C191.653 37.8084 192.622 37.6362 193.5 37.2837C194.378 36.9312 195.133 36.423 195.757 35.7589C196.381 35.0949 196.865 34.2751 197.209 33.3078C197.554 32.3323 197.727 31.2256 197.727 29.9795Z"
          fill="#000000"></path>
    <path d="M190.593 39.0216H183.938V20.9536H190.593C191.866 20.9536 193.039 21.1668 194.098 21.5766C195.157 21.9947 196.076 22.6014 196.839 23.3802C197.594 24.159 198.193 25.1263 198.612 26.233C199.03 27.3397 199.236 28.6022 199.236 29.9794C199.236 31.3649 199.022 32.6273 198.612 33.734C198.193 34.8489 197.602 35.8081 196.839 36.5869C196.084 37.3657 195.157 37.9805 194.098 38.3904C193.047 38.8167 191.866 39.0216 190.593 39.0216ZM184.299 38.6691H190.602C191.825 38.6691 192.965 38.4642 193.975 38.0707C194.984 37.669 195.862 37.0951 196.585 36.3491C197.307 35.6031 197.873 34.685 198.275 33.6193C198.677 32.5535 198.874 31.3321 198.874 29.9876C198.874 28.6596 198.669 27.4381 198.275 26.3724C197.873 25.3067 197.307 24.3885 196.585 23.6425C195.862 22.8965 194.984 22.3145 193.975 21.921C192.957 21.5193 191.825 21.3225 190.602 21.3225H184.299V38.6691ZM190.593 37.9887H185.226V21.9947H190.593C191.669 21.9947 192.67 22.1751 193.564 22.5358C194.459 22.8965 195.239 23.4212 195.887 24.1098C196.527 24.7902 197.028 25.6428 197.381 26.6265C197.725 27.6102 197.906 28.7415 197.906 29.9876C197.906 31.2419 197.734 32.3814 197.381 33.3651C197.028 34.3489 196.527 35.2014 195.887 35.8819C195.247 36.5623 194.467 37.0951 193.564 37.4558C192.678 37.8083 191.677 37.9887 190.593 37.9887ZM185.587 37.628H190.593C191.628 37.628 192.58 37.4558 193.433 37.1115C194.278 36.7754 195.017 36.2753 195.624 35.6277C196.232 34.9801 196.708 34.1767 197.036 33.234C197.373 32.2912 197.537 31.1927 197.537 29.9794C197.537 28.7743 197.364 27.6758 197.036 26.7331C196.7 25.7903 196.224 24.9869 195.624 24.3393C195.017 23.6917 194.278 23.1916 193.433 22.8555C192.58 22.5194 191.628 22.339 190.593 22.339H185.587V37.628Z"
          fill="#000000"></path>
    <path d="M213.821 37.7838L213.796 38.8495H203.168V21.134H213.796V22.1997H204.456V29.3564H212.229V30.3976H204.456V37.7838H213.821Z"
          fill="#000000"></path>
    <path d="M213.967 39.0216H202.986V20.9536H213.976V22.3718H204.636V29.176H212.408V30.5697H204.636V37.5952H214L213.967 39.0216ZM203.347 38.6691H213.623L213.639 37.9641H204.283V30.2172H212.055V29.5367H204.283V22.0193H213.623V21.3143H203.356V38.6691H203.347Z"
          fill="#000000"></path>
    <defs>
        <linearGradient id="paint0_linear" x1="49.1005" y1="40.706" x2="49.1005" y2="20.2835"
                        gradientUnits="userSpaceOnUse">
            <stop stop-color="#00DCA4"></stop>
            <stop offset="0.1503" stop-color="#00D59E"></stop>
            <stop offset="0.3658" stop-color="#00C28E"></stop>
            <stop offset="0.6206" stop-color="#00A375"></stop>
            <stop offset="0.9033" stop-color="#007851"></stop>
            <stop offset="1" stop-color="#006843"></stop>
        </linearGradient>
        <linearGradient id="paint1_linear" x1="21.3311" y1="48.9854" x2="21.3311" y2="12.0042"
                        gradientUnits="userSpaceOnUse">
            <stop stop-color="#00C3E6"></stop>
            <stop offset="0.2433" stop-color="#00B9DC"></stop>
            <stop offset="0.6556" stop-color="#009EC1"></stop>
            <stop offset="1" stop-color="#0083A6"></stop>
        </linearGradient>
        <linearGradient id="paint2_linear" x1="61.0653" y1="39.0469" x2="37.1361" y2="39.0469"
                        gradientUnits="userSpaceOnUse">
            <stop stop-color="#A1FFD7"></stop>
            <stop offset="1" stop-color="#00FFAF"></stop>
        </linearGradient>
        <linearGradient id="paint3_linear" x1="52.4986" y1="21.942" x2="45.6554" y2="28.793"
                        gradientUnits="userSpaceOnUse">
            <stop stop-color="#A1FFD7"></stop>
            <stop offset="1" stop-color="#00FFAF"></stop>
        </linearGradient>
        <linearGradient id="paint4_linear" x1="27.3698" y1="33.71" x2="15.3062" y2="45.7872"
                        gradientUnits="userSpaceOnUse">
            <stop stop-color="#B5FFFF"></stop>
            <stop offset="1" stop-color="#00ECFF"></stop>
        </linearGradient>
        <linearGradient id="paint5_linear" x1="42.6623" y1="15.2492" x2="0" y2="15.2492" gradientUnits="userSpaceOnUse">
            <stop stop-color="#B5FFFF"></stop>
            <stop offset="1" stop-color="#00ECFF"></stop>
        </linearGradient>
        <linearGradient id="paint6_linear" x1="22.9969" y1="30.3054" x2="20.3975" y2="45.0637"
                        gradientUnits="userSpaceOnUse">
            <stop stop-color="#00C3E6"></stop>
            <stop offset="0.5023" stop-color="#00C1E4"></stop>
            <stop offset="0.7034" stop-color="#00BBDD"></stop>
            <stop offset="0.8505" stop-color="#00B1D1"></stop>
            <stop offset="0.9705" stop-color="#00A2C0"></stop>
            <stop offset="1" stop-color="#009DBA"></stop>
        </linearGradient>
        <linearGradient id="paint7_linear" x1="47.274" y1="30.5138" x2="49.3554" y2="36.2389"
                        gradientUnits="userSpaceOnUse">
            <stop stop-color="#14D5A4"></stop>
            <stop offset="0.3907" stop-color="#12D2A1"></stop>
            <stop offset="0.7334" stop-color="#0AC996"></stop>
            <stop offset="0.9948" stop-color="#00BE88"></stop>
        </linearGradient>
    </defs>
</svg>
