<?xml version="1.0" encoding="UTF-8"?> <svg xmlns="http://www.w3.org/2000/svg" width="31" height="22" viewBox="0 0 31 22" fill="none"> <path d="M30.3404 3.39397C29.9834 2.06682 28.937 1.02065 27.6101 0.663289C25.1859 0 15.489 0 15.489 0C15.489 0 5.79243 0 3.36825 0.638141C2.06682 0.995122 0.994933 2.06701 0.637952 3.39397C0 5.81796 0 10.845 0 10.845C0 10.845 0 15.8974 0.637952 18.296C0.995311 19.623 2.0413 20.6692 3.36844 21.0265C5.81796 21.69 15.4893 21.69 15.4893 21.69C15.4893 21.69 25.1859 21.69 27.6101 21.0519C28.9372 20.6947 29.9834 19.6485 30.3407 18.3216C30.9785 15.8974 30.9785 10.8705 30.9785 10.8705C30.9785 10.8705 31.004 5.81796 30.3404 3.39397V3.39397ZM12.4017 15.4892V6.20084L20.4651 10.845L12.4017 15.4892Z" fill="white"></path> </svg> 