<?xml version="1.0" encoding="UTF-8"?> <svg xmlns="http://www.w3.org/2000/svg" width="59" height="50" viewBox="0 0 59 50" fill="none"> <path d="M57.3178 21.424H58.6317V0.363281H0.46582V21.424H1.77963C3.59109 21.424 5.08405 22.8871 5.08405 24.7284C5.08405 26.5698 3.60104 28.0329 1.77963 28.0329H0.46582V49.0936H58.6217V28.0229H57.3079C55.4964 28.0229 54.0035 26.5399 54.0035 24.7185C54.0134 22.917 55.4964 21.424 57.3178 21.424ZM55.9344 30.551V46.4063H3.15315V30.5609C4.22809 30.3121 5.21344 29.7647 6.00969 28.9685C7.14434 27.8338 7.77139 26.3309 7.77139 24.7284C7.77139 21.8918 5.80067 19.513 3.15315 18.8959V3.05061H55.9443V18.8959C53.3167 19.513 51.336 21.8819 51.3161 24.6986V24.7185C51.3161 27.5452 53.2968 29.9239 55.9344 30.551Z" fill="#3679FF"></path> <path d="M21.8749 11.6992C18.9188 11.6992 16.5201 14.1079 16.5201 17.0639C16.5201 20.02 18.9188 22.4286 21.8749 22.4286C24.831 22.4286 27.2396 20.02 27.2396 17.0639C27.2396 14.1079 24.831 11.6992 21.8749 11.6992ZM21.8749 19.7214C20.4118 19.7214 19.2174 18.527 19.2174 17.0639C19.2174 15.6008 20.4118 14.4065 21.8749 14.4065C23.338 14.4065 24.5324 15.6008 24.5324 17.0639C24.5324 18.527 23.338 19.7214 21.8749 19.7214Z" fill="#3679FF"></path> <path d="M39.3425 17.0561L21.8649 34.5536L19.7051 32.3938L37.2026 14.9062L39.3425 17.0561Z" fill="#3679FF"></path> <path d="M37.2225 27.0273C34.2664 27.0273 31.8578 29.436 31.8578 32.3921C31.8578 35.3481 34.2664 37.7568 37.2225 37.7568C40.1786 37.7568 42.5872 35.3481 42.5872 32.3921C42.5872 29.436 40.1786 27.0273 37.2225 27.0273ZM37.2225 35.0694C35.7594 35.0694 34.565 33.8751 34.565 32.412C34.565 30.9489 35.7594 29.7545 37.2225 29.7545C38.6856 29.7545 39.88 30.9489 39.88 32.412C39.88 33.8751 38.6856 35.0694 37.2225 35.0694Z" fill="#3679FF"></path> </svg> 