<?xml version="1.0" encoding="UTF-8"?> <svg xmlns="http://www.w3.org/2000/svg" width="111" height="111" viewBox="0 0 111 111" fill="none"> <rect x="0.977539" y="0.800781" width="110" height="110" fill="white"></rect> <path d="M69.0794 70.2121C69.4432 67.1777 69.3342 66.7327 71.5912 67.2242L72.1642 67.2746C73.8996 67.3537 76.1699 66.9951 77.5036 66.3746C80.3747 65.0406 82.0771 62.8132 79.2461 63.3984C72.7884 64.7325 72.3444 62.5428 72.3444 62.5428C79.1634 52.411 82.014 39.5496 79.5535 36.4014C72.8425 27.8142 61.2259 31.8749 61.0315 31.9803L60.9696 31.9917C59.6937 31.7266 58.2657 31.5682 56.6616 31.5423C53.7393 31.4942 51.5218 32.3094 49.8398 33.5871C49.8398 33.5871 29.1164 25.0373 30.0805 44.3392C30.2855 48.4453 35.9578 75.4092 42.7232 67.2649C45.1959 64.2868 47.5855 61.7687 47.5855 61.7687C48.7721 62.5581 50.1927 62.9608 51.6827 62.8161L51.7979 62.7178C51.7618 63.0876 51.7777 63.4492 51.8439 63.8774C50.1014 65.8274 50.6134 66.1698 47.129 66.888C43.6038 67.6156 45.6749 68.911 47.0267 69.2495C48.666 69.66 52.4583 70.2415 55.0214 66.6493L54.9193 67.0591C55.603 67.6069 55.5568 70.9959 55.6537 73.4173C55.7508 75.8388 55.9127 78.0984 56.4056 79.4307C56.8985 80.7627 57.4801 84.1943 62.0594 83.2115C65.8866 82.3902 68.8128 81.2081 69.0794 70.212" fill="#0E0E23"></path> <path d="M69.0794 70.2121C69.4432 67.1777 69.3342 66.7327 71.5912 67.2242L72.1642 67.2746C73.8996 67.3537 76.1699 66.9951 77.5036 66.3746C80.3747 65.0406 82.0771 62.8132 79.2461 63.3984C72.7884 64.7325 72.3444 62.5428 72.3444 62.5428C79.1634 52.411 82.014 39.5496 79.5535 36.4014C72.8425 27.8142 61.2259 31.8749 61.0315 31.9803L60.9696 31.9917C59.6937 31.7266 58.2657 31.5682 56.6616 31.5423C53.7393 31.4942 51.5218 32.3094 49.8398 33.5871C49.8398 33.5871 29.1164 25.0373 30.0805 44.3392C30.2855 48.4453 35.9578 75.4092 42.7232 67.2649C45.1959 64.2868 47.5855 61.7687 47.5855 61.7687C48.7721 62.5581 50.1927 62.9608 51.6827 62.8161L51.7979 62.7178C51.7618 63.0876 51.7777 63.4492 51.8439 63.8774C50.1014 65.8274 50.6134 66.1698 47.129 66.888C43.6038 67.6156 45.6749 68.911 47.0267 69.2495C48.666 69.66 52.4583 70.2415 55.0214 66.6493L54.9193 67.0591C55.603 67.6069 55.5568 70.9959 55.6537 73.4173C55.7508 75.8388 55.9127 78.0984 56.4056 79.4307C56.8985 80.7627 57.4801 84.1943 62.0594 83.2115C65.8866 82.3902 68.8128 81.2081 69.0794 70.212" stroke="#0E0E23" stroke-width="4.93373"></path> <path d="M79.2474 63.3984C72.789 64.7324 72.3451 62.5427 72.3451 62.5427C79.1641 52.4103 82.0146 39.5486 79.5546 36.4008C72.8436 27.8141 61.2265 31.8751 61.0326 31.9805L60.9702 31.9917C59.6943 31.7264 58.2663 31.5684 56.6614 31.5422C53.7391 31.4942 51.5224 32.3094 49.8404 33.5867C49.8404 33.5867 29.1166 25.0374 30.0805 44.3392C30.2855 48.4455 35.9577 75.4094 42.7233 67.265C45.1961 64.2869 47.5853 61.7689 47.5853 61.7689C48.772 62.5583 50.1927 62.961 51.682 62.8163L51.7977 62.718C51.7618 63.0877 51.7782 63.4494 51.8441 63.8776C50.1011 65.8276 50.6133 66.17 47.1291 66.8882C43.6037 67.6158 45.6747 68.9111 47.0269 69.2497C48.6662 69.6602 52.4588 70.2417 55.0214 66.6494L54.9192 67.0593C55.6021 67.607 56.0816 70.6222 56.0012 73.3554C55.9209 76.0887 55.8672 77.9652 56.4053 79.4309C56.9434 80.8966 57.4797 84.1945 62.0599 83.2117C65.8871 82.3903 67.8704 80.262 68.1463 76.7117C68.3421 74.1877 68.7852 74.5608 68.8131 72.3043L69.1685 71.236C69.5784 67.8146 69.2336 66.7108 71.5915 67.2242L72.1645 67.2746C73.9 67.3536 76.1714 66.995 77.5045 66.3746C80.375 65.0405 82.0775 62.8131 79.2471 63.3984H79.2474Z" fill="#0E0E23"></path> <path d="M55.2961 65.3594C55.1182 71.7257 55.3407 78.1364 55.9628 79.6945C56.5852 81.2525 57.9173 84.2829 62.4979 83.3003C66.3247 82.4787 67.7171 80.8888 68.3214 77.3794C68.7664 74.7974 69.6243 67.6267 69.7343 66.1575" stroke="white" stroke-width="1.64458" stroke-linecap="round" stroke-linejoin="round"></path> <path d="M49.8069 33.4445C49.8069 33.4445 29.069 24.9567 30.0331 44.2585C30.2381 48.3648 35.9107 75.3296 42.6762 67.1849C45.1485 64.2064 47.3844 61.8704 47.3844 61.8704" stroke="white" stroke-width="1.64458" stroke-linecap="round" stroke-linejoin="round"></path> <path d="M61.0102 31.8969C60.2923 32.1223 72.5459 27.4112 79.5097 36.322C81.9695 39.4699 79.119 52.3316 72.3001 62.4643" stroke="white" stroke-width="1.64458" stroke-linecap="round" stroke-linejoin="round"></path> <path d="M72.2974 62.468C72.2974 62.468 72.7418 64.6584 79.2003 63.3234C82.03 62.7382 80.327 64.9658 77.4571 66.3005C75.1017 67.3952 69.8211 67.6757 69.7349 66.1631C69.5129 62.2603 72.5142 63.446 72.2976 62.468C72.1018 61.5873 70.7596 60.7229 69.8717 58.5674C69.0966 56.6861 59.2415 42.2583 72.6048 44.401C73.0944 44.2996 69.1195 31.6722 56.6133 31.4669C44.1099 31.2615 44.5201 46.8649 44.5201 46.8649" stroke="white" stroke-width="1.64458" stroke-linecap="round" stroke-linejoin="bevel"></path> <path d="M51.7969 63.8022C50.0538 65.7521 50.5664 66.0945 47.082 66.8129C43.5565 67.5406 45.6279 68.8357 46.9797 69.1741C48.619 69.5849 52.4115 70.1664 54.9741 66.5733C55.7545 65.4792 54.9695 63.7336 53.8975 63.2886C53.3796 63.0738 52.6871 62.8046 51.7969 63.8022V63.8022Z" stroke="white" stroke-width="1.64458" stroke-linecap="round" stroke-linejoin="round"></path> <path d="M51.6824 63.7625C51.5067 62.616 52.0586 61.2517 52.6499 59.6557C53.5386 57.2609 55.5892 54.8657 53.9489 47.2692C52.7262 41.6083 44.5255 46.0911 44.5203 46.8587C44.5153 47.626 44.8912 50.7492 44.3833 54.3863C43.7206 59.1322 47.399 63.1461 51.6347 62.7355" stroke="white" stroke-width="1.64458" stroke-linecap="round" stroke-linejoin="round"></path> <path d="M49.7318 46.7481C49.6949 47.0102 50.2111 47.7098 50.8843 47.8033C51.5563 47.8971 52.1315 47.3504 52.1679 47.0885C52.2044 46.8264 51.6888 46.5376 51.0154 46.4437C50.343 46.3497 49.7675 46.4865 49.732 46.7481H49.7318Z" fill="white" stroke="white" stroke-width="0.548188"></path> <path d="M70.199 46.2089C70.2354 46.4711 69.7198 47.1707 69.0465 47.2641C68.374 47.358 67.7988 46.8113 67.762 46.5494C67.7264 46.2872 68.2422 45.9985 68.9148 45.9046C69.5875 45.8108 70.1625 45.9474 70.199 46.2091V46.2089Z" fill="white" stroke="white" stroke-width="0.274094"></path> <path d="M72.6033 44.3984C72.7141 46.4548 72.1609 47.8555 72.0912 50.0445C71.988 53.2264 73.6061 56.8683 71.168 60.5148" stroke="white" stroke-width="1.64458" stroke-linecap="round" stroke-linejoin="round"></path> </svg> 