<?xml version="1.0" encoding="UTF-8"?> <svg xmlns="http://www.w3.org/2000/svg" width="111" height="111" viewBox="0 0 111 111" fill="none"> <rect x="0.749023" y="0.433594" width="110" height="110" fill="#2BDBA8"></rect> <path d="M65.7584 65.2062C67.6734 65.008 69.1261 63.3571 69.0601 61.3759C68.9942 59.3949 67.3432 57.81 65.3621 57.81H65.2302C63.1829 57.876 61.5981 59.5929 61.6642 61.64C61.7303 62.6307 62.1264 63.4891 62.7207 64.0834C60.4756 68.508 57.0418 71.7438 51.8911 74.4513C48.3912 76.3003 44.7594 76.9608 41.1276 76.4986C38.1559 76.1023 35.8447 74.7817 34.3917 72.6022C32.2788 69.3665 32.0807 65.8664 33.8637 62.3665C35.1184 59.8571 37.0992 58.008 38.354 57.0835C38.0898 56.225 37.6936 54.7723 37.4955 53.7158C27.9204 60.6496 28.911 70.0269 31.8166 74.4513C33.9956 77.7533 38.42 79.8004 43.3066 79.8004C44.6272 79.8004 45.9478 79.6683 47.2686 79.3383C55.7212 77.6872 62.1266 72.6683 65.7584 65.2062V65.2062ZM77.3806 57.0176C72.3619 51.1402 64.9661 47.9045 56.5135 47.9045H55.457C54.8627 46.7158 53.608 45.9232 52.2213 45.9232H52.0891C50.0422 45.9893 48.4575 47.7062 48.5234 49.7535C48.5895 51.7345 50.2403 53.3195 52.2213 53.3195H52.3533C53.806 53.2534 55.0608 52.3289 55.589 51.0741H56.7777C61.7964 51.0741 66.5508 52.5269 70.8432 55.3666C74.1449 57.5458 76.5222 60.3855 77.8428 63.8193C78.9653 66.5929 78.8993 69.3004 77.7106 71.6118C75.8618 75.1117 72.7582 77.0268 68.664 77.0268C66.0225 77.0268 63.5133 76.2343 62.1925 75.6399C61.4662 76.3003 60.1454 77.3568 59.2208 78.0174C62.0605 79.3381 64.9661 80.0645 67.7394 80.0645C74.0788 80.0645 78.7673 76.5645 80.5503 73.0646C82.4652 69.2343 82.3331 62.6307 77.3806 57.0176V57.0176ZM43.8349 66.3286C43.9009 68.3098 45.5518 69.8945 47.5328 69.8945H47.6649C49.712 69.8286 51.2968 68.1115 51.2307 66.0644C51.1648 64.0832 49.5138 62.4985 47.5328 62.4985H47.4008C47.2686 62.4985 47.0704 62.4985 46.9386 62.5644C44.2311 58.0739 43.1086 53.1873 43.5049 47.9043C43.7688 43.942 45.0896 40.508 47.4008 37.6684C49.3157 35.225 53.0137 34.0363 55.5231 33.9705C62.5227 33.8383 65.4941 42.5551 65.6923 46.0552C66.5508 46.2533 68.0036 46.7156 68.9942 47.0458C68.2016 36.348 61.5981 30.8008 55.259 30.8008C49.3157 30.8008 43.8349 35.0932 41.6556 41.4328C38.6181 49.8855 40.5991 58.008 44.297 64.4136C43.967 64.8758 43.7688 65.6023 43.8349 66.3288V66.3286Z" fill="#0E0E23"></path> </svg> 