<?xml version="1.0" encoding="UTF-8"?> <svg xmlns="http://www.w3.org/2000/svg" width="61" height="60" viewBox="0 0 61 60" fill="none"> <path d="M0.599609 59.3026V26.1804H12.9271V21.208H0.599609V0.460938H27.8759V21.208H15.5324V26.1804H32.8323V18.4756H52.515V26.1804H60.1085V59.3026H57.4873V36.3792H52.515V43.9409H49.6079C49.449 43.9568 49.3219 43.9568 49.1948 43.9568H43.9842V53.679H52.5309V59.3026H49.9097V56.3002H35.4535V59.3026H32.8482V53.679H41.3789V43.9727H36.1683C36.0412 43.9727 35.8983 43.9727 35.7553 43.9568H32.8323V36.395H27.86V51.5662H3.2208V59.3185H0.599609V59.3026ZM3.2208 48.9291H25.2547V36.3792H3.2208V48.9291ZM52.515 33.7739H57.4873V28.8015H52.515V33.7739ZM3.20491 33.7739H32.8323V28.8015H3.20491V33.7739Z" fill="#3679FF"></path> <path d="M15.9102 41.3516H12.8512V44.4106H15.9102V41.3516Z" fill="#3679FF"></path> </svg> 