<?xml version="1.0" encoding="UTF-8"?> <svg xmlns="http://www.w3.org/2000/svg" width="60" height="47" viewBox="0 0 60 47" fill="none"> <path fill-rule="evenodd" clip-rule="evenodd" d="M59.261 13.2827C59.2565 17.809 56.9457 22.0209 53.1306 24.4563V44.9565V47H51.0871H2.04347H0V44.9565V4.08684H36.4161C38.8747 1.52151 42.2591 0.0500865 45.812 0.00127645C49.3649 -0.0479867 52.7886 1.33048 55.3165 3.82691C57.8449 6.32335 59.2651 9.72989 59.261 13.2827ZM32.7483 12.261H2.04346L2.04405 6.13055H34.804C33.6204 7.97156 32.9139 10.0784 32.7483 12.261ZM39.0445 24.6117C42.6769 26.8368 47.1566 27.1825 51.0871 25.5413L51.0864 44.9571H2.04276V14.3049H32.7476C33.0701 18.5524 35.4124 22.3862 39.0445 24.6117ZM53.9257 5.33546C56.0334 7.44329 57.2176 10.3019 57.2176 13.2827C57.2143 16.2626 56.0288 19.1194 53.9219 21.2263C51.815 23.3332 48.9584 24.5187 45.9784 24.5219C42.9975 24.5219 40.1389 23.3379 38.0311 21.23C35.9234 19.1222 34.7392 16.2637 34.7392 13.2827C34.7392 10.3018 35.9233 7.44329 38.0311 5.33546C40.1389 3.22775 42.9975 2.04358 45.9784 2.04358C48.9593 2.04358 51.8179 3.22764 53.9257 5.33546Z" fill="#0E0E23"></path> <path fill-rule="evenodd" clip-rule="evenodd" d="M19.3696 21.4567C19.3696 20.3729 19.8002 19.3333 20.5665 18.5666C21.3333 17.8003 22.3728 17.3697 23.4566 17.3697C24.5403 17.3697 25.5799 17.8003 26.3466 18.5666C27.1129 19.3334 27.5435 20.3729 27.5435 21.4567C27.5435 22.5404 27.1129 23.58 26.3466 24.3468C25.5799 25.1131 24.5403 25.5437 23.4566 25.5437C22.3728 25.5423 21.3341 25.1112 20.5679 24.3454C19.802 23.579 19.371 22.5404 19.3696 21.4567ZM22.0115 22.9017C21.6284 22.5186 21.4131 21.9986 21.4131 21.4567C21.4135 20.9148 21.6293 20.3953 22.012 20.0121C22.3951 19.6294 22.9147 19.4137 23.4566 19.4132C23.9985 19.4132 24.5185 19.6285 24.9016 20.0117C25.2848 20.3948 25.5001 20.9148 25.5001 21.4567C25.5001 21.9986 25.2848 22.5186 24.9016 22.9017C24.5185 23.2849 23.9985 23.5002 23.4566 23.5002C22.9147 23.5002 22.3947 23.2849 22.0115 22.9017Z" fill="#0E0E23"></path> <path fill-rule="evenodd" clip-rule="evenodd" d="M31.6305 33.1434V35.7617C31.63 36.3036 31.4143 36.8231 31.0316 37.2062C30.6485 37.5889 30.1289 37.8047 29.587 37.8051H17.3261C16.7842 37.8047 16.2647 37.5889 15.8816 37.2062C15.4989 36.8231 15.2831 36.3035 15.2826 35.7617V33.1434C15.2845 31.6706 15.8701 30.2584 16.9119 29.217C17.9533 28.1752 19.3655 27.5895 20.8384 27.5877H26.0748C27.5476 27.5895 28.9599 28.1752 30.0012 29.217C31.043 30.2584 31.6288 31.6706 31.6305 33.1434ZM29.5871 33.1434L29.5884 35.7617H17.3261V33.1434C17.327 32.2124 17.6974 31.3193 18.356 30.6611C19.0143 30.0025 19.9074 29.6321 20.8383 29.6312H26.0748C27.0058 29.6321 27.8989 30.0025 28.5571 30.6611C29.2158 31.3194 29.5861 32.2125 29.5871 33.1434Z" fill="#0E0E23"></path> <path d="M18.3479 41.8915H15.2826L15.2826 40.8698V39.8486L18.3479 39.848L25.5001 39.8135V40.8698V41.8921L18.3479 41.8915Z" fill="#0E0E23"></path> <path fill-rule="evenodd" clip-rule="evenodd" d="M54.1523 10.2185V16.3489V17.7079L52.8829 17.3401L50.0366 16.6285L50.0654 18.3914H48.0219H39.8479H37.8613V16.348V10.2073V8.23191H39.848H48.0219H49.7136V10.2073L52.8829 9.22677L54.1523 8.81173V10.2185ZM48.0219 10.2175L48.0233 16.348H39.848V10.2175H48.0219ZM50.0654 12.038L52.1088 11.5271V15.0403L50.0654 14.5294V12.038Z" fill="#0E0E23"></path> <path fill-rule="evenodd" clip-rule="evenodd" d="M27.5435 40.8704V39.8135H31.6305V40.8704V41.8921H27.5435V40.8704ZM4.08695 8.23191H18.3913V9.19578V10.2175H4.08695V9.19578V8.23191Z" fill="#0E0E23"></path> <path d="M45.9786 11.2398C45.5654 11.2398 45.1927 11.4889 45.0349 11.8707C44.8766 12.2525 44.9637 12.6917 45.2561 12.9841C45.5485 13.2765 45.9877 13.3636 46.3695 13.2053C46.7513 13.0475 47.0004 12.6748 47.0004 12.2616C47.0004 11.9906 46.8927 11.7306 46.7011 11.5391C46.5096 11.3475 46.2496 11.2398 45.9786 11.2398Z" fill="#0E0E23"></path> </svg> 