<?xml version="1.0" encoding="UTF-8"?> <svg xmlns="http://www.w3.org/2000/svg" width="563" height="557" viewBox="0 0 563 557" fill="none"> <path d="M555.567 278.563L278.508 1.50391L1.44843 278.563L278.508 555.623L555.567 278.563Z" stroke="#4C4C72" stroke-width="1.17709"></path> <path d="M185.6 278.564L93.2461 186.211L0.89254 278.564L93.2461 370.918L185.6 278.564Z" stroke="#4C4C72" stroke-width="1.17709"></path> <path d="M370.584 278.563L185.877 93.8555L1.16985 278.563L185.877 463.27L370.584 278.563Z" stroke="#4C4C72" stroke-width="1.17709"></path> <path d="M355.844 278.563L363.154 271.252L370.465 278.563L363.154 285.874L355.844 278.563Z" fill="#3679FF" stroke="#19192E" stroke-width="0.588546"></path> <path d="M374.627 278.562L363.154 267.09L351.682 278.562L363.154 290.035L374.627 278.562Z" fill="#3679FF" stroke="#19192E" stroke-width="5.29692"></path> <path d="M170.094 278.563L177.404 271.252L184.715 278.563L177.404 285.874L170.094 278.563Z" fill="#12E6AD" stroke="#19192E" stroke-width="0.588546"></path> <path d="M188.877 278.562L177.404 267.09L165.932 278.562L177.404 290.035L188.877 278.562Z" fill="#12E6AD" stroke="#19192E" stroke-width="5.29692"></path> <path d="M540.306 278.563L547.617 271.252L554.928 278.563L547.617 285.874L540.306 278.563Z" fill="#773EE8" stroke="#19192E" stroke-width="0.588546"></path> <path d="M559.09 278.562L547.617 267.09L536.145 278.562L547.617 290.035L559.09 278.562Z" stroke="#19192E" stroke-width="5.29692"></path> <path d="M273.545 284.613H274.76V275.022H280.071V284.613H281.285V274.019H273.545V284.613ZM284.084 284.613H285.312V280.616H286.838C289.31 280.616 290.553 279.006 290.553 277.198C290.553 275.248 289.112 274.019 286.838 274.019H284.084V284.613ZM285.312 279.613V275.022H286.824C288.491 275.022 289.338 276.082 289.338 277.24C289.338 278.624 288.434 279.613 286.824 279.613H285.312ZM291.498 284.613L292.699 281.548H297.36L298.561 284.613H299.451V283.709L295.538 274.019H294.563L290.622 283.822V284.613H291.498ZM296.95 280.559H293.094L295.029 275.63L296.95 280.559ZM302.362 279.542L307.546 284.613H308.379V283.78L303.661 279.217L308.125 274.796V274.019H307.348L302.362 279.062V274.019H301.133V284.613H302.362V279.542ZM312.459 284.613H313.674V275.022H317.205V274.019H308.914V275.022H312.459V284.613ZM318.858 284.613H320.073L325.709 275.926V284.613H326.938V274.019H325.709L320.073 282.819V274.019H318.858V284.613ZM330.957 279.542L336.141 284.613H336.974V283.78L332.256 279.217L336.72 274.796V274.019H335.943L330.957 279.062V274.019H329.728V284.613H330.957V279.542ZM338.37 284.613L339.571 281.548H344.232L345.433 284.613H346.323V283.709L342.41 274.019H341.435L337.495 283.822V284.613H338.37ZM343.823 280.559H339.966L341.902 275.63L343.823 280.559Z" fill="white"></path> <path d="M101.8 284.613H103.014V275.022H106.546V274.019H98.2543V275.022H101.8V284.613ZM108.199 284.613H114.16V283.61H109.428V279.655H113.694V278.652H109.428V275.022H114.16V274.019H108.199V284.613ZM120.65 284.755C123.8 284.755 125.834 282.424 125.834 279.274C125.834 276.166 123.8 273.878 120.65 273.878C117.5 273.878 115.466 276.166 115.466 279.274C115.466 282.424 117.5 284.755 120.65 284.755ZM120.65 283.752C118.206 283.752 116.681 281.859 116.681 279.274C116.681 276.746 118.206 274.881 120.65 274.881C123.094 274.881 124.619 276.746 124.619 279.274C124.619 281.859 123.094 283.752 120.65 283.752ZM127.938 284.613H129.167V280.616H130.693C133.165 280.616 134.408 279.006 134.408 277.198C134.408 275.248 132.967 274.019 130.693 274.019H127.938V284.613ZM129.167 279.613V275.022H130.679C132.345 275.022 133.193 276.082 133.193 277.24C133.193 278.624 132.289 279.613 130.679 279.613H129.167ZM136.325 284.613H137.54L143.176 275.926V284.613H144.405V274.019H143.176L137.54 282.819V274.019H136.325V284.613ZM152.167 280.206V284.613H153.396V274.019H150.542C148.367 274.019 146.969 275.22 146.969 277.113C146.969 278.497 147.774 279.585 149.243 279.994L146.319 283.78V284.613H147.138L150.486 280.206H152.167ZM150.542 279.203C149.102 279.203 148.184 278.412 148.184 277.127C148.184 275.912 149.059 275.022 150.528 275.022H152.167V279.203H150.542Z" fill="white"></path> <path d="M417.882 284.613L419.082 281.548H423.743L424.944 284.613H425.834V283.709L421.921 274.019H420.947L417.006 283.822V284.613H417.882ZM423.334 280.559H419.478L421.413 275.63L423.334 280.559ZM428.745 279.542L433.929 284.613H434.763V283.78L430.045 279.217L434.508 274.796V274.019H433.731L428.745 279.062V274.019H427.516V284.613H428.745V279.542ZM438.842 284.613H440.057V275.022H443.588V274.019H435.297V275.022H438.842V284.613ZM447.05 284.613L452.191 274.796V274.019H451.414L448.208 280.277L444.846 274.019H444.013V274.853L447.558 281.463L446.273 283.836V284.613H447.05ZM452.684 284.613L453.885 281.548H458.546L459.746 284.613H460.636V283.709L456.724 274.019H455.749L451.808 283.822V284.613H452.684ZM458.136 280.559H454.28L456.215 275.63L458.136 280.559ZM461.104 284.613H461.542C463.604 284.613 464.042 282.565 464.155 278.695L464.254 275.022H468.209V284.613H469.438V274.019H463.166L463.039 278.723C462.94 282.113 462.559 283.497 461.443 283.497H461.104V284.613ZM472.237 284.613H473.451L479.087 275.926V284.613H480.316V274.019H479.087L473.451 282.819V274.019H472.237V284.613ZM485.762 284.755C487.867 284.755 489.138 283.441 489.138 281.562C489.138 280.249 488.375 279.288 487.104 278.963C488.078 278.539 488.686 277.678 488.686 276.647C488.686 274.994 487.429 273.878 485.55 273.878C483.431 273.878 482.654 275.178 482.556 275.503V276.294H483.445C483.53 275.912 484.053 274.881 485.508 274.881C486.737 274.881 487.457 275.63 487.457 276.647C487.457 277.791 486.722 278.582 485.423 278.582H484.392V279.599H485.479C487.16 279.599 487.909 280.376 487.909 281.591C487.909 282.947 487.061 283.738 485.677 283.738C483.982 283.738 483.29 282.565 483.219 282.127H482.344V282.918C482.4 283.243 483.219 284.755 485.762 284.755ZM490.866 284.613L492.066 281.548H496.728L497.928 284.613H498.818V283.709L494.906 274.019H493.931L489.99 283.822V284.613H490.866ZM496.318 280.559H492.462L494.397 275.63L496.318 280.559ZM508.538 286.732H509.654V283.61H508.241V274.019H507.027V283.61H501.715V274.019H500.501V284.613H508.538V286.732ZM511.508 284.613H512.723L518.359 275.926V284.613H519.588V274.019H518.359L512.723 282.819V274.019H511.508V284.613ZM527.35 280.206V284.613H528.579V274.019H525.726C523.55 274.019 522.152 275.22 522.152 277.113C522.152 278.497 522.957 279.585 524.426 279.994L521.502 283.78V284.613H522.322L525.669 280.206H527.35ZM525.726 279.203C524.285 279.203 523.367 278.412 523.367 277.127C523.367 275.912 524.243 275.022 525.712 275.022H527.35V279.203H525.726Z" fill="white"></path> </svg> 