<?xml version="1.0" encoding="UTF-8"?> <svg xmlns="http://www.w3.org/2000/svg" width="20" height="20" viewBox="0 0 20 20" fill="none"> <path d="M19.9291 19.6113V19.6106H19.9338V12.6423C19.9338 9.23338 19.2 6.60742 15.2147 6.60742C13.2989 6.60742 12.0132 7.65876 11.4883 8.65546H11.4329V6.92567H7.6543V19.6106H11.5889V13.3295C11.5889 11.6757 11.9024 10.0765 13.9504 10.0765C15.9684 10.0765 15.9985 11.9638 15.9985 13.4356V19.6113H19.9291Z" fill="white"></path> <path d="M1.24707 6.92578H5.18641V19.6107H1.24707V6.92578Z" fill="white"></path> <path d="M3.21518 0.611328C1.95564 0.611328 0.933594 1.63337 0.933594 2.89291C0.933594 4.15246 1.95564 5.19587 3.21518 5.19587C4.47472 5.19587 5.49676 4.15246 5.49676 2.89291C5.49597 1.63337 4.47393 0.611328 3.21518 0.611328V0.611328Z" fill="white"></path> </svg> 