<?xml version="1.0" encoding="UTF-8"?> <svg xmlns="http://www.w3.org/2000/svg" width="51" height="49" viewBox="0 0 51 49" fill="none"> <path fill-rule="evenodd" clip-rule="evenodd" d="M22.8612 24.8607H22.2362H18.7641H18.1391V24.2357V20.7638V20.1388H18.7641H22.2362H22.8612V20.7638V24.2357V24.8607ZM22.9304 20H18.0696H18V25H18.0696H22.9304H23V20H22.9304Z" fill="#0E0E23"></path> <path fill-rule="evenodd" clip-rule="evenodd" d="M22.2362 24.8607H22.8612V24.2357V20.7638V20.1388H22.2362H18.7641H18.1391V20.7638V24.2357V24.8607H18.7641H22.2362ZM21.6112 23.6107V21.3888H19.3891V23.6107H21.6112Z" fill="#0E0E23"></path> <path fill-rule="evenodd" clip-rule="evenodd" d="M32.2362 24.8607H32.8612V24.2357V20.7638V20.1388H32.2362H28.7641H28.1391V20.7638V24.2357V24.8607H28.7641H32.2362ZM31.6112 23.6107V21.3888H29.3891V23.6107H31.6112Z" fill="#0E0E23"></path> <path fill-rule="evenodd" clip-rule="evenodd" d="M32.8612 24.8607H32.2362H28.7641H28.1391V24.2357V20.7638V20.1388H28.7641H32.2362H32.8612V20.7638V24.2357V24.8607ZM32.9304 20H28.0696H28V25H28.0696H32.9304H33V20H32.9304Z" fill="#0E0E23"></path> <path fill-rule="evenodd" clip-rule="evenodd" d="M42.8612 24.8607H42.2362H38.7641H38.1391V24.2357V20.7638V20.1388H38.7641H42.2362H42.8612V20.7638V24.2357V24.8607ZM42.9304 20H38.0696H38V25H38.0696H42.9304H43V20H42.9304Z" fill="#0E0E23"></path> <path fill-rule="evenodd" clip-rule="evenodd" d="M42.2362 24.8607H42.8612V24.2357V20.7638V20.1388H42.2362H38.7641H38.1391V20.7638V24.2357V24.8607H38.7641H42.2362ZM41.6112 23.6107V21.3888H39.3891V23.6107H41.6112Z" fill="#0E0E23"></path> <path fill-rule="evenodd" clip-rule="evenodd" d="M12.8613 24.8607H12.2363H8.76419H8.13919V24.2357V20.7638V20.1388H8.76419H12.2363H12.8613V20.7638V24.2357V24.8607ZM12.9304 20H8.06961H8V25H8.06961H12.9304H13V20H12.9304Z" fill="#0E0E23"></path> <path fill-rule="evenodd" clip-rule="evenodd" d="M12.2363 24.8607H12.8613V24.2357V20.7638V20.1388H12.2363H8.76419H8.13919V20.7638V24.2357V24.8607H8.76419H12.2363ZM11.6113 23.6107V21.3888H9.38919V23.6107H11.6113Z" fill="#0E0E23"></path> <path fill-rule="evenodd" clip-rule="evenodd" d="M22.8612 33.8607H22.2362H18.7641H18.1391V33.2357V29.7638V29.1388H18.7641H22.2362H22.8612V29.7638V33.2357V33.8607ZM22.9304 29H18.0696H18V34H18.0696H22.9304H23V29H22.9304Z" fill="#0E0E23"></path> <path fill-rule="evenodd" clip-rule="evenodd" d="M22.2362 33.8607H22.8612V33.2357V29.7638V29.1388H22.2362H18.7641H18.1391V29.7638V33.2357V33.8607H18.7641H22.2362ZM21.6112 32.6107V30.3888H19.3891V32.6107H21.6112Z" fill="#0E0E23"></path> <path fill-rule="evenodd" clip-rule="evenodd" d="M32.8612 33.8607H32.2362H28.7641H28.1391V33.2357V29.7638V29.1388H28.7641H32.2362H32.8612V29.7638V33.2357V33.8607ZM32.9304 29H28.0696H28V34H28.0696H32.9304H33V29H32.9304Z" fill="#0E0E23"></path> <path fill-rule="evenodd" clip-rule="evenodd" d="M32.2362 33.8607H32.8612V33.2357V29.7638V29.1388H32.2362H28.7641H28.1391V29.7638V33.2357V33.8607H28.7641H32.2362ZM31.6112 32.6107V30.3888H29.3891V32.6107H31.6112Z" fill="#0E0E23"></path> <path fill-rule="evenodd" clip-rule="evenodd" d="M42.8612 33.8607H42.2362H38.7641H38.1391V33.2357V29.7638V29.1388H38.7641H42.2362H42.8612V29.7638V33.2357V33.8607ZM42.9304 29H38.0696H38V34H38.0696H42.9304H43V29H42.9304Z" fill="#0E0E23"></path> <path fill-rule="evenodd" clip-rule="evenodd" d="M42.2362 33.8607H42.8612V33.2357V29.7638V29.1388H42.2362H38.7641H38.1391V29.7638V33.2357V33.8607H38.7641H42.2362ZM41.6112 32.6107V30.3888H39.3891V32.6107H41.6112Z" fill="#0E0E23"></path> <path fill-rule="evenodd" clip-rule="evenodd" d="M12.2363 33.8607H12.8613V33.2357V29.7638V29.1388H12.2363H8.76419H8.13919V29.7638V33.2357V33.8607H8.76419H12.2363ZM11.6113 32.6107V30.3888H9.38919V32.6107H11.6113Z" fill="#0E0E23"></path> <path fill-rule="evenodd" clip-rule="evenodd" d="M12.8613 33.8607H12.2363H8.76419H8.13919V33.2357V29.7638V29.1388H8.76419H12.2363H12.8613V29.7638V33.2357V33.8607ZM12.9304 29H8.06961H8V34H8.06961H12.9304H13V29H12.9304Z" fill="#0E0E23"></path> <path fill-rule="evenodd" clip-rule="evenodd" d="M22.8612 42.8607H22.2362H18.7641H18.1391V42.2357V38.7638V38.1388H18.7641H22.2362H22.8612V38.7638V42.2357V42.8607ZM22.9304 38H18.0696H18V43H18.0696H22.9304H23V38H22.9304Z" fill="#0E0E23"></path> <path fill-rule="evenodd" clip-rule="evenodd" d="M22.2362 42.8607H22.8612V42.2357V38.7638V38.1388H22.2362H18.7641H18.1391V38.7638V42.2357V42.8607H18.7641H22.2362ZM21.6112 41.6107V39.3888H19.3891V41.6107H21.6112Z" fill="#0E0E23"></path> <path fill-rule="evenodd" clip-rule="evenodd" d="M32.2362 42.8607H32.8612V42.2357V38.7638V38.1388H32.2362H28.7641H28.1391V38.7638V42.2357V42.8607H28.7641H32.2362ZM31.6112 41.6107V39.3888H29.3891V41.6107H31.6112Z" fill="#0E0E23"></path> <path fill-rule="evenodd" clip-rule="evenodd" d="M32.8612 42.8607H32.2362H28.7641H28.1391V42.2357V38.7638V38.1388H28.7641H32.2362H32.8612V38.7638V42.2357V42.8607ZM32.9304 38H28.0696H28V43H28.0696H32.9304H33V38H32.9304Z" fill="#0E0E23"></path> <path fill-rule="evenodd" clip-rule="evenodd" d="M42.8612 42.8607H42.2362H38.7641H38.1391V42.2357V38.7638V38.1388H38.7641H42.2362H42.8612V38.7638V42.2357V42.8607ZM42.9304 38H38.0696H38V43H38.0696H42.9304H43V38H42.9304Z" fill="#0E0E23"></path> <path fill-rule="evenodd" clip-rule="evenodd" d="M42.2362 42.8607H42.8612V42.2357V38.7638V38.1388H42.2362H38.7641H38.1391V38.7638V42.2357V42.8607H38.7641H42.2362ZM41.6112 41.6107V39.3888H39.3891V41.6107H41.6112Z" fill="#0E0E23"></path> <path fill-rule="evenodd" clip-rule="evenodd" d="M12.2363 42.8607H12.8613V42.2357V38.7638V38.1388H12.2363H8.76419H8.13919V38.7638V42.2357V42.8607H8.76419H12.2363ZM11.6113 41.6107V39.3888H9.38919V41.6107H11.6113Z" fill="#0E0E23"></path> <path fill-rule="evenodd" clip-rule="evenodd" d="M12.8613 42.8607H12.2363H8.76419H8.13919V42.2357V38.7638V38.1388H8.76419H12.2363H12.8613V38.7638V42.2357V42.8607ZM12.9304 38H8.06961H8V43H8.06961H12.9304H13V38H12.9304Z" fill="#0E0E23"></path> <path d="M9.82757 1C8.64971 1 7.69123 1.91251 7.69123 3.03388V5.06776H0.854782H0V49H0.854782H50.1452H51V5.88154V5.06776H43.3088V3.03388C43.3088 1.91251 42.3503 1 41.1724 1C39.9952 1 39.0361 1.91309 39.0361 3.03388V5.06776H11.9636V3.03388C11.9636 1.91309 11.0054 1 9.82757 1ZM9.40018 3.03388C9.40018 2.80915 9.59152 2.62699 9.82757 2.62699C10.0636 2.62699 10.255 2.80915 10.255 3.03388V8.72859C10.255 8.95332 10.0636 9.13549 9.82757 9.13549C9.59152 9.13549 9.40018 8.95332 9.40018 8.72859V3.03388ZM1.70965 47.3724V15.6439H49.291V47.3724H1.70965ZM40.7457 3.03388C40.7457 2.80915 40.937 2.62699 41.173 2.62699C41.4091 2.62699 41.6004 2.80915 41.6004 3.03388V8.72859C41.6004 8.95332 41.4091 9.13549 41.173 9.13549C40.9376 9.13549 40.7457 8.95332 40.7457 8.72859V3.03388ZM39.0367 6.69472V8.72859C39.0367 9.84996 39.9952 10.7625 41.1731 10.7625C42.3509 10.7625 43.3094 9.84996 43.3094 8.72859V6.69472H49.291V14.0164L1.70965 14.017V6.69528H7.69126V8.72916C7.69126 9.85053 8.64974 10.763 9.8276 10.763C11.0055 10.763 11.9639 9.85053 11.9639 8.72916V6.6947L39.0367 6.69472Z" fill="#0E0E23"></path> </svg> 