<?xml version="1.0" encoding="UTF-8"?> <svg xmlns="http://www.w3.org/2000/svg" width="111" height="111" viewBox="0 0 111 111" fill="none"> <rect x="0.402344" y="0.464844" width="110" height="110" fill="white"></rect> <path d="M65.4117 65.2375C67.3267 65.0392 68.7795 63.3884 68.7134 61.4072C68.6475 59.4262 66.9965 57.8412 65.0155 57.8412H64.8835C62.8362 57.9073 61.2515 59.6242 61.3175 61.6713C61.3836 62.6619 61.7797 63.5204 62.374 64.1147C60.1289 68.5393 56.6951 71.775 51.5444 74.4825C48.0445 76.3316 44.4127 76.992 40.7809 76.5298C37.8092 76.1336 35.498 74.8129 34.045 72.6335C31.9321 69.3977 31.734 65.8977 33.517 62.3978C34.7717 59.8883 36.7526 58.0393 38.0073 57.1147C37.7432 56.2563 37.3469 54.8035 37.1488 53.747C27.5738 60.6809 28.5644 70.0581 31.4699 74.4825C33.649 77.7846 38.0734 79.8317 42.9599 79.8317C44.2805 79.8317 45.6012 79.6995 46.922 79.3695C55.3745 77.7185 61.7799 72.6996 65.4117 65.2375V65.2375ZM77.0339 57.0489C72.0152 51.1715 64.6194 47.9357 56.1669 47.9357H55.1104C54.516 46.7471 53.2613 45.9545 51.8746 45.9545H51.7425C49.6956 46.0206 48.1108 47.7375 48.1767 49.7848C48.2428 51.7658 49.8936 53.3507 51.8746 53.3507H52.0066C53.4593 53.2847 54.7141 52.3601 55.2423 51.1054H56.431C61.4497 51.1054 66.2041 52.5582 70.4966 55.3978C73.7982 57.5771 76.1755 60.4168 77.4961 63.8506C78.6187 66.6241 78.5526 69.3317 77.3639 71.6431C75.5151 75.1429 72.4115 77.0581 68.3173 77.0581C65.6759 77.0581 63.1666 76.2655 61.8458 75.6712C61.1195 76.3316 59.7987 77.3881 58.8742 78.0487C61.7138 79.3693 64.6194 80.0958 67.3928 80.0958C73.7321 80.0958 78.4206 76.5957 80.2036 73.0959C82.1185 69.2656 81.9864 62.6619 77.0339 57.0489V57.0489ZM43.4882 66.3598C43.5543 68.341 45.2051 69.9258 47.1861 69.9258H47.3183C49.3654 69.8599 50.9501 68.1428 50.884 66.0957C50.8181 64.1145 49.1671 62.5297 47.1861 62.5297H47.0541C46.922 62.5297 46.7237 62.5297 46.592 62.5956C43.8845 58.1051 42.7619 53.2186 43.1582 47.9355C43.4221 43.9733 44.7429 40.5393 47.0541 37.6996C48.9691 35.2562 52.667 34.0676 55.1764 34.0017C62.176 33.8695 65.1474 42.5864 65.3457 46.0865C66.2041 46.2845 67.6569 46.7469 68.6475 47.0771C67.8549 36.3792 61.2515 30.832 54.9123 30.832C48.9691 30.832 43.4882 35.1245 41.3089 41.464C38.2714 49.9167 40.2524 58.0393 43.9503 64.4449C43.6203 64.907 43.4221 65.6335 43.4882 66.36V66.3598Z" fill="#0E0E23"></path> </svg> 