<?xml version="1.0" encoding="UTF-8"?> <svg xmlns="http://www.w3.org/2000/svg" width="59" height="55" viewBox="0 0 59 55" fill="none"> <path d="M0.737701 0.015625V38.3932H58.0788V0.015625H0.737701ZM55.6404 35.9658H26.9967L26.9431 35.4636C26.4876 31.3064 24.2904 28.0141 20.9143 26.4237L20.2444 26.1029L20.7267 25.5309C21.5707 24.5265 22.0262 23.257 22.0262 21.9317C22.0262 18.8766 19.5879 16.4073 16.6003 16.4073C13.6126 16.4073 11.1743 18.8905 11.1743 21.9317C11.1743 23.257 11.6432 24.5404 12.4873 25.5309L12.9696 26.1029L12.3131 26.4237C9.05752 28.0141 6.86033 31.3064 6.29764 35.4775L6.23065 35.9658H3.18943V2.44299H55.6404V35.9658Z" fill="#773EE8"></path> <path d="M19.3334 47.0389C18.6635 44.7371 16.5735 43.1328 14.2423 43.1328C11.9514 43.1468 9.87476 44.7511 9.19149 47.0389L9.07091 47.4435H0.737701V49.8709H9.07091L9.19149 50.2754C9.86136 52.5772 11.9514 54.1815 14.2691 54.1815C16.5735 54.1676 18.6501 52.5633 19.32 50.2754L19.4405 49.8709H58.0788V47.4435H19.4405L19.3334 47.0389ZM14.2423 45.4904V45.5602C15.8768 45.5602 17.2166 46.9413 17.2166 48.6432C17.2166 50.3452 15.8902 51.7263 14.2557 51.7402C13.4653 51.7402 12.715 51.4194 12.1523 50.8195C11.5896 50.2336 11.2815 49.4663 11.2815 48.6432C11.2815 46.9413 12.6078 45.5602 14.2423 45.5602V45.4904Z" fill="#773EE8"></path> <path d="M34.1643 11.0469V26.2668L48.7809 18.6498L34.1643 11.0469ZM43.5559 18.6498L36.4955 22.3328V14.9809L43.5559 18.6498Z" fill="#773EE8"></path> </svg> 