<?xml version="1.0" encoding="UTF-8"?> <svg xmlns="http://www.w3.org/2000/svg" width="111" height="111" viewBox="0 0 111 111" fill="none"> <rect x="0.977539" y="0.421875" width="110" height="110" fill="white"></rect> <path d="M81.5944 56.7993C81.5944 53.3221 77.2399 50.0268 70.5637 47.9833C72.1044 41.1787 71.4196 35.765 68.4025 34.0317C67.7071 33.6252 66.8939 33.4326 66.0059 33.4326V35.8185C66.4981 35.8185 66.894 35.9147 67.2256 36.0966C68.6807 36.9312 69.3119 40.1088 68.8198 44.1958C68.7021 45.2015 68.5095 46.2607 68.2741 47.3413C66.1771 46.8278 63.8875 46.4319 61.4802 46.1751C60.0359 44.1958 58.538 42.3984 57.0294 40.8256C60.5173 37.5838 63.7912 35.8078 66.0166 35.8078V33.4219C63.0744 33.4219 59.2227 35.5189 55.3283 39.1566C51.4339 35.5403 47.5822 33.4647 44.64 33.4647V35.8506C46.8547 35.8506 50.1393 37.6159 53.6272 40.8363C52.1293 42.4091 50.6314 44.1958 49.2085 46.1751C46.7905 46.4319 44.5009 46.8278 42.4039 47.352C42.1578 46.2821 41.9759 45.2443 41.8475 44.2493C41.3447 40.1623 41.9652 36.9847 43.4096 36.1394C43.7306 35.9468 44.1478 35.8613 44.64 35.8613V33.4754C43.7413 33.4754 42.9281 33.668 42.222 34.0745C39.2156 35.8078 38.5415 41.2108 40.0929 47.994C33.4381 50.0482 29.105 53.3328 29.105 56.7993C29.105 60.2764 33.4595 63.5717 40.1357 65.6153C38.595 72.4198 39.2798 77.8335 42.2969 79.5668C42.9923 79.9734 43.8054 80.1659 44.7042 80.1659C47.6464 80.1659 51.498 78.0689 55.3925 74.4313C59.2869 78.0475 63.1386 80.1231 66.0808 80.1231C66.9795 80.1231 67.7927 79.9306 68.4988 79.524C71.5052 77.7907 72.1793 72.3877 70.6279 65.6046C77.2613 63.561 81.5944 60.2657 81.5944 56.7993ZM67.6643 49.663C67.2684 51.0432 66.7763 52.4661 66.2199 53.8891C65.7812 53.0332 65.3212 52.1773 64.8183 51.3214C64.3262 50.4654 63.8019 49.6309 63.2777 48.8178C64.7969 49.0425 66.2627 49.3206 67.6643 49.663ZM62.7641 61.0575C61.9296 62.5018 61.0737 63.8713 60.1857 65.1445C58.5915 65.2836 56.976 65.3585 55.3497 65.3585C53.7341 65.3585 52.1186 65.2836 50.5351 65.1552C49.6471 63.882 48.7805 62.5232 47.946 61.0896C47.1328 59.688 46.3946 58.265 45.7206 56.8313C46.3839 55.3977 47.1328 53.964 47.9353 52.5624C48.7698 51.1181 49.6257 49.7486 50.5137 48.4754C52.1079 48.3363 53.7234 48.2614 55.3497 48.2614C56.9653 48.2614 58.5808 48.3363 60.1643 48.4647C61.0523 49.7379 61.9189 51.0967 62.7534 52.5303C63.5666 53.9319 64.3048 55.3549 64.9788 56.7886C64.3048 58.2222 63.5666 59.6559 62.7641 61.0575ZM66.2199 59.6666C66.7977 61.1003 67.2898 62.5339 67.6964 63.9248C66.2948 64.2672 64.8183 64.5561 63.2884 64.7807C63.8126 63.9569 64.3369 63.1117 64.829 62.2451C65.3212 61.3891 65.7812 60.5225 66.2199 59.6666ZM55.3711 71.0825C54.3761 70.0554 53.3811 68.9106 52.3968 67.6588C53.3597 67.7016 54.344 67.7337 55.339 67.7337C56.3447 67.7337 57.3397 67.7123 58.3133 67.6588C57.3504 68.9106 56.3554 70.0554 55.3711 71.0825ZM47.411 64.7807C45.8918 64.5561 44.426 64.2779 43.0244 63.9355C43.4203 62.5553 43.9124 61.1324 44.4688 59.7094C44.9074 60.5653 45.3675 61.4212 45.8704 62.2772C46.3732 63.1331 46.8868 63.9676 47.411 64.7807ZM55.3176 42.516C56.3126 43.5432 57.3076 44.688 58.2919 45.9397C57.329 45.8969 56.3447 45.8648 55.3497 45.8648C54.344 45.8648 53.349 45.8862 52.3754 45.9397C53.3383 44.688 54.3333 43.5432 55.3176 42.516ZM47.4003 48.8178C46.8761 49.6416 46.3518 50.4868 45.8597 51.3534C45.3675 52.2094 44.9074 53.0653 44.4688 53.9212C43.891 52.4875 43.3989 51.0539 42.9923 49.663C44.3939 49.3313 45.8704 49.0425 47.4003 48.8178ZM37.7177 62.213C33.9302 60.5974 31.4802 58.479 31.4802 56.7993C31.4802 55.1195 33.9302 52.9904 37.7177 51.3855C38.6378 50.9897 39.6435 50.6366 40.6813 50.3049C41.2912 52.402 42.0936 54.5846 43.0886 56.8207C42.1043 59.0461 41.3126 61.218 40.7134 63.3043C39.6542 62.9726 38.6485 62.6088 37.7177 62.213ZM43.4738 77.5019C42.0187 76.6674 41.3875 73.4897 41.8796 69.4027C41.9973 68.397 42.1899 67.3378 42.4253 66.2572C44.5223 66.7707 46.8119 67.1666 49.2192 67.4234C50.6635 69.4027 52.1614 71.2001 53.67 72.7729C50.1821 76.0147 46.9082 77.7908 44.6828 77.7908C44.2013 77.7801 43.7947 77.6838 43.4738 77.5019ZM68.8519 69.3492C69.3547 73.4362 68.7342 76.6139 67.2898 77.4591C66.9688 77.6517 66.5516 77.7373 66.0594 77.7373C63.8447 77.7373 60.5601 75.9719 57.0722 72.7515C58.5701 71.1787 60.068 69.392 61.4909 67.4127C63.9089 67.1559 66.1985 66.7601 68.2955 66.2358C68.5416 67.3164 68.7342 68.3542 68.8519 69.3492ZM72.971 62.213C72.0509 62.6088 71.0452 62.9619 70.0074 63.2936C69.3975 61.1966 68.5951 59.014 67.6001 56.7779C68.5844 54.5525 69.3761 52.3806 69.9753 50.2942C71.0345 50.6259 72.0402 50.9897 72.9817 51.3855C76.7692 53.0011 79.2192 55.1195 79.2192 56.7993C79.2085 58.479 76.7585 60.6081 72.971 62.213Z" fill="#0E0E23"></path> <path d="M55.3382 61.6891C58.0386 61.6891 60.2276 59.5 60.2276 56.7996C60.2276 54.0992 58.0386 51.9102 55.3382 51.9102C52.6378 51.9102 50.4487 54.0992 50.4487 56.7996C50.4487 59.5 52.6378 61.6891 55.3382 61.6891Z" fill="#0E0E23"></path> </svg> 