<?xml version="1.0" encoding="UTF-8"?> <svg xmlns="http://www.w3.org/2000/svg" width="111" height="111" viewBox="0 0 111 111" fill="none"> <rect x="0.97998" y="0.433594" width="110" height="110" fill="#2BDBA8"></rect> <mask id="path-2-inside-1" fill="white"> <path d="M69.8935 48.8759C66.5068 33.9354 59.448 29.958 57.6473 27.1464C56.9048 25.9079 56.2471 24.6204 55.6786 23.293C55.5835 24.6202 55.4087 25.4564 54.2805 26.4629C52.0153 28.4825 42.3949 36.3222 41.5853 53.2979C40.831 69.1254 53.2209 78.8852 54.8579 79.8939C56.1166 80.5133 57.6496 79.9072 58.3972 79.3387C64.3699 75.2396 72.5303 64.3119 69.9001 48.8759"></path> </mask> <path d="M69.8935 48.8759C66.5068 33.9354 59.448 29.958 57.6473 27.1464C56.9048 25.9079 56.2471 24.6204 55.6786 23.293C55.5835 24.6202 55.4087 25.4564 54.2805 26.4629C52.0153 28.4825 42.3949 36.3222 41.5853 53.2979C40.831 69.1254 53.2209 78.8852 54.8579 79.8939C56.1166 80.5133 57.6496 79.9072 58.3972 79.3387C64.3699 75.2396 72.5303 64.3119 69.9001 48.8759" fill="#2BDBA8"></path> <path d="M57.6473 27.1464L55.932 28.1748L55.9472 28.2002L55.9631 28.2251L57.6473 27.1464ZM55.6786 23.293L57.5171 22.5056L53.6837 23.15L55.6786 23.293ZM54.2805 26.4629L55.6115 27.9557L55.612 27.9553L54.2805 26.4629ZM41.5853 53.2979L39.5876 53.2026L39.5876 53.2026L41.5853 53.2979ZM54.8579 79.8939L53.8087 81.5966L53.8896 81.6464L53.9748 81.6884L54.8579 79.8939ZM58.3972 79.3387L57.2655 77.6897L57.2254 77.7172L57.1867 77.7466L58.3972 79.3387ZM71.844 48.4337C70.0882 40.688 67.3569 35.7 64.7749 32.2618C63.4927 30.5545 62.267 29.256 61.2825 28.2371C60.2259 27.1436 59.6441 26.5558 59.3315 26.0678L55.9631 28.2251C56.551 29.1429 57.5267 30.1066 58.4059 31.0165C59.3571 32.001 60.4454 33.1578 61.5764 34.6638C63.8206 37.6523 66.3121 42.1232 67.943 49.318L71.844 48.4337ZM59.3627 26.1181C58.6666 24.957 58.05 23.7501 57.5171 22.5056L53.8401 24.0803C54.4441 25.4908 55.143 26.8588 55.932 28.1748L59.3627 26.1181ZM53.6837 23.15C53.6379 23.7889 53.5832 24.0688 53.5053 24.2673C53.4466 24.4167 53.3321 24.6288 52.9491 24.9705L55.612 27.9553C56.3571 27.2905 56.894 26.5813 57.2286 25.7291C57.5439 24.9261 57.6241 24.1243 57.6735 23.4359L53.6837 23.15ZM52.9495 24.9701C50.5975 27.0672 40.4376 35.3806 39.5876 53.2026L43.583 53.3931C44.3523 37.2638 53.4332 29.8979 55.6115 27.9557L52.9495 24.9701ZM39.5876 53.2026C39.1834 61.6835 42.3067 68.512 45.6909 73.3063C49.0499 78.0649 52.7534 80.9463 53.8087 81.5966L55.9071 78.1912C55.3254 77.8328 52.0155 75.33 48.9588 70.9996C45.9273 66.705 43.2329 60.7398 43.583 53.3931L39.5876 53.2026ZM53.9748 81.6884C55.1383 82.2609 56.3371 82.2239 57.2656 82.0113C58.1886 81.8 59.0173 81.3797 59.6078 80.9307L57.1867 77.7466C57.0295 77.8662 56.7179 78.0332 56.3728 78.1122C56.0332 78.1899 55.8362 78.1463 55.7409 78.0994L53.9748 81.6884ZM59.529 80.9877C66.028 76.5274 74.6551 64.875 71.8717 48.5399L67.9286 49.2118C70.4055 63.7487 62.7118 73.9519 57.2655 77.6897L59.529 80.9877Z" fill="#0E0E23" mask="url(#path-2-inside-1)"></path> <path d="M56.1915 71.4648C55.8796 75.3825 55.6562 77.6587 54.8643 79.8974C54.8643 79.8974 55.3841 83.6269 55.7491 87.5778H57.041C57.3491 84.7956 57.8196 82.0339 58.4501 79.3067C56.7777 78.4838 56.2557 74.9024 56.1915 71.4648Z" fill="#0E0E23"></path> <path d="M58.4499 79.5206C56.7599 78.7397 56.271 75.0831 56.1958 71.6765C56.6137 66.057 56.7356 60.4194 56.5608 54.7871C56.4723 51.8317 56.6028 27.4146 55.833 23.8398C56.3596 25.0506 56.9663 26.2249 57.6491 27.3549C59.4498 30.1687 66.5108 34.146 69.8953 49.0865C72.5321 64.496 64.4159 75.395 58.4499 79.5206Z" fill="#0E0E23"></path> </svg> 