<?xml version="1.0" encoding="UTF-8"?> <svg xmlns="http://www.w3.org/2000/svg" width="48" height="48" viewBox="0 0 48 48" fill="none"> <path d="M39.4763 27.7618C39.4763 38.3869 30.8631 47 20.2382 47C9.61325 47 1 38.3868 1 27.7618C1 17.1369 9.61325 8.52368 20.2382 8.52368C30.8631 8.52368 39.4763 17.1369 39.4763 27.7618Z" stroke="#0E0E23" stroke-width="1.6" stroke-miterlimit="10" stroke-linecap="round" stroke-linejoin="round"></path> <path d="M34.8165 27.8285C34.8165 35.8433 28.2896 42.3404 20.2381 42.3404C12.1866 42.3404 5.65967 35.8433 5.65967 27.8285C5.65967 19.8138 12.1866 13.3167 20.2381 13.3167C28.2896 13.3167 34.8165 19.8138 34.8165 27.8285Z" stroke="#0E0E23" stroke-width="1.6" stroke-miterlimit="10" stroke-linecap="round" stroke-linejoin="round"></path> <path d="M30.0237 27.8284C30.0237 33.2694 25.6126 37.6805 20.1717 37.6805C14.7307 37.6805 10.3196 33.2694 10.3196 27.8284C10.3196 22.3874 14.7307 17.9763 20.1717 17.9763C25.6126 17.9763 30.0237 22.3874 30.0237 27.8284Z" stroke="#0E0E23" stroke-width="1.6" stroke-miterlimit="10" stroke-linecap="round" stroke-linejoin="round"></path> <path d="M25.3638 27.7618C25.3638 30.5927 23.0689 32.8876 20.238 32.8876C17.4071 32.8876 15.1123 30.5927 15.1123 27.7618C15.1123 24.9309 17.4071 22.6361 20.238 22.6361C23.0689 22.6361 25.3638 24.9309 25.3638 27.7618Z" stroke="#0E0E23" stroke-width="1.6" stroke-miterlimit="10" stroke-linecap="round" stroke-linejoin="round"></path> <path d="M20.1716 27.8284L37.8787 10.1213" stroke="#0E0E23" stroke-width="1.6" stroke-miterlimit="10" stroke-linecap="round" stroke-linejoin="round"></path> <path d="M40.7872 7.20564V2L37.4792 5.31507V10.5207H42.6922L46 7.20564H40.7872Z" stroke="#0E0E23" stroke-width="1.6" stroke-miterlimit="10" stroke-linecap="round"></path> </svg> 