<?xml version="1.0" encoding="UTF-8"?> <svg xmlns="http://www.w3.org/2000/svg" width="431" height="216" viewBox="0 0 431 216" fill="none"> <path d="M107.856 107.674L107.753 107.779H107.733V107.676L107.856 107.674Z" fill="#3679FF"></path> <path d="M107.732 107.674V107.779H107.609L107.714 107.676L107.732 107.674Z" fill="#3679FF"></path> <path d="M107.732 107.674V107.779H107.609L107.714 107.676L107.732 107.674Z" fill="#3679FF"></path> <path d="M215.456 107.674V107.694L107.745 215.45H0V215.431L107.602 107.779H107.745L107.848 107.676L215.456 107.674Z" fill="#3679FF"></path> <path d="M215.455 0.00162325V0.0215081L107.855 107.673H107.712L107.609 107.776H0.0078125V107.756L107.719 0L215.455 0.00162325Z" fill="#3679FF"></path> <path d="M107.856 107.674L107.753 107.779H107.733V107.676L107.856 107.674Z" fill="#3679FF"></path> <path d="M322.856 107.674L322.753 107.779H322.733V107.676L322.856 107.674Z" fill="#3679FF"></path> <path d="M322.732 107.674V107.779H322.609L322.714 107.676L322.732 107.674Z" fill="#3679FF"></path> <path d="M322.732 107.674V107.779H322.609L322.714 107.676L322.732 107.674Z" fill="#3679FF"></path> <path d="M430.456 107.674V107.694L322.745 215.45H215V215.431L322.602 107.779H322.745L322.848 107.676L430.456 107.674Z" fill="#3679FF"></path> <path d="M430.455 0.00162325V0.0215081L322.855 107.673H322.712L322.609 107.776H215.008V107.756L322.719 0L430.455 0.00162325Z" fill="#3679FF"></path> <path d="M322.856 107.674L322.753 107.779H322.733V107.676L322.856 107.674Z" fill="#3679FF"></path> </svg> 