<?xml version="1.0" encoding="UTF-8"?> <svg xmlns="http://www.w3.org/2000/svg" width="60" height="60" viewBox="0 0 60 60" fill="none"> <path d="M23.2658 28.8612H38.7681L46.3533 36.4917V0.917969H0.856934V28.8612H10.9605V16.6012L23.2507 28.8461L23.2658 28.8612ZM21.0792 12.9669L25.181 16.6615L33.6409 9.10641L35.1669 10.7775L25.181 19.5681L19.5532 14.5794L21.0792 12.9669Z" fill="#3679FF"></path> <path d="M49.7011 32.2258V44.6819L37.2902 32.271H21.7126L14.2329 24.7461V59.8674H59.7595V32.2258H49.7011ZM57.0149 57.1229H16.887L16.9322 31.2607L19.8276 34.156L20.6419 34.9703H21.7578H36.1743L47.7708 46.5669L52.3552 51.1512V44.6366V34.8799H57.0149V57.1229Z" fill="#3679FF"></path> <path d="M26.5684 45.9492H23.4016V49.116H26.5684V45.9492Z" fill="#3679FF"></path> <path d="M33.8218 45.9492H30.655V49.116H33.8218V45.9492Z" fill="#3679FF"></path> <path d="M41.0602 45.9492H37.8934V49.116H41.0602V45.9492Z" fill="#3679FF"></path> </svg> 