<?xml version="1.0" encoding="UTF-8"?> <svg xmlns="http://www.w3.org/2000/svg" width="111" height="111" viewBox="0 0 111 111" fill="none"> <rect x="0.749023" y="0.421875" width="110" height="110" fill="#2BDBA8"></rect> <rect x="28.5474" y="30.2188" width="53.1476" height="53.1476" fill="#0E0E23"></rect> <path d="M36.9598 55.0992V55.1945H37.0552H38.2479H38.3433V55.0992V50.3787H43.5132V55.0992V55.1945H43.6085H44.8013H44.8966V55.0992V44.75V44.6547H44.8013H43.6085H43.5132V44.75V49.2083H38.3433V44.75V44.6547H38.2479H37.0552H36.9598V44.75V55.0992ZM49.747 55.0992V55.1945H49.8423H51.0214H51.1167V55.0992V45.8251H54.4488H54.5442V45.7297V44.75V44.6547H54.4488H46.4011H46.3058V44.75V45.7297V45.8251H46.4011H49.747V55.0992ZM60.3843 52.509L60.4114 52.5589H60.4681H61.277H61.3339L61.3609 52.5089L64.5132 46.6726V55.0992V55.1945H64.6085H65.7876H65.8829V55.0992V44.75V44.6547H65.7876H64.3617H64.3051L64.278 44.7044L60.9608 50.8029L57.5764 44.7037L57.5492 44.6547H57.4931H56.0535H55.9582V44.75V55.0992V55.1945H56.0535H57.1366H57.232V55.0992V46.6987L60.3843 52.509ZM68.4096 55.0992V55.1945H68.5049H74.2494H74.3447V55.0992V54.1194V54.0241H74.2494H69.793V44.75V44.6547H69.6977H68.5049H68.4096V44.75V55.0992ZM50.8014 69.0589L50.8116 69.0387V69.016V68.2433V68.1479H50.7163H49.8526H49.7878L49.764 68.2081L49.764 68.2081L49.7639 68.2082L49.7638 68.2085L49.7627 68.2111L49.7576 68.2229C49.7529 68.2336 49.7454 68.2498 49.735 68.2708C49.7142 68.3127 49.6815 68.3734 49.6351 68.4467C49.5423 68.5934 49.3947 68.7899 49.1769 68.9867C48.7428 69.3787 48.0249 69.7762 46.8913 69.7762C45.733 69.7762 44.7965 69.3122 44.1482 68.5506C43.4986 67.7876 43.1341 66.7206 43.1341 65.5111C43.1341 64.3284 43.4785 63.2789 44.1174 62.5267C44.7548 61.7763 45.6908 61.315 46.8913 61.315C48.0398 61.315 48.74 61.6994 49.1525 62.0765C49.3596 62.2659 49.4958 62.4549 49.5799 62.5958C49.6219 62.6662 49.6509 62.7245 49.6691 62.7646C49.6782 62.7847 49.6847 62.8001 49.6887 62.8103L49.6931 62.8215L49.6939 62.8239L49.694 62.8241L49.6941 62.8242L49.6941 62.8243L49.6941 62.8243L49.7163 62.888H49.784H50.6478H50.7431V62.7927V62.02V61.999L50.7343 61.98L50.6478 62.02C50.7343 61.98 50.7343 61.9799 50.7342 61.9798L50.7342 61.9797L50.7339 61.9792L50.7333 61.9778L50.731 61.973L50.7225 61.9562C50.715 61.9418 50.704 61.9213 50.6891 61.8956C50.6592 61.8441 50.6136 61.7717 50.5496 61.6852C50.4217 61.5122 50.2204 61.2831 49.9246 61.0545C49.3318 60.5964 48.3652 60.1446 46.8638 60.1446C45.3036 60.1446 44.0265 60.7201 43.14 61.6829C42.2544 62.6447 41.7644 63.9867 41.7644 65.5111C41.7644 67.0192 42.2049 68.3816 43.0663 69.3685C43.9293 70.357 45.2074 70.9604 46.8638 70.9604C48.3458 70.9604 49.3293 70.4906 49.9434 70.016C50.2499 69.7791 50.4634 69.5418 50.6006 69.363C50.6693 69.2735 50.7189 69.1986 50.7517 69.1455C50.7681 69.119 50.7802 69.0979 50.7884 69.0832L50.7978 69.0659L50.8003 69.0611L50.8011 69.0597L50.8013 69.0592L50.8014 69.0591C50.8014 69.059 50.8014 69.0589 50.7163 69.016L50.8014 69.0589ZM55.2464 64.6887L55.2451 64.6884C54.645 64.5099 54.1747 64.3076 53.8548 64.0283C53.5403 63.7537 53.3665 63.4007 53.3665 62.9031C53.3665 62.4797 53.5278 62.0851 53.8476 61.7957C54.1675 61.506 54.6537 61.315 55.3139 61.315C56.0081 61.315 56.4778 61.5093 56.7949 61.7896C57.1132 62.0709 57.2873 62.4474 57.3734 62.8276L57.3902 62.9018H57.4664H58.3164H58.4117V62.8065V62.0338V62.0209L58.4083 62.0085C58.2585 61.4628 57.9365 60.9945 57.4312 60.6638C56.927 60.3338 56.246 60.1446 55.3825 60.1446C54.3571 60.1446 53.521 60.4361 52.9396 60.9407C52.3572 61.4462 52.0379 62.1595 52.0379 62.9859C52.0379 63.7297 52.2463 64.3475 52.7057 64.8477C53.1627 65.3452 53.86 65.7175 54.8216 65.9891C54.8217 65.9892 54.8218 65.9892 54.8219 65.9892L55.4381 66.1684L55.4388 66.1686C56.2149 66.3879 56.7104 66.6376 57.012 66.9363C57.3089 67.2303 57.4259 67.5797 57.4259 68.0225C57.4259 68.589 57.2078 69.0273 56.8485 69.3256C56.4873 69.6256 55.9758 69.79 55.3825 69.79C54.7201 69.79 54.1949 69.6252 53.7936 69.3449C53.3922 69.0646 53.1085 68.6645 52.9359 68.1835L52.9132 68.1203H52.8462H51.9824H51.8871V68.2157V68.9884V69.0079L51.8947 69.0258C52.3226 70.0307 53.4704 70.9604 55.3551 70.9604C56.3456 70.9604 57.1983 70.6831 57.8053 70.174C58.4139 69.6635 58.7682 68.9257 58.7682 68.0225C58.7682 67.2018 58.5284 66.5566 58.0607 66.0517C57.5956 65.5496 56.9127 65.1947 56.0409 64.9369C56.0407 64.9369 56.0404 64.9368 56.0402 64.9367L55.2464 64.6887ZM63.3331 64.6887L63.3318 64.6884C62.7317 64.5099 62.2614 64.3076 61.9415 64.0283C61.6269 63.7537 61.4532 63.4007 61.4532 62.9031C61.4532 62.4797 61.6145 62.0851 61.9342 61.7957C62.2542 61.506 62.7404 61.315 63.4006 61.315C64.0948 61.315 64.5645 61.5093 64.8816 61.7896C65.1999 62.0709 65.374 62.4474 65.4601 62.8276L65.4769 62.9018H65.5531H66.4031H66.4984V62.8065V62.0338V62.0209L66.495 62.0085C66.3452 61.4628 66.0232 60.9945 65.5179 60.6638C65.0137 60.3338 64.3327 60.1446 63.4692 60.1446C62.4438 60.1446 61.6077 60.4361 61.0263 60.9407C60.4439 61.4462 60.1246 62.1595 60.1246 62.9859C60.1246 63.7297 60.333 64.3475 60.7924 64.8477C61.2494 65.3452 61.9468 65.7176 62.9084 65.9892C62.9085 65.9892 62.9085 65.9892 62.9086 65.9892L63.5248 66.1684L63.5255 66.1686C64.3016 66.3879 64.7971 66.6376 65.0987 66.9363C65.3956 67.2303 65.5126 67.5797 65.5126 68.0225C65.5126 68.589 65.2945 69.0273 64.9352 69.3256C64.574 69.6256 64.0625 69.79 63.4692 69.79C62.8067 69.79 62.2816 69.6252 61.8803 69.3449C61.4789 69.0646 61.1952 68.6645 61.0226 68.1835L60.9999 68.1203H60.9329H60.0691H59.9738V68.2157V68.9884V69.0079L59.9814 69.0258C60.4093 70.0307 61.557 70.9604 63.4418 70.9604C64.4323 70.9604 65.285 70.6831 65.892 70.174C66.5006 69.6635 66.8549 68.9257 66.8549 68.0225C66.8549 67.2018 66.6151 66.5566 66.1474 66.0517C65.6823 65.5496 64.9994 65.1947 64.1276 64.9369C64.1274 64.9369 64.1271 64.9368 64.1269 64.9367L63.3331 64.6887Z" fill="#2BDBA8" stroke="#2BDBA8" stroke-width="0.190665"></path> </svg> 