<?xml version="1.0" encoding="UTF-8"?> <svg xmlns="http://www.w3.org/2000/svg" width="35" height="24" viewBox="0 0 35 24" fill="none"> <rect y="0.260742" width="35" height="22.8261" rx="6" fill="white"></rect> <path d="M5.32617 7.51606H5.48572C5.92448 7.51606 7.42026 7.47656 7.95874 7.47656C11.3093 7.47656 12.6655 9.39226 12.6655 11.5844C12.6655 13.9149 11.07 15.8306 7.85902 15.8306C7.42026 15.8306 6.32336 15.8108 5.50567 15.8108H5.32617V7.51606ZM7.24077 9.29351V14.0334C7.50004 14.0531 7.65959 14.0531 7.9388 14.0531C9.59412 14.0531 10.6511 13.1644 10.6511 11.5844C10.6511 10.0637 9.51435 9.25401 7.95874 9.25401C7.73936 9.25401 7.48009 9.25401 7.24077 9.29351Z" fill="#0E0E23"></path> <path d="M17.5514 7.37793C20.1042 7.37793 21.9989 9.01713 21.9989 11.6636C21.9989 14.1717 20.1042 15.9492 17.5514 15.9492C14.9987 15.9492 13.104 14.31 13.104 11.6636C13.104 9.25413 14.8989 7.37793 17.5514 7.37793ZM17.5514 14.1717C19.1469 14.1717 19.9646 13.0658 19.9646 11.6636C19.9846 10.1429 18.9076 9.15538 17.5514 9.15538C16.1554 9.15538 15.1383 10.1429 15.1383 11.6636C15.1383 13.0855 16.2152 14.1717 17.5514 14.1717Z" fill="#0E0E23"></path> <path d="M29.558 12.3947C29.558 14.9226 27.9227 15.9694 26.1277 15.9694C23.9738 15.9694 22.478 14.7449 22.478 12.3157V7.5166H24.3926V11.901C24.3926 13.1847 24.7915 14.1722 26.1277 14.1722C27.2845 14.1722 27.6434 13.3229 27.6434 11.9997V7.5166H29.558V12.3947Z" fill="#0E0E23"></path> </svg> 