<?xml version="1.0" encoding="UTF-8"?> <svg xmlns="http://www.w3.org/2000/svg" width="111" height="111" viewBox="0 0 111 111" fill="none"> <rect x="0.147461" y="0.433594" width="110" height="110" fill="white"></rect> <g clip-path="url(#clip0)"> <path d="M81.8576 29.4688H27.1807V84.1457H81.8576V29.4688Z" fill="#0E0E23"></path> <path d="M63.9091 72.1819C65.0105 73.9801 66.4434 75.3019 68.9776 75.3019C71.1065 75.3019 72.4665 74.2379 72.4665 72.7677C72.4665 71.0059 71.0692 70.3819 68.7259 69.3569L67.4414 68.8058C63.7338 67.2262 61.2708 65.2474 61.2708 61.0642C61.2708 57.2108 64.2068 54.2773 68.7954 54.2773C72.0621 54.2773 74.4106 55.4143 76.103 58.3911L72.102 60.9601C71.2211 59.3805 70.2708 58.7582 68.7954 58.7582C67.2904 58.7582 66.3366 59.7129 66.3366 60.9601C66.3366 62.5014 67.2913 63.1255 69.4957 64.0801L70.7802 64.6304C75.1457 66.5024 77.6105 68.4109 77.6105 72.7017C77.6105 77.3276 73.9766 79.8618 69.0965 79.8618C64.3249 79.8618 61.2421 77.5879 59.7337 74.6076L63.9091 72.1819ZM45.759 72.6271C46.5661 74.0591 47.3004 75.2698 49.0657 75.2698C50.7537 75.2698 51.8186 74.6093 51.8186 72.0413V54.5707H56.9565V72.1107C56.9565 77.4308 53.8373 79.8523 49.2844 79.8523C45.1706 79.8523 42.7882 77.7233 41.5767 75.1592L45.759 72.6271Z" fill="white"></path> </g> <defs> <clipPath id="clip0"> <rect width="54.6769" height="54.6769" fill="white" transform="translate(27.1812 29.4688)"></rect> </clipPath> </defs> </svg> 