<?xml version="1.0" encoding="UTF-8"?> <svg xmlns="http://www.w3.org/2000/svg" width="111" height="111" viewBox="0 0 111 111" fill="none"> <rect x="0.633301" y="0.464844" width="110" height="110" fill="white"></rect> <mask id="path-2-inside-1" fill="white"> <path d="M69.5468 48.9071C66.1601 33.9666 59.1013 29.9893 57.3007 27.1777C56.5582 25.9391 55.9004 24.6517 55.3319 23.3242C55.2368 24.6515 55.062 25.4876 53.9338 26.4942C51.6687 28.5138 42.0482 36.3535 41.2386 53.3291C40.4843 69.1567 52.8743 78.9164 54.5112 79.9252C55.7699 80.5445 57.3029 79.9384 58.0506 79.3699C64.0232 75.2709 72.1837 64.3431 69.5535 48.9071"></path> </mask> <path d="M69.5468 48.9071C66.1601 33.9666 59.1013 29.9893 57.3007 27.1777C56.5582 25.9391 55.9004 24.6517 55.3319 23.3242C55.2368 24.6515 55.062 25.4876 53.9338 26.4942C51.6687 28.5138 42.0482 36.3535 41.2386 53.3291C40.4843 69.1567 52.8743 78.9164 54.5112 79.9252C55.7699 80.5445 57.3029 79.9384 58.0506 79.3699C64.0232 75.2709 72.1837 64.3431 69.5535 48.9071" fill="white"></path> <path d="M57.3007 27.1777L55.5853 28.206L55.6005 28.2314L55.6165 28.2563L57.3007 27.1777ZM55.3319 23.3242L57.1704 22.5369L53.337 23.1813L55.3319 23.3242ZM53.9338 26.4942L55.2648 27.987L55.2653 27.9865L53.9338 26.4942ZM41.2386 53.3291L39.2409 53.2338L39.2409 53.2339L41.2386 53.3291ZM54.5112 79.9252L53.462 81.6278L53.5429 81.6777L53.6282 81.7196L54.5112 79.9252ZM58.0506 79.3699L56.9189 77.7209L56.8788 77.7484L56.84 77.7779L58.0506 79.3699ZM71.4973 48.465C69.7415 40.7192 67.0102 35.7313 64.4282 32.2931C63.1461 30.5857 61.9204 29.2873 60.9358 28.2683C59.8792 27.1748 59.2974 26.587 58.9849 26.0991L55.6165 28.2563C56.2043 29.1742 57.18 30.1379 58.0592 31.0478C59.0105 32.0322 60.0988 33.1891 61.2297 34.695C63.474 37.6835 65.9654 42.1545 67.5963 49.3493L71.4973 48.465ZM59.016 26.1493C58.32 24.9882 57.7033 23.7813 57.1704 22.5369L53.4934 24.1116C54.0975 25.5221 54.7963 26.89 55.5853 28.206L59.016 26.1493ZM53.337 23.1813C53.2912 23.8202 53.2365 24.1001 53.1586 24.2986C53.1 24.4479 52.9854 24.6601 52.6024 25.0018L55.2653 27.9865C56.0105 27.3217 56.5474 26.6126 56.8819 25.7604C57.1972 24.9574 57.2774 24.1555 57.3268 23.4672L53.337 23.1813ZM52.6029 25.0013C50.2508 27.0985 40.0909 35.4118 39.2409 53.2338L43.2364 53.4244C44.0056 37.2951 53.0865 29.9291 55.2648 27.987L52.6029 25.0013ZM39.2409 53.2339C38.8367 61.7147 41.9601 68.5432 45.3442 73.3375C48.7032 78.0961 52.4067 80.9776 53.462 81.6278L55.5604 78.2225C54.9788 77.864 51.6688 75.3612 48.6121 71.0308C45.5807 66.7362 42.8862 60.7711 43.2364 53.4243L39.2409 53.2339ZM53.6282 81.7196C54.7916 82.2922 55.9904 82.2551 56.9189 82.0425C57.8419 81.8312 58.6706 81.4109 59.2611 80.962L56.84 77.7779C56.6828 77.8974 56.3712 78.0644 56.0261 78.1434C55.6865 78.2212 55.4895 78.1775 55.3943 78.1307L53.6282 81.7196ZM59.1823 81.0189C65.6814 76.5586 74.3084 64.9063 71.5251 48.5712L67.5819 49.2431C70.0589 63.78 62.3651 73.9832 56.9189 77.7209L59.1823 81.0189Z" fill="#0E0E23" mask="url(#path-2-inside-1)"></path> <path d="M55.8448 71.4961C55.5329 75.4137 55.3095 77.69 54.5176 79.9286C54.5176 79.9286 55.0374 83.6582 55.4024 87.609H56.6943C57.0024 84.8269 57.4729 82.0652 58.1034 79.338C56.431 78.5151 55.909 74.9337 55.8448 71.4961Z" fill="#0E0E23"></path> <path d="M58.1032 79.5518C56.4132 78.7709 55.9243 75.1143 55.8491 71.7077C56.2671 66.0882 56.3889 60.4506 56.2141 54.8183C56.1256 51.863 56.2561 27.4458 55.4863 23.8711C56.0129 25.0818 56.6196 26.2561 57.3025 27.3861C59.1031 30.1999 66.1641 34.1773 69.5486 49.1178C72.1855 64.5272 64.0693 75.4262 58.1032 79.5518Z" fill="#0E0E23"></path> </svg> 