<?xml version="1.0" encoding="UTF-8"?> <svg xmlns="http://www.w3.org/2000/svg" width="386" height="193" viewBox="0 0 386 193" fill="none"> <path d="M96.7952 96.7383L96.7003 96.8346H96.6816V96.7398L96.7952 96.7383Z" fill="#773EE8"></path> <path d="M96.6854 96.7383V96.8346H96.5723L96.6686 96.7398L96.6854 96.7383Z" fill="#773EE8"></path> <path d="M96.6854 96.7383V96.8346H96.5723L96.6686 96.7398L96.6854 96.7383Z" fill="#773EE8"></path> <path d="M192.861 96.7383V96.756L96.6916 192.966H0.492188V192.948L96.564 96.8318H96.6916L96.7836 96.7397L192.861 96.7383Z" fill="#773EE8"></path> <path d="M192.863 0.599106V0.61686L96.793 96.7331H96.6655L96.5734 96.8251H0.501953V96.8072L96.6712 0.597656L192.863 0.599106Z" fill="#773EE8"></path> <path d="M96.7952 96.7383L96.7003 96.8346H96.6816V96.7398L96.7952 96.7383Z" fill="#773EE8"></path> <path d="M289.164 96.7383L289.069 96.8346H289.051V96.7398L289.164 96.7383Z" fill="#773EE8"></path> <path d="M289.055 96.7383V96.8346H288.941L289.038 96.7398L289.055 96.7383Z" fill="#773EE8"></path> <path d="M289.055 96.7383V96.8346H288.941L289.038 96.7398L289.055 96.7383Z" fill="#773EE8"></path> <path d="M385.23 96.7383V96.756L289.061 192.966H192.861V192.948L288.933 96.8318H289.061L289.153 96.7397L385.23 96.7383Z" fill="#773EE8"></path> <path d="M385.233 0.599106V0.61686L289.162 96.7331H289.035L288.943 96.8251H192.871V96.8072L289.04 0.597656L385.233 0.599106Z" fill="#773EE8"></path> <path d="M289.164 96.7383L289.069 96.8346H289.051V96.7398L289.164 96.7383Z" fill="#773EE8"></path> </svg> 