<?xml version="1.0" encoding="UTF-8"?> <svg xmlns="http://www.w3.org/2000/svg" width="55" height="60" viewBox="0 0 55 60" fill="none"> <path d="M34.7443 40.9197C34.4192 41.5079 34.0942 42.127 33.7691 42.7771C32.8249 44.681 32.02 46.9409 32.02 49.9747V57.1104H18.0738V51.5071H8.19836V40.5327H4.63826L6.86719 36.0284L8.05905 33.6447C8.15192 33.4744 8.19836 33.2732 8.19836 33.0565V28.4284C8.19836 27.0663 8.36862 25.7815 8.69368 24.5897L8.78655 24.2491H8.70916C9.85458 20.4104 12.486 17.2063 15.9532 15.3334V12.1758C9.63788 14.931 5.24193 21.2153 5.24193 28.5213C5.24193 29.7131 5.36576 30.874 5.58246 32.004V32.7624L1.34131 41.3066L1.1246 41.7555C1.06269 41.8639 1.00078 41.9722 0.95434 42.0961C0.83051 42.2973 0.706681 42.5449 0.551894 42.8545L0.36615 43.226H5.53603V54.2004H15.4114V59.8037H34.6824V50.0057C34.6824 46.6623 35.8588 44.5107 37.1125 42.2199C37.6852 41.1364 38.3044 39.991 38.8461 38.6908H35.9207C35.5492 39.4492 35.1467 40.1922 34.7443 40.9197Z" fill="#3679FF"></path> <path d="M40.8894 29.6523H32.6392V32.9493H40.8894V29.6523Z" fill="#3679FF"></path> <path d="M36.772 9.40625C30.2709 9.40625 26.3393 16.6193 29.7911 22.0678C30.5031 23.2132 31.4937 24.1419 32.6546 24.8075V27.6866H35.6111L35.7039 19.9008L32.7785 17.4706L34.2954 16.0311L36.7874 18.0433L39.3105 16.0621L40.7345 17.5016L37.9638 19.9008L37.9793 27.6866H40.9203V24.8075C42.0812 24.1419 43.0563 23.1977 43.7838 22.0678C47.2046 16.6193 43.273 9.40625 36.772 9.40625Z" fill="#3679FF"></path> <path d="M54.0308 16.3242H48.5358V19.1413H54.0308V16.3242Z" fill="#3679FF"></path> <path d="M48.9223 4.73954L45.0369 8.625L47.0289 10.617L50.9143 6.73152L48.9223 4.73954Z" fill="#3679FF"></path> <path d="M24.6926 4.72677L22.7006 6.71875L26.5861 10.6042L28.5781 8.61223L24.6926 4.72677Z" fill="#3679FF"></path> <path d="M47.0346 25.3244L45.0427 27.3164L48.9281 31.2019L50.9201 29.2099L47.0346 25.3244Z" fill="#3679FF"></path> <path d="M26.5812 25.3255L22.6957 29.2109L24.6877 31.2029L28.5732 27.3175L26.5812 25.3255Z" fill="#3679FF"></path> <path d="M25.0237 16.3242H19.5287V19.1413H25.0237V16.3242Z" fill="#3679FF"></path> <path d="M38.196 0.289062H35.3789V5.78399H38.196V0.289062Z" fill="#3679FF"></path> </svg> 