<?xml version="1.0" encoding="UTF-8"?> <svg xmlns="http://www.w3.org/2000/svg" width="111" height="111" viewBox="0 0 111 111" fill="none"> <rect x="0.147461" y="0.421875" width="110" height="110" fill="white"></rect> <path d="M83.2907 54.0523L57.1809 27.1654C55.6787 25.6168 53.2401 25.6168 51.7359 27.1654L46.3145 32.7494L53.1914 39.8318C54.7901 39.2759 56.6225 39.6486 57.8963 40.9607C59.1767 42.281 59.536 44.1843 58.9827 45.8363L65.6107 52.6625C67.2143 52.0934 69.0644 52.4611 70.3448 53.7821C72.1349 55.6252 72.1349 58.6117 70.3448 60.4553C68.5544 62.2995 65.6546 62.2995 63.8632 60.4553C62.5171 59.068 62.1842 57.0311 62.866 55.3231L56.6846 48.9569L56.684 65.7095C57.1205 65.932 57.5323 66.2289 57.896 66.6019C59.6856 68.4448 59.6856 71.4308 57.896 73.2767C56.1059 75.1196 53.2047 75.1196 51.4165 73.2767C49.6266 71.4309 49.6266 68.4449 51.4165 66.6019C51.8588 66.1471 52.3706 65.8029 52.9168 65.5722V48.664C52.3704 48.4343 51.8592 48.0926 51.4162 47.6342C50.0604 46.2391 49.7339 44.1898 50.4292 42.4752L43.65 35.4922L25.7487 53.928C24.2446 55.4778 24.2446 57.9893 25.7487 59.538L51.8569 86.425C53.36 87.9735 55.7977 87.9735 57.3029 86.425L83.2904 59.665C84.794 58.1157 84.794 55.6035 83.2904 54.0545" fill="#0E0E23"></path> </svg> 