<?xml version="1.0" encoding="UTF-8"?> <svg xmlns="http://www.w3.org/2000/svg" width="63" height="55" viewBox="0 0 63 55" fill="none"> <path d="M0.57251 0.460938V45.3366H52.3792L62.2912 54.5291V0.460938H0.57251ZM43.3777 12.0176L38.7814 34.1324C38.6787 34.661 38.0619 34.896 37.6361 34.5729L31.3658 30.0207C30.984 29.7417 30.47 29.7564 30.1029 30.0501L26.6227 32.8842C26.2262 33.2073 25.6095 33.031 25.4626 32.5318L23.0397 24.7637L16.7988 22.4289C16.1674 22.1939 16.1674 21.2835 16.7841 21.0485L42.4085 11.1806C42.9371 10.975 43.4952 11.4449 43.3777 12.0176Z" fill="#3679FF"></path> <path d="M37.269 16.0293L25.0662 23.5331C24.5963 23.8121 24.376 24.3701 24.5376 24.9134L25.8592 29.539C25.9473 29.8621 26.4319 29.8327 26.4759 29.495L26.8137 26.9546C26.8724 26.4847 27.1073 26.0295 27.4598 25.7064L37.5333 16.3524C37.7095 16.1909 37.4892 15.8972 37.269 16.0293Z" fill="#3679FF"></path> </svg> 