<?xml version="1.0" encoding="UTF-8"?> <svg xmlns="http://www.w3.org/2000/svg" width="194" height="78" viewBox="0 0 194 78" fill="none"> <path d="M77.4608 25.6268C75.415 25.6268 73.8409 25.0755 72.7385 23.9729C71.6362 22.8704 71.0849 21.3191 71.0847 19.3189V11.5451H68.3911V8.10128H71.187L71.426 3.80566H75.2115V8.10128H81.9623V11.5451H75.2107V19.0463C75.2107 21.1151 76.0175 22.1493 77.6312 22.1489C78.0958 22.172 78.5556 22.0466 78.9441 21.7908C79.2052 21.629 79.4174 21.3992 79.5578 21.126C79.6247 20.975 79.6651 20.8135 79.677 20.6487H82.5411V22.9333C81.609 24.7294 79.9155 25.6272 77.4608 25.6268Z" fill="black"></path> <path d="M89.531 25.2179H85.4048V8.10152H89.1903L89.429 10.3518C90.4288 8.57883 92.0199 7.69238 94.2025 7.69238C95.4299 7.69238 96.4074 7.98219 97.1348 8.56191C97.8441 9.11168 98.3192 9.90946 98.4645 10.7951V13.1137H95.4995L95.4654 13.0114C95.4393 12.9121 95.4051 12.8151 95.3631 12.7215C95.3067 12.599 95.244 12.4795 95.1752 12.3636C95.0852 12.2139 94.9764 12.0764 94.8514 11.9544C94.7069 11.8116 94.5467 11.6854 94.374 11.5785C94.1622 11.4527 93.9322 11.3608 93.6921 11.3058C93.4021 11.2356 93.1045 11.2012 92.8061 11.2034C91.7374 11.2034 90.9248 11.5899 90.3684 12.3628C89.8119 13.1356 89.5333 14.1584 89.5326 15.4314L89.531 25.2179Z" fill="black"></path> <path d="M105.82 25.6275C103.911 25.6275 102.48 25.1047 101.525 24.0591C100.581 23.041 100.067 21.6967 100.093 20.3084C100.069 19.585 100.217 18.8664 100.525 18.2115C100.833 17.5565 101.292 16.9841 101.865 16.541C103.046 15.5977 104.83 15.126 107.218 15.1258C107.804 15.1269 108.391 15.161 108.974 15.2281C109.576 15.2963 110.036 15.3644 110.355 15.4326L110.798 15.535V14.6143C110.798 12.3187 109.696 11.1707 107.491 11.1705C107.153 11.1679 106.815 11.2023 106.485 11.2729C106.21 11.3309 105.941 11.4165 105.683 11.5287C105.462 11.6275 105.251 11.7474 105.053 11.8866C104.879 12.0055 104.719 12.1428 104.575 12.2958C104.45 12.4322 104.348 12.5515 104.268 12.6537C104.189 12.7559 104.126 12.8411 104.08 12.9095L104.012 13.0118H101.081V10.7614C101.143 10.6438 101.211 10.5299 101.286 10.4204C101.808 9.75788 102.443 9.19245 103.161 8.74979C103.746 8.42473 104.37 8.17829 105.019 8.01686C105.859 7.79374 106.725 7.68474 107.594 7.6928C110.003 7.6928 111.833 8.28952 113.083 9.48299C114.334 10.6765 114.959 12.4209 114.958 14.7166V25.2183H111.412L111.036 22.8656C110.481 23.739 109.709 24.4529 108.794 24.9371C107.88 25.4214 106.855 25.6593 105.82 25.6275V25.6275ZM106.844 22.3542C108.048 22.3542 109.008 22.0132 109.725 21.3313C110.441 20.6494 110.799 19.8993 110.799 19.081V18.2626C109.675 17.9689 108.516 17.8312 107.355 17.8535C105.241 17.8535 104.184 18.6037 104.184 20.1039C104.184 21.6041 105.07 22.3542 106.844 22.3542V22.3542Z" fill="black"></path> <path d="M123.286 4.5557H118.887V0.361816H123.286V4.5557ZM123.15 25.2181H119.024V8.10173H123.149L123.15 25.2181Z" fill="black"></path> <path d="M132.049 25.2179H127.923V8.10152H131.708L131.947 10.3859C133.152 8.59036 134.891 7.69256 137.164 7.69238C139.346 7.69238 140.949 8.34562 141.972 9.6522C142.995 10.9588 143.506 12.6808 143.506 14.818V25.2174H139.345V15.3294C139.345 12.6248 138.209 11.2723 135.936 11.272C134.594 11.272 133.611 11.6697 132.986 12.4653C132.354 13.2837 132.022 14.2953 132.049 15.3294V25.2179Z" fill="black"></path> <path d="M152.371 4.5557H147.972V0.361816H152.371V4.5557ZM152.234 25.2181H148.109V8.10173H152.234V25.2181Z" fill="black"></path> <path d="M161.132 25.2179H157.007V8.10152H160.793L161.032 10.3859C162.236 8.59036 163.975 7.69256 166.248 7.69238C168.43 7.69238 170.033 8.34562 171.056 9.6522C172.079 10.9588 172.591 12.6808 172.59 14.818V25.2174H168.429V15.3294C168.429 12.6248 167.292 11.2723 165.019 11.272C163.677 11.272 162.694 11.6697 162.07 12.4653C161.437 13.2837 161.106 14.2953 161.132 15.3294L161.132 25.2179Z" fill="black"></path> <path d="M184.727 34.0833C183.683 34.0931 182.643 33.9496 181.641 33.6573C180.85 33.4444 180.1 33.0984 179.425 32.6341C178.937 32.276 178.475 31.883 178.044 31.458C177.734 31.17 177.47 30.8366 177.26 30.4691L177.055 30.0259V27.7755H180.089C180.124 27.8741 180.164 27.9709 180.208 28.0654C180.334 28.2905 180.482 28.5019 180.652 28.6961C180.89 28.9911 181.165 29.2546 181.47 29.4803C181.873 29.755 182.316 29.9677 182.782 30.1113C183.388 30.3099 184.021 30.4078 184.658 30.401C186.341 30.401 187.625 29.8667 188.511 28.7984C189.397 27.73 189.84 26.2526 189.84 24.3659V22.627C188.522 24.5364 186.59 25.4911 184.044 25.4911C181.68 25.4911 179.782 24.6387 178.35 22.9339C176.918 21.229 176.202 19.126 176.202 16.6247C176.202 14.101 176.924 11.9757 178.367 10.2486C179.81 8.52163 181.714 7.65776 184.078 7.65723C186.602 7.65723 188.534 8.64611 189.875 10.6237L190.182 8.09992H194V24.2958C194 27.2963 193.171 29.6716 191.511 31.4219C189.829 33.1962 187.568 34.0833 184.727 34.0833ZM185.103 21.945C186.558 21.945 187.705 21.4222 188.547 20.3765C189.386 19.3001 189.842 17.9741 189.842 16.609C189.842 15.2438 189.386 13.9177 188.547 12.8412C187.705 11.796 186.558 11.2732 185.103 11.2729C183.512 11.2729 182.33 11.7956 181.557 12.8412C180.736 13.917 180.304 15.239 180.33 16.5919C180.33 18.138 180.744 19.4164 181.574 20.4275C182.404 21.4386 183.58 21.9445 185.102 21.945H185.103Z" fill="black"></path> <path d="M77.7239 53.0103C74.9049 53.0103 72.734 52.1636 71.2112 50.4702C69.6884 48.7769 68.9269 46.6345 68.9268 44.043C68.9268 41.4747 69.7224 39.3324 71.3138 37.6159C72.9051 35.8995 75.0418 35.0414 77.7239 35.0415C78.6735 35.032 79.6199 35.1524 80.5367 35.3997C81.2416 35.5718 81.9109 35.8659 82.5143 36.269C82.9405 36.575 83.3345 36.9234 83.6905 37.3088C83.9491 37.577 84.1673 37.8813 84.3383 38.2124L84.4747 38.5534V40.8038H81.5757L81.5416 40.6673C81.4999 40.5606 81.4486 40.458 81.3883 40.3606C81.2981 40.2102 81.1955 40.0674 81.0815 39.9341C80.9303 39.7615 80.765 39.6019 80.5872 39.4568C80.3778 39.2833 80.1489 39.1347 79.9053 39.0139C79.6013 38.8714 79.2804 38.7682 78.9503 38.7067C78.5463 38.6257 78.1351 38.5858 77.7231 38.5876C76.2227 38.5876 75.0748 39.099 74.2794 40.1219C73.484 41.1448 73.0861 42.4514 73.0857 44.0416C73.0857 45.6332 73.4836 46.9345 74.2794 47.9456C75.0751 48.9566 76.223 49.4624 77.7231 49.4629C78.0652 49.4644 78.4069 49.4417 78.7457 49.3948C79.031 49.3579 79.3112 49.2892 79.5812 49.1901C79.8055 49.1064 80.0222 49.0037 80.229 48.8833C80.4028 48.7831 80.5682 48.6691 80.7236 48.5423C80.8599 48.4285 80.9856 48.3027 81.0994 48.1664C81.1953 48.055 81.2809 47.9351 81.3553 47.8083C81.4117 47.7061 81.4628 47.6095 81.5086 47.5186L81.6109 47.3141V47.2459H84.5104V49.4962C84.4645 49.5873 84.403 49.7126 84.3225 49.8721C83.8496 50.6304 83.2287 51.2857 82.4969 51.7987C81.8885 52.1726 81.228 52.4541 80.537 52.6339C79.622 52.8929 78.6748 53.0196 77.7239 53.0103V53.0103Z" fill="black"></path> <path d="M96.3054 53.0118C93.3954 53.0118 91.1621 52.1878 89.6053 50.5397C88.0485 48.8916 87.2699 46.7266 87.2695 44.0445C87.2695 41.4762 88.0424 39.3395 89.5881 37.6344C91.1338 35.9292 93.2591 35.0768 95.9641 35.0771C98.6458 35.0771 100.658 35.7874 101.999 37.208C103.341 38.6286 104.012 40.4982 104.011 42.8169L103.84 44.8287H91.4293C91.5428 46.3065 92.0201 47.4658 92.8613 48.3065C93.7026 49.1472 94.8619 49.5679 96.3395 49.5684C96.7904 49.5704 97.2407 49.5361 97.6861 49.466C98.0507 49.4114 98.41 49.3258 98.76 49.2101C99.0331 49.1182 99.2959 48.9983 99.5442 48.8523C99.7419 48.7383 99.9251 48.601 100.09 48.4431C100.226 48.3067 100.34 48.1874 100.431 48.0852C100.504 48.0043 100.573 47.9189 100.636 47.8295L100.669 47.7271H103.67V49.9776C103.606 50.0973 103.532 50.2114 103.448 50.3185C103.219 50.5784 102.969 50.818 102.698 51.0345C102.279 51.3903 101.821 51.6989 101.334 51.9551C100.662 52.285 99.9525 52.5311 99.2205 52.688C98.2649 52.9104 97.2864 53.0191 96.3054 53.0118V53.0118ZM91.5657 42.0327H99.9875C100.001 41.5602 99.9156 41.0901 99.7365 40.6526C99.5575 40.2151 99.2887 39.82 98.9477 39.4927C98.254 38.8222 97.2594 38.4869 95.9641 38.4867C93.5317 38.4867 92.0656 39.6687 91.5657 42.0327Z" fill="black"></path> <path d="M111.921 52.6027H107.795V35.4863H111.58L111.819 37.7707C113.024 35.9751 114.763 35.0773 117.036 35.0771C119.218 35.0771 120.821 35.7304 121.844 37.037C122.867 38.3436 123.378 40.0655 123.378 42.2028V52.6021H119.217V42.7142C119.217 40.0095 118.081 38.6571 115.808 38.6567C114.466 38.6567 113.483 39.0545 112.858 39.8501C112.226 40.6684 111.894 41.68 111.921 42.7142V52.6027Z" fill="black"></path> <path d="M135.209 53.0111C133.163 53.0111 131.589 52.4598 130.486 51.3572C129.384 50.2547 128.833 48.7033 128.833 46.7032V38.9293H126.139V35.4856H128.935L129.173 31.1899H132.959V35.4856H139.71V38.9293H132.958V46.4305C132.958 48.4994 133.765 49.5336 135.379 49.5332C135.844 49.5563 136.304 49.4309 136.692 49.1751C136.953 49.0135 137.165 48.7836 137.305 48.5103C137.372 48.3592 137.413 48.1978 137.425 48.033H140.289V50.3175C139.357 52.1136 137.663 53.0114 135.209 53.0111Z" fill="black"></path> <path d="M151.166 53.0118C148.257 53.0118 146.024 52.1878 144.467 50.5397C142.91 48.8916 142.131 46.7266 142.131 44.0445C142.131 41.4762 142.904 39.3395 144.449 37.6344C145.995 35.9292 148.12 35.0768 150.825 35.0771C153.507 35.0771 155.519 35.7874 156.86 37.208C158.202 38.6286 158.872 40.4982 158.872 42.8169L158.701 44.8287H146.291C146.404 46.3065 146.882 47.4658 147.723 48.3065C148.564 49.1472 149.724 49.5679 151.201 49.5684C151.652 49.5704 152.102 49.5361 152.548 49.466C152.912 49.4112 153.272 49.3256 153.622 49.2101C153.895 49.1183 154.157 48.9983 154.406 48.8523C154.603 48.7383 154.787 48.601 154.951 48.4431C155.088 48.3067 155.201 48.1874 155.292 48.0852C155.366 48.0044 155.434 47.919 155.497 47.8295L155.531 47.7271H158.531V49.9776C158.467 50.0973 158.393 50.2114 158.31 50.3185C158.081 50.5783 157.83 50.8179 157.56 51.0345C157.14 51.3902 156.683 51.6988 156.196 51.9551C155.524 52.285 154.814 52.5312 154.082 52.688C153.126 52.9104 152.148 53.0191 151.166 53.0118V53.0118ZM146.427 42.0327H154.849C154.863 41.5602 154.777 41.0901 154.598 40.6526C154.419 40.2151 154.15 39.82 153.809 39.4927C153.116 38.8222 152.121 38.4869 150.826 38.4867C148.393 38.4867 146.927 39.6687 146.427 42.0327Z" fill="black"></path> <path d="M166.782 52.6027H162.656V35.4863H166.442L166.68 37.7366C167.68 35.9636 169.271 35.0771 171.454 35.0771C172.681 35.0771 173.658 35.367 174.386 35.9467C175.096 36.4965 175.571 37.2942 175.716 38.1798V40.4984H172.749L172.715 40.3962C172.689 40.2969 172.655 40.1998 172.612 40.1062C172.556 39.9837 172.493 39.8642 172.424 39.7483C172.334 39.5987 172.226 39.4613 172.101 39.3392C171.956 39.1965 171.796 39.0703 171.623 38.9632C171.412 38.8375 171.181 38.7456 170.941 38.6906C170.651 38.6204 170.354 38.5859 170.055 38.5882C168.987 38.5882 168.174 38.9747 167.617 39.7476C167.061 40.5204 166.782 41.5432 166.782 42.8161V52.6027Z" fill="black"></path> <path d="M72.5375 75.2744C72.184 75.2913 71.8327 75.2107 71.5219 75.0415C71.2112 74.8723 70.9528 74.6209 70.7752 74.3148L70.6869 75.1764H70.0015V67.833H70.7752V71.1815C70.9524 70.8744 71.2103 70.6216 71.521 70.4508C71.8317 70.2799 72.1832 70.1975 72.5375 70.2123C72.8499 70.2023 73.1605 70.2622 73.4468 70.3876C73.7331 70.513 73.9877 70.7007 74.1921 70.9371C74.6202 71.4303 74.8474 72.0663 74.8287 72.7191C74.8498 73.3832 74.625 74.0319 74.1972 74.5404C73.9938 74.78 73.7389 74.9705 73.4515 75.0976C73.164 75.2247 72.8516 75.2852 72.5375 75.2744V75.2744ZM72.4003 74.6086C72.6305 74.618 72.8597 74.5743 73.0702 74.4809C73.2808 74.3875 73.4671 74.247 73.6146 74.0701C73.9186 73.687 74.0748 73.2074 74.0549 72.7188C74.0707 72.2427 73.9144 71.7769 73.6146 71.4067C73.4664 71.2312 73.2798 71.0924 73.0692 71.0007C72.8586 70.909 72.6297 70.8671 72.4003 70.8781C72.1759 70.869 71.9524 70.9115 71.747 71.0023C71.5416 71.0931 71.3598 71.2299 71.2155 71.402C70.9145 71.7728 70.7581 72.2402 70.7752 72.7175C70.7447 73.2262 70.9172 73.7261 71.2547 74.1078C71.3998 74.2671 71.5768 74.394 71.7742 74.4803C71.9715 74.5665 72.1849 74.6103 72.4003 74.6086V74.6086Z" fill="black"></path> <path d="M80.0069 70.8169L76.4529 77.6218H75.9143V77.0825L77.3243 74.4882L75.4053 70.8455V70.3071H75.9436L77.7453 73.7535L79.5076 70.3071H80.0069V70.8169Z" fill="black"></path> <path d="M84.6788 75.1739H83.3765V67.8306H87.7239V68.9274H84.6788V70.9734H87.4302V72.0311H84.6788V75.1739Z" fill="black"></path> <path d="M91.4837 72.355V75.174H90.1816V67.8306H92.3944C93.0792 67.7921 93.7545 68.0045 94.2939 68.428C94.5241 68.6237 94.707 68.8689 94.8291 69.1452C94.9512 69.4216 95.0092 69.7219 94.9989 70.0238C95.0098 70.4688 94.8791 70.9058 94.6257 71.2718C94.3723 71.6378 94.0092 71.9139 93.5889 72.0603L95.4682 74.4298V75.174H94.4517L92.2978 72.355H91.4837ZM91.4741 68.9475V71.2975H92.3845C92.5568 71.3055 92.7289 71.2793 92.8911 71.2205C93.0532 71.1617 93.2021 71.0715 93.3292 70.9549C93.4486 70.8382 93.5421 70.6976 93.6037 70.5424C93.6652 70.3872 93.6935 70.2208 93.6866 70.054C93.689 69.9048 93.6587 69.757 93.5978 69.6208C93.5369 69.4847 93.4469 69.3636 93.3341 69.266C93.0694 69.0433 92.7299 68.9295 92.3845 68.9475H91.4741Z" fill="black"></path> <path d="M102.235 75.1739H97.8481V67.8306H102.235V68.9274H99.1502V70.8757H101.921V71.9332H99.1502V74.0772H102.234L102.235 75.1739Z" fill="black"></path> <path d="M106.945 75.2908C106.384 75.3085 105.829 75.179 105.334 74.915C104.936 74.7088 104.617 74.3766 104.428 73.9702V73.2652H105.417C105.518 73.554 105.713 73.8006 105.97 73.9651C106.269 74.1474 106.614 74.2377 106.964 74.2245C107.297 74.2388 107.625 74.1386 107.894 73.9407C108.01 73.8532 108.104 73.7391 108.167 73.6079C108.23 73.4767 108.26 73.3323 108.256 73.1868C108.26 73.061 108.237 72.9359 108.188 72.82C108.139 72.7041 108.065 72.6002 107.972 72.5156C107.705 72.3054 107.394 72.1596 107.061 72.0898L106.474 71.943C105.15 71.6165 104.487 70.9083 104.487 69.8183C104.476 69.5243 104.533 69.2317 104.654 68.9633C104.774 68.695 104.955 68.4581 105.183 68.2713C105.7 67.8816 106.337 67.6844 106.984 67.7132C107.508 67.6922 108.028 67.8086 108.492 68.0509C108.859 68.2461 109.134 68.5789 109.256 68.9763V69.681H108.257C108.087 69.0805 107.643 68.7803 106.926 68.7803C106.612 68.759 106.301 68.8546 106.054 69.0488C105.956 69.1341 105.877 69.2404 105.825 69.3597C105.772 69.479 105.747 69.6085 105.75 69.7388C105.747 69.8543 105.77 69.969 105.816 70.0748C105.862 70.1806 105.932 70.2748 106.019 70.3506C106.265 70.5436 106.551 70.6791 106.856 70.7472L107.551 70.9335C108.863 71.2925 109.519 72.0334 109.519 73.156C109.53 73.4525 109.47 73.7473 109.346 74.0168C109.222 74.2863 109.037 74.523 108.805 74.708C108.272 75.1147 107.614 75.321 106.945 75.2908Z" fill="black"></path> <path d="M113.298 75.1739H111.996V67.8306H113.298V70.856H116.548V67.8306H117.86V75.1739H116.548V71.9522H113.298V75.1739Z" fill="black"></path> <path d="M123.971 75.2913C122.842 75.2913 121.957 74.9357 121.318 74.2242C120.661 73.4658 120.318 72.4853 120.358 71.4827C120.322 70.484 120.681 69.5111 121.357 68.7754C121.692 68.4227 122.099 68.1454 122.549 67.9622C123 67.7791 123.485 67.6941 123.971 67.713C124.329 67.7099 124.686 67.751 125.033 67.8355C125.303 67.8966 125.563 67.9938 125.807 68.1244C125.987 68.2265 126.155 68.3497 126.306 68.4915C126.418 68.5915 126.517 68.705 126.6 68.8294C126.644 68.896 126.679 68.9682 126.703 69.0441V69.7489H125.704C125.693 69.6971 125.673 69.6476 125.646 69.6021C125.594 69.5185 125.535 69.4399 125.469 69.3674C125.38 69.2656 125.278 69.1754 125.166 69.0989C125.016 69.0032 124.853 68.9322 124.681 68.8883C124.456 68.8273 124.224 68.7977 123.991 68.8004C123.67 68.7869 123.351 68.8469 123.057 68.9759C122.764 69.1048 122.504 69.2993 122.297 69.5444C121.861 70.0939 121.638 70.7823 121.67 71.483C121.642 72.1861 121.864 72.8767 122.297 73.4314C122.5 73.6816 122.76 73.8808 123.054 74.0134C123.348 74.1461 123.668 74.2084 123.991 74.1954C124.222 74.1976 124.453 74.1663 124.676 74.1021C124.994 74.0214 125.28 73.8474 125.499 73.6026C125.571 73.5266 125.635 73.4429 125.689 73.353C125.717 73.3072 125.739 73.2578 125.753 73.2062H126.752V73.9115C126.705 74.0316 126.637 74.1425 126.551 74.2392C126.41 74.405 126.253 74.556 126.081 74.6897C125.821 74.8835 125.527 75.0278 125.215 75.1155C124.812 75.2374 124.392 75.2967 123.971 75.2913Z" fill="black"></path> <path d="M134.977 74.2158C134.274 74.9062 133.328 75.293 132.343 75.293C131.358 75.293 130.412 74.9062 129.709 74.2158C129.026 73.4698 128.664 72.485 128.701 71.4742C128.681 70.9787 128.761 70.4844 128.934 70.0197C129.107 69.5551 129.37 69.1294 129.709 68.7672C130.419 68.0913 131.362 67.7144 132.343 67.7144C133.323 67.7144 134.266 68.0913 134.977 68.7672C135.315 69.1294 135.579 69.5551 135.752 70.0197C135.925 70.4844 136.004 70.9787 135.985 71.4742C136.022 72.485 135.66 73.4698 134.977 74.2158V74.2158ZM132.343 74.2059C132.665 74.2173 132.986 74.155 133.28 74.0235C133.575 73.8921 133.835 73.6949 134.042 73.4474C134.487 72.8889 134.715 72.1879 134.683 71.4742C134.713 70.7743 134.485 70.0877 134.042 69.5454C133.826 69.311 133.564 69.1237 133.273 68.9956C132.981 68.8676 132.666 68.8015 132.348 68.8015C132.029 68.8015 131.714 68.8676 131.423 68.9956C131.131 69.1237 130.869 69.311 130.654 69.5454C130.21 70.0877 129.982 70.7743 130.012 71.4742C129.98 72.1879 130.208 72.8889 130.654 73.4474C130.859 73.6943 131.118 73.891 131.41 74.0225C131.703 74.1539 132.022 74.2167 132.343 74.2059Z" fill="black"></path> <path d="M140.88 75.174H138.471V67.8306H140.88C141.374 67.8088 141.867 67.8907 142.327 68.071C142.788 68.2514 143.205 68.5262 143.553 68.8778C143.885 69.2215 144.145 69.628 144.318 70.0734C144.492 70.5189 144.574 70.9945 144.562 71.4723C144.575 71.9569 144.493 72.4393 144.32 72.8922C144.147 73.345 143.886 73.7592 143.553 74.1111C143.208 74.4668 142.791 74.7455 142.33 74.9287C141.87 75.1119 141.375 75.1954 140.88 75.174V75.174ZM139.774 68.9274V74.0772H140.851C141.177 74.0895 141.502 74.0286 141.802 73.899C142.102 73.7694 142.369 73.5743 142.584 73.3282C143.027 72.8135 143.261 72.1516 143.24 71.4728C143.259 70.8078 143.024 70.1602 142.584 69.6617C142.367 69.4193 142.099 69.2278 141.799 69.1009C141.5 68.974 141.176 68.9148 140.851 68.9274H139.774Z" fill="black"></path> <path d="M151.435 75.1739H147.049V67.8306H151.435V68.9274H148.351V70.8757H151.122V71.9332H148.351V74.0772H151.435V75.1739Z" fill="black"></path> <path d="M53.6946 30.5156L37.1318 47.0719L30.5605 40.5029L40.5519 30.5156L30.5605 20.5283L37.1318 13.9595L53.6946 30.5156Z" fill="black"></path> <path d="M19.0599 30.4656L36.3605 13.1706L26.8564 3.66846L0 30.516L26.8564 57.3636L36.4118 47.8114L19.0599 30.4656Z" fill="black"></path> </svg> 