<?xml version="1.0" encoding="UTF-8"?> <svg xmlns="http://www.w3.org/2000/svg" width="194" height="78" viewBox="0 0 194 78" fill="none"> <path d="M77.4608 25.265C75.415 25.265 73.8409 24.7137 72.7385 23.6111C71.6362 22.5086 71.0849 20.9573 71.0847 18.9571V11.1832H68.3911V7.73946H71.187L71.426 3.44385H75.2115V7.73946H81.9623V11.1832H75.2107V18.6844C75.2107 20.7533 76.0175 21.7875 77.6312 21.7871C78.0958 21.8102 78.5556 21.6848 78.9441 21.429C79.2052 21.2672 79.4174 21.0374 79.5578 20.7642C79.6247 20.6131 79.6651 20.4517 79.677 20.2869H82.5411V22.5714C81.609 24.3675 79.9155 25.2653 77.4608 25.265Z" fill="white"></path> <path d="M89.531 24.8561H85.4048V7.7397H89.1903L89.429 9.99002C90.4288 8.21701 92.0199 7.33057 94.2025 7.33057C95.4299 7.33057 96.4074 7.62037 97.1348 8.2001C97.8441 8.74987 98.3192 9.54764 98.4645 10.4332V12.7519H95.4995L95.4654 12.6496C95.4393 12.5503 95.4051 12.4533 95.3631 12.3596C95.3067 12.2372 95.244 12.1177 95.1752 12.0018C95.0852 11.8521 94.9764 11.7146 94.8514 11.5926C94.7069 11.4498 94.5467 11.3236 94.374 11.2166C94.1622 11.0909 93.9322 10.999 93.6921 10.944C93.4021 10.8738 93.1045 10.8394 92.8061 10.8416C91.7374 10.8416 90.9248 11.2281 90.3684 12.001C89.8119 12.7738 89.5333 13.7966 89.5326 15.0696L89.531 24.8561Z" fill="white"></path> <path d="M105.82 25.2656C103.911 25.2656 102.48 24.7429 101.525 23.6973C100.581 22.6791 100.067 21.3349 100.093 19.9466C100.069 19.2232 100.217 18.5046 100.525 17.8497C100.833 17.1947 101.292 16.6222 101.865 16.1791C103.046 15.2359 104.83 14.7642 107.218 14.764C107.804 14.7651 108.391 14.7992 108.974 14.8663C109.576 14.9345 110.036 15.0026 110.355 15.0708L110.798 15.1732V14.2525C110.798 11.9568 109.696 10.8089 107.491 10.8087C107.153 10.806 106.815 10.8404 106.485 10.9111C106.21 10.9691 105.941 11.0547 105.683 11.1669C105.462 11.2657 105.251 11.3856 105.053 11.5247C104.879 11.6437 104.719 11.781 104.575 11.934C104.45 12.0704 104.348 12.1897 104.268 12.2919C104.189 12.3941 104.126 12.4793 104.08 12.5476L104.012 12.65H101.081V10.3996C101.143 10.282 101.211 10.1681 101.286 10.0586C101.808 9.39606 102.443 8.83063 103.161 8.38798C103.746 8.06291 104.37 7.81647 105.019 7.65504C105.859 7.43193 106.725 7.32292 107.594 7.33098C110.003 7.33098 111.833 7.92771 113.083 9.12117C114.334 10.3146 114.959 12.0591 114.958 14.3547V24.8565H111.412L111.036 22.5038C110.481 23.3772 109.709 24.0911 108.794 24.5753C107.88 25.0595 106.855 25.2975 105.82 25.2656V25.2656ZM106.844 21.9924C108.048 21.9924 109.008 21.6514 109.725 20.9695C110.441 20.2876 110.799 19.5375 110.799 18.7192V17.9008C109.675 17.6071 108.516 17.4694 107.355 17.4916C105.241 17.4916 104.184 18.2418 104.184 19.7421C104.184 21.2423 105.07 21.9924 106.844 21.9924V21.9924Z" fill="white"></path> <path d="M123.286 4.19389H118.887V0H123.286V4.19389ZM123.15 24.8563H119.024V7.73992H123.149L123.15 24.8563Z" fill="white"></path> <path d="M132.049 24.8561H127.923V7.7397H131.708L131.947 10.0241C133.152 8.22854 134.891 7.33075 137.164 7.33057C139.346 7.33057 140.949 7.98381 141.972 9.29039C142.995 10.597 143.506 12.3189 143.506 14.4562V24.8556H139.345V14.9676C139.345 12.263 138.209 10.9105 135.936 10.9102C134.594 10.9102 133.611 11.3079 132.986 12.1035C132.354 12.9219 132.022 13.9334 132.049 14.9676V24.8561Z" fill="white"></path> <path d="M152.371 4.19389H147.972V0H152.371V4.19389ZM152.234 24.8563H148.109V7.73992H152.234V24.8563Z" fill="white"></path> <path d="M161.132 24.8561H157.007V7.7397H160.793L161.032 10.0241C162.236 8.22854 163.975 7.33075 166.248 7.33057C168.43 7.33057 170.033 7.98381 171.056 9.29039C172.079 10.597 172.591 12.3189 172.59 14.4562V24.8556H168.429V14.9676C168.429 12.263 167.292 10.9105 165.019 10.9102C163.677 10.9102 162.694 11.3079 162.07 12.1035C161.437 12.9219 161.106 13.9334 161.132 14.9676L161.132 24.8561Z" fill="white"></path> <path d="M184.727 33.7215C183.683 33.7313 182.643 33.5877 181.641 33.2955C180.85 33.0826 180.1 32.7366 179.425 32.2723C178.937 31.9142 178.475 31.5212 178.044 31.0962C177.734 30.8082 177.47 30.4748 177.26 30.1073L177.055 29.6641V27.4137H180.089C180.124 27.5123 180.164 27.609 180.208 27.7036C180.334 27.9287 180.482 28.1401 180.652 28.3343C180.89 28.6293 181.165 28.8928 181.47 29.1185C181.873 29.3932 182.316 29.6059 182.782 29.7494C183.388 29.9481 184.021 30.0459 184.658 30.0392C186.341 30.0392 187.625 29.5049 188.511 28.4366C189.397 27.3682 189.84 25.8908 189.84 24.0041V22.2652C188.522 24.1746 186.59 25.1293 184.044 25.1293C181.68 25.1293 179.782 24.2769 178.35 22.572C176.918 20.8672 176.202 18.7642 176.202 16.2629C176.202 13.7392 176.924 11.6138 178.367 9.88683C179.81 8.15982 181.714 7.29595 184.078 7.29541C186.602 7.29541 188.534 8.28429 189.875 10.2619L190.182 7.73811H194V23.934C194 26.9344 193.171 29.3098 191.511 31.0601C189.829 32.8344 187.568 33.7215 184.727 33.7215ZM185.103 21.5832C186.558 21.5832 187.705 21.0603 188.547 20.0147C189.386 18.9383 189.842 17.6123 189.842 16.2471C189.842 14.882 189.386 13.5558 188.547 12.4794C187.705 11.4342 186.558 10.9114 185.103 10.911C183.512 10.911 182.33 11.4338 181.557 12.4794C180.736 13.5552 180.304 14.8772 180.33 16.2301C180.33 17.7762 180.744 19.0546 181.574 20.0657C182.404 21.0768 183.58 21.5827 185.102 21.5832H185.103Z" fill="white"></path> <path d="M77.7239 52.6485C74.9049 52.6485 72.734 51.8018 71.2112 50.1084C69.6884 48.4151 68.9269 46.2726 68.9268 43.6811C68.9268 41.1129 69.7224 38.9706 71.3138 37.2541C72.9051 35.5377 75.0418 34.6796 77.7239 34.6797C78.6735 34.6701 79.6199 34.7906 80.5367 35.0379C81.2416 35.21 81.9109 35.5041 82.5143 35.9071C82.9405 36.2132 83.3345 36.5616 83.6905 36.947C83.9491 37.2152 84.1673 37.5195 84.3383 37.8506L84.4747 38.1915V40.442H81.5757L81.5416 40.3055C81.4999 40.1988 81.4486 40.0962 81.3883 39.9988C81.2981 39.8483 81.1955 39.7056 81.0815 39.5723C80.9303 39.3997 80.765 39.2401 80.5872 39.095C80.3778 38.9215 80.1489 38.7729 79.9053 38.6521C79.6013 38.5096 79.2804 38.4064 78.9503 38.3449C78.5463 38.2639 78.1351 38.224 77.7231 38.2258C76.2227 38.2258 75.0748 38.7372 74.2794 39.7601C73.484 40.7829 73.0861 42.0896 73.0857 43.6798C73.0857 45.2714 73.4836 46.5727 74.2794 47.5837C75.0751 48.5948 76.223 49.1006 77.7231 49.1011C78.0652 49.1026 78.4069 49.0799 78.7457 49.033C79.031 48.9961 79.3112 48.9274 79.5812 48.8283C79.8055 48.7446 80.0222 48.6419 80.229 48.5214C80.4028 48.4213 80.5682 48.3073 80.7236 48.1805C80.8599 48.0667 80.9856 47.9409 81.0994 47.8046C81.1953 47.6931 81.2809 47.5733 81.3553 47.4465C81.4117 47.3443 81.4628 47.2477 81.5086 47.1568L81.6109 46.9523V46.8841H84.5104V49.1344C84.4645 49.2254 84.403 49.3508 84.3225 49.5103C83.8496 50.2686 83.2287 50.9239 82.4969 51.4369C81.8885 51.8108 81.228 52.0922 80.537 52.2721C79.622 52.5311 78.6748 52.6578 77.7239 52.6485V52.6485Z" fill="white"></path> <path d="M96.3054 52.65C93.3954 52.65 91.1621 51.8259 89.6053 50.1779C88.0485 48.5298 87.2699 46.3647 87.2695 43.6827C87.2695 41.1144 88.0424 38.9777 89.5881 37.2725C91.1338 35.5674 93.2591 34.715 95.9641 34.7153C98.6458 34.7153 100.658 35.4256 101.999 36.8462C103.341 38.2668 104.012 40.1364 104.011 42.4551L103.84 44.4669H91.4293C91.5428 45.9447 92.0201 47.104 92.8613 47.9447C93.7026 48.7854 94.8619 49.2061 96.3395 49.2066C96.7904 49.2086 97.2407 49.1743 97.6861 49.1042C98.0507 49.0496 98.41 48.9639 98.76 48.8483C99.0331 48.7564 99.2959 48.6365 99.5442 48.4904C99.7419 48.3765 99.9251 48.2392 100.09 48.0813C100.226 47.9449 100.34 47.8256 100.431 47.7234C100.504 47.6425 100.573 47.5571 100.636 47.4677L100.669 47.3653H103.67V49.6157C103.606 49.7355 103.532 49.8496 103.448 49.9567C103.219 50.2166 102.969 50.4561 102.698 50.6727C102.279 51.0285 101.821 51.3371 101.334 51.5933C100.662 51.9232 99.9525 52.1693 99.2205 52.3262C98.2649 52.5486 97.2864 52.6572 96.3054 52.65V52.65ZM91.5657 41.6709H99.9875C100.001 41.1984 99.9156 40.7283 99.7365 40.2908C99.5575 39.8533 99.2887 39.4582 98.9477 39.1309C98.254 38.4604 97.2594 38.1251 95.9641 38.1249C93.5317 38.1249 92.0656 39.3069 91.5657 41.6709Z" fill="white"></path> <path d="M111.921 52.2409H107.795V35.1245H111.58L111.819 37.4089C113.024 35.6133 114.763 34.7155 117.036 34.7153C119.218 34.7153 120.821 35.3686 121.844 36.6752C122.867 37.9817 123.378 39.7037 123.378 41.841V52.2403H119.217V42.3523C119.217 39.6477 118.081 38.2953 115.808 38.2949C114.466 38.2949 113.483 38.6927 112.858 39.4882C112.226 40.3066 111.894 41.3182 111.921 42.3523V52.2409Z" fill="white"></path> <path d="M135.209 52.6493C133.163 52.6493 131.589 52.0979 130.486 50.9954C129.384 49.8929 128.833 48.3415 128.833 46.3414V38.5675H126.139V35.1237H128.935L129.173 30.8281H132.959V35.1237H139.71V38.5675H132.958V46.0687C132.958 48.1376 133.765 49.1717 135.379 49.1714C135.844 49.1945 136.304 49.0691 136.692 48.8132C136.953 48.6517 137.165 48.4218 137.305 48.1485C137.372 47.9974 137.413 47.836 137.425 47.6712H140.289V49.9557C139.357 51.7518 137.663 52.6496 135.209 52.6493Z" fill="white"></path> <path d="M151.166 52.65C148.257 52.65 146.024 51.8259 144.467 50.1779C142.91 48.5298 142.131 46.3647 142.131 43.6827C142.131 41.1144 142.904 38.9777 144.449 37.2725C145.995 35.5674 148.12 34.715 150.825 34.7153C153.507 34.7153 155.519 35.4256 156.86 36.8462C158.202 38.2668 158.872 40.1364 158.872 42.4551L158.701 44.4669H146.291C146.404 45.9447 146.882 47.104 147.723 47.9447C148.564 48.7854 149.724 49.2061 151.201 49.2066C151.652 49.2086 152.102 49.1743 152.548 49.1042C152.912 49.0494 153.272 48.9638 153.622 48.8483C153.895 48.7564 154.157 48.6365 154.406 48.4904C154.603 48.3765 154.787 48.2392 154.951 48.0813C155.088 47.9449 155.201 47.8256 155.292 47.7234C155.366 47.6425 155.434 47.5572 155.497 47.4677L155.531 47.3653H158.531V49.6157C158.467 49.7355 158.393 49.8496 158.31 49.9567C158.081 50.2165 157.83 50.456 157.56 50.6727C157.14 51.0283 156.683 51.337 156.196 51.5933C155.524 51.9232 154.814 52.1694 154.082 52.3262C153.126 52.5486 152.148 52.6572 151.166 52.65V52.65ZM146.427 41.6709H154.849C154.863 41.1984 154.777 40.7283 154.598 40.2908C154.419 39.8533 154.15 39.4582 153.809 39.1309C153.116 38.4604 152.121 38.1251 150.826 38.1249C148.393 38.1249 146.927 39.3069 146.427 41.6709Z" fill="white"></path> <path d="M166.782 52.2409H162.656V35.1245H166.442L166.68 37.3748C167.68 35.6018 169.271 34.7153 171.454 34.7153C172.681 34.7153 173.658 35.0051 174.386 35.5849C175.096 36.1347 175.571 36.9324 175.716 37.818V40.1366H172.749L172.715 40.0344C172.689 39.935 172.655 39.838 172.612 39.7444C172.556 39.6219 172.493 39.5024 172.424 39.3865C172.334 39.2369 172.226 39.0994 172.101 38.9774C171.956 38.8346 171.796 38.7085 171.623 38.6014C171.412 38.4757 171.181 38.3838 170.941 38.3287C170.651 38.2586 170.354 38.2241 170.055 38.2264C168.987 38.2264 168.174 38.6129 167.617 39.3857C167.061 40.1586 166.782 41.1814 166.782 42.4543V52.2409Z" fill="white"></path> <path d="M72.5375 74.9126C72.184 74.9295 71.8327 74.8489 71.5219 74.6797C71.2112 74.5104 70.9528 74.2591 70.7752 73.953L70.6869 74.8146H70.0015V67.4712H70.7752V70.8197C70.9524 70.5126 71.2103 70.2598 71.521 70.089C71.8317 69.9181 72.1832 69.8357 72.5375 69.8505C72.8499 69.8405 73.1605 69.9004 73.4468 70.0258C73.7331 70.1512 73.9877 70.3389 74.1921 70.5753C74.6202 71.0685 74.8474 71.7045 74.8287 72.3572C74.8498 73.0214 74.625 73.6701 74.1972 74.1786C73.9938 74.4182 73.7389 74.6087 73.4515 74.7358C73.164 74.8629 72.8516 74.9234 72.5375 74.9126V74.9126ZM72.4003 74.2468C72.6305 74.2562 72.8597 74.2125 73.0702 74.1191C73.2808 74.0257 73.4671 73.8852 73.6146 73.7083C73.9186 73.3252 74.0748 72.8456 74.0549 72.357C74.0707 71.8809 73.9144 71.4151 73.6146 71.0449C73.4664 70.8694 73.2798 70.7306 73.0692 70.6389C72.8586 70.5472 72.6297 70.5052 72.4003 70.5163C72.1759 70.5072 71.9524 70.5497 71.747 70.6405C71.5416 70.7313 71.3598 70.868 71.2155 71.0402C70.9145 71.411 70.7581 71.8783 70.7752 72.3557C70.7447 72.8643 70.9172 73.3643 71.2547 73.746C71.3998 73.9053 71.5768 74.0322 71.7742 74.1185C71.9715 74.2047 72.1849 74.2485 72.4003 74.2468V74.2468Z" fill="white"></path> <path d="M80.0069 70.4551L76.4529 77.26H75.9143V76.7207L77.3243 74.1264L75.4053 70.4837V69.9453H75.9436L77.7453 73.3917L79.5076 69.9453H80.0069V70.4551Z" fill="white"></path> <path d="M84.6788 74.8121H83.3765V67.4688H87.7239V68.5656H84.6788V70.6115H87.4302V71.6693H84.6788V74.8121Z" fill="white"></path> <path d="M91.4837 71.9927V74.8117H90.1816V67.4683H92.3944C93.0792 67.4298 93.7545 67.6422 94.2939 68.0657C94.5241 68.2614 94.707 68.5066 94.8291 68.7829C94.9512 69.0593 95.0092 69.3596 94.9989 69.6615C95.0098 70.1065 94.8791 70.5435 94.6257 70.9095C94.3723 71.2755 94.0092 71.5516 93.5889 71.698L95.4682 74.0675V74.8117H94.4517L92.2978 71.9927H91.4837ZM91.4741 68.5852V70.9352H92.3845C92.5568 70.9432 92.7289 70.917 92.8911 70.8582C93.0532 70.7994 93.2021 70.7092 93.3292 70.5926C93.4486 70.4759 93.5421 70.3353 93.6037 70.1801C93.6652 70.0249 93.6935 69.8585 93.6866 69.6916C93.689 69.5425 93.6587 69.3947 93.5978 69.2585C93.5369 69.1224 93.4469 69.0012 93.3341 68.9037C93.0694 68.681 92.7299 68.5672 92.3845 68.5852H91.4741Z" fill="white"></path> <path d="M102.235 74.8121H97.8481V67.4688H102.235V68.5656H99.1502V70.5139H101.921V71.5714H99.1502V73.7154H102.234L102.235 74.8121Z" fill="white"></path> <path d="M106.945 74.929C106.384 74.9467 105.829 74.8171 105.334 74.5532C104.936 74.347 104.617 74.0147 104.428 73.6084V72.9034H105.417C105.518 73.1922 105.713 73.4388 105.97 73.6033C106.269 73.7856 106.614 73.8759 106.964 73.8627C107.297 73.877 107.625 73.7768 107.894 73.5789C108.01 73.4914 108.104 73.3772 108.167 73.2461C108.23 73.1149 108.26 72.9705 108.256 72.825C108.26 72.6992 108.237 72.5741 108.188 72.4582C108.139 72.3423 108.065 72.2384 107.972 72.1538C107.705 71.9435 107.394 71.7978 107.061 71.728L106.474 71.5812C105.15 71.2547 104.487 70.5465 104.487 69.4565C104.476 69.1625 104.533 68.8698 104.654 68.6015C104.774 68.3331 104.955 68.0963 105.183 67.9095C105.7 67.5198 106.337 67.3226 106.984 67.3514C107.508 67.3304 108.028 67.4468 108.492 67.6891C108.859 67.8843 109.134 68.217 109.256 68.6145V69.3192H108.257C108.087 68.7187 107.643 68.4185 106.926 68.4185C106.612 68.3971 106.301 68.4928 106.054 68.687C105.956 68.7723 105.877 68.8786 105.825 68.9979C105.772 69.1172 105.747 69.2467 105.75 69.377C105.747 69.4925 105.77 69.6072 105.816 69.713C105.862 69.8188 105.932 69.913 106.019 69.9888C106.265 70.1818 106.551 70.3173 106.856 70.3854L107.551 70.5717C108.863 70.9307 109.519 71.6716 109.519 72.7942C109.53 73.0907 109.47 73.3854 109.346 73.6549C109.222 73.9244 109.037 74.1612 108.805 74.3462C108.272 74.7529 107.614 74.9592 106.945 74.929Z" fill="white"></path> <path d="M113.298 74.8121H111.996V67.4688H113.298V70.4942H116.548V67.4688H117.86V74.8121H116.548V71.5904H113.298V74.8121Z" fill="white"></path> <path d="M123.971 74.9295C122.842 74.9295 121.957 74.5739 121.318 73.8624C120.661 73.104 120.318 72.1235 120.358 71.1209C120.322 70.1222 120.681 69.1493 121.357 68.4136C121.692 68.0609 122.099 67.7836 122.549 67.6004C123 67.4172 123.485 67.3323 123.971 67.3512C124.329 67.348 124.686 67.3892 125.033 67.4737C125.303 67.5348 125.563 67.632 125.807 67.7626C125.987 67.8646 126.155 67.9879 126.306 68.1296C126.418 68.2297 126.517 68.3432 126.6 68.4676C126.644 68.5341 126.679 68.6064 126.703 68.6823V69.3871H125.704C125.693 69.3353 125.673 69.2857 125.646 69.2403C125.594 69.1567 125.535 69.0781 125.469 69.0056C125.38 68.9038 125.278 68.8136 125.166 68.7371C125.016 68.6414 124.853 68.5704 124.681 68.5265C124.456 68.4654 124.224 68.4359 123.991 68.4386C123.67 68.4251 123.351 68.4851 123.057 68.614C122.764 68.743 122.504 68.9375 122.297 69.1826C121.861 69.7321 121.638 70.4205 121.67 71.1212C121.642 71.8243 121.864 72.5149 122.297 73.0696C122.5 73.3198 122.76 73.519 123.054 73.6516C123.348 73.7843 123.668 73.8465 123.991 73.8336C124.222 73.8358 124.453 73.8044 124.676 73.7402C124.994 73.6596 125.28 73.4856 125.499 73.2408C125.571 73.1648 125.635 73.0811 125.689 72.9912C125.717 72.9454 125.739 72.896 125.753 72.8444H126.752V73.5496C126.705 73.6698 126.637 73.7807 126.551 73.8774C126.41 74.0432 126.253 74.1942 126.081 74.3279C125.821 74.5217 125.527 74.666 125.215 74.7537C124.812 74.8756 124.392 74.9349 123.971 74.9295Z" fill="white"></path> <path d="M134.977 73.854C134.274 74.5444 133.328 74.9312 132.343 74.9312C131.358 74.9312 130.412 74.5444 129.709 73.854C129.026 73.108 128.664 72.1232 128.701 71.1124C128.681 70.6169 128.761 70.1226 128.934 69.6579C129.107 69.1933 129.37 68.7675 129.709 68.4053C130.419 67.7295 131.362 67.3525 132.343 67.3525C133.323 67.3525 134.266 67.7295 134.977 68.4053C135.315 68.7675 135.579 69.1933 135.752 69.6579C135.925 70.1226 136.004 70.6169 135.985 71.1124C136.022 72.1232 135.66 73.108 134.977 73.854V73.854ZM132.343 73.8441C132.665 73.8555 132.986 73.7932 133.28 73.6617C133.575 73.5303 133.835 73.3331 134.042 73.0856C134.487 72.527 134.715 71.8261 134.683 71.1124C134.713 70.4125 134.485 69.7259 134.042 69.1836C133.826 68.9491 133.564 68.7619 133.273 68.6338C132.981 68.5058 132.666 68.4397 132.348 68.4397C132.029 68.4397 131.714 68.5058 131.423 68.6338C131.131 68.7619 130.869 68.9491 130.654 69.1836C130.21 69.7259 129.982 70.4125 130.012 71.1124C129.98 71.8261 130.208 72.527 130.654 73.0856C130.859 73.3325 131.118 73.5292 131.41 73.6607C131.703 73.7921 132.022 73.8549 132.343 73.8441Z" fill="white"></path> <path d="M140.88 74.8121H138.471V67.4688H140.88C141.374 67.447 141.867 67.5289 142.327 67.7092C142.788 67.8895 143.205 68.1644 143.553 68.5159C143.885 68.8597 144.145 69.2662 144.318 69.7116C144.492 70.1571 144.574 70.6327 144.562 71.1105C144.575 71.5951 144.493 72.0775 144.32 72.5304C144.147 72.9832 143.886 73.3974 143.553 73.7493C143.208 74.105 142.791 74.3837 142.33 74.5669C141.87 74.7501 141.375 74.8336 140.88 74.8121V74.8121ZM139.774 68.5656V73.7154H140.851C141.177 73.7276 141.502 73.6667 141.802 73.5371C142.102 73.4075 142.369 73.2125 142.584 72.9664C143.027 72.4517 143.261 71.7898 143.24 71.111C143.259 70.4459 143.024 69.7984 142.584 69.2999C142.367 69.0575 142.099 68.866 141.799 68.7391C141.5 68.6121 141.176 68.553 140.851 68.5656H139.774Z" fill="white"></path> <path d="M151.435 74.8121H147.049V67.4688H151.435V68.5656H148.351V70.5139H151.122V71.5714H148.351V73.7154H151.435V74.8121Z" fill="white"></path> <path d="M53.6946 30.1537L37.1318 46.7101L30.5605 40.1411L40.5519 30.1537L30.5605 20.1665L37.1318 13.5977L53.6946 30.1537Z" fill="#12E6AD"></path> <path d="M19.0599 30.1037L36.3605 12.8088L26.8564 3.30664L0 30.1542L26.8564 57.0018L36.4118 47.4495L19.0599 30.1037Z" fill="#3679FF"></path> </svg> 