<?xml version="1.0" encoding="UTF-8"?> <svg xmlns="http://www.w3.org/2000/svg" width="43" height="55" viewBox="0 0 43 55" fill="none"> <path d="M33.8206 23.9077C34.0551 23.5621 34.2526 23.2535 34.413 22.9573C36.4496 19.4272 36.9803 15.3047 35.9188 11.3673C34.8574 7.42994 32.3271 4.14674 28.797 2.11017C26.4889 0.78948 23.8599 0.0859375 21.2062 0.0859375C18.5648 0.0859375 15.9604 0.764795 13.6647 2.07314C11.2948 3.40617 9.33232 5.36868 7.96227 7.73851C6.62924 10.0466 5.9257 12.6757 5.9257 15.3417C5.9257 17.44 6.3577 19.5259 7.19701 21.4391L7.96227 22.9573C8.19678 23.3646 8.50535 23.8336 8.85095 24.3397H0.704666V54.0859H42.1643V23.9077H33.8206ZM21.1938 10.6885C23.7611 10.6885 25.8471 12.7744 25.8471 15.3417C25.8471 17.909 23.7611 19.995 21.1938 19.995C18.6265 19.995 16.5406 17.909 16.5406 15.3417C16.5282 12.7744 18.6142 10.6885 21.1938 10.6885ZM2.96341 26.5984H10.5419C13.0599 29.8075 16.5529 33.7079 19.0462 36.4233H2.96341V26.5984ZM2.88935 51.9012V38.6697H21.1321L21.1938 38.7314L21.2555 38.6697H21.3419L33.0923 51.9012H2.88935ZM39.9796 51.9012H36.0423L34.7586 50.4448L22.9835 37.1762L22.9342 37.1145C24.8967 35.0039 29.3771 30.0914 32.5369 26.08H39.9796V51.9012V51.9012Z" fill="#773EE8"></path> </svg> 