<?xml version="1.0" encoding="UTF-8"?> <svg xmlns="http://www.w3.org/2000/svg" width="53" height="55" viewBox="0 0 53 55" fill="none"> <path d="M10.9663 5.31784V0.5H20.3076V5.31784H32.7938V0.5H42.1886V5.31784H52.8147V54.5H0.393831V5.31784H10.9663ZM17.9254 2.9223H13.3485V5.31784H17.9254V2.9223ZM39.7931 2.9223H35.2161V5.31784H39.7931V2.9223ZM2.77599 52.1178H50.3923V16.5193H2.77599V52.1178V52.1178Z" fill="#773EE8"></path> <path d="M29.8198 24.457H33.2098V27.847H29.8198V24.457Z" fill="#773EE8"></path> <path d="M21.657 24.4609H25.047V27.8509H21.657V24.4609Z" fill="#773EE8"></path> <path d="M37.8752 32.7695H41.2652V36.1595H37.8752V32.7695Z" fill="#773EE8"></path> <path d="M29.8198 32.7695H33.2098V36.1595H29.8198V32.7695Z" fill="#773EE8"></path> <path d="M21.657 32.7695H25.047V36.1595H21.657V32.7695Z" fill="#773EE8"></path> <path d="M37.8752 41.0898H41.2652V44.4798H37.8752V41.0898Z" fill="#773EE8"></path> <path d="M29.8198 41.0898H33.2098V44.4798H29.8198V41.0898Z" fill="#773EE8"></path> <path d="M21.657 41.0898H25.047V44.4798H21.657V41.0898Z" fill="#773EE8"></path> <path d="M13.4734 24.4609H16.8634V27.8509H13.4734V24.4609Z" fill="#773EE8"></path> <path d="M13.4735 32.7695H16.8633V36.1593H13.4735V32.7695Z" fill="#773EE8"></path> </svg> 