<?xml version="1.0" encoding="UTF-8"?> <svg xmlns="http://www.w3.org/2000/svg" width="65" height="55" viewBox="0 0 65 55" fill="none"> <path d="M64.3938 45.3792V0.386719H0.473633V45.3792H25.0422V51.7683H20.9574V54.3867H43.91V51.7683H39.8253V45.3792H64.3938ZM3.09209 3.00517H61.7754V33.3044H56.5085V28.5314L52.0796 27.858L51.9599 27.5139C51.6906 26.7209 51.3614 25.9428 51.0023 25.1947L50.8377 24.8655L53.5011 21.2446L45.4362 13.1797L41.8153 15.8431L41.4861 15.6785C40.738 15.3044 39.9599 14.9902 39.1669 14.7209L38.8228 14.6012L38.1494 10.1723H26.733L26.0597 14.5862L25.7155 14.7059C24.9225 14.9752 24.1445 15.3044 23.3963 15.6635L23.0672 15.8281L19.4462 13.1648L11.3814 21.2296L14.0447 24.8506L13.8801 25.1797C13.5061 25.9279 13.1918 26.7059 12.9075 27.4989L12.7878 27.8431L8.35892 28.5164V33.3044H3.09209V3.00517ZM23.3365 32.6012C24.1295 28.1872 27.945 24.9852 32.4337 24.9852C36.9225 24.9852 40.738 28.1872 41.531 32.6012L41.6507 33.3044H23.2168L23.3365 32.6012ZM37.2218 51.7683H27.6607V45.3792H37.2218V51.7683ZM3.09209 42.7608V35.9229H61.7754V42.7608H3.09209Z" fill="#773EE8"></path> </svg> 