<?xml version="1.0" encoding="UTF-8"?> <svg xmlns="http://www.w3.org/2000/svg" width="111" height="111" viewBox="0 0 111 111" fill="none"> <rect x="0.749023" y="0.800781" width="110" height="110" fill="#2BDBA8"></rect> <path d="M55.1172 87.0436C55.1147 87.0436 55.1123 87.0436 55.1098 87.0436C54.2787 87.0436 53.5016 86.8171 52.8348 86.4187L52.8569 86.4311L45.6568 82.1064C44.5831 81.4939 45.1077 81.2797 45.4607 81.1528C46.7012 80.7569 47.7798 80.244 48.7751 79.6141L48.7163 79.6489C48.7849 79.6166 48.8634 79.5991 48.9467 79.5991C49.0595 79.5991 49.1649 79.634 49.2532 79.6937L49.2507 79.6913L54.7813 83.0251C54.8769 83.0774 54.9921 83.1098 55.1147 83.1098C55.2373 83.1098 55.3525 83.0774 55.453 83.0226L55.4481 83.0251L77.0066 70.3844C77.2052 70.2599 77.3351 70.0408 77.3351 69.7918C77.3351 69.7893 77.3351 69.7893 77.3351 69.7868V44.5228C77.3326 44.2713 77.2003 44.0497 77.0017 43.9277L76.9992 43.9252L55.4481 31.2969C55.3525 31.2421 55.2373 31.2098 55.1172 31.2098C54.997 31.2098 54.8818 31.2421 54.7813 31.2994L54.7838 31.2969L33.2375 43.9277C33.0341 44.0497 32.8992 44.2713 32.8968 44.5252V69.7943C32.8968 70.0457 33.0316 70.2624 33.2326 70.3769L33.2351 70.3794L39.1432 73.8452C42.3473 75.4735 44.3085 73.5564 44.3085 71.6318V46.6789C44.3085 46.3304 44.588 46.0465 44.9312 46.0465H44.9385H47.672H47.6744C48.0176 46.0465 48.2971 46.3279 48.2971 46.6789V71.6318C48.2971 75.9765 45.9682 78.4688 41.9134 78.4688C41.8644 78.4688 41.808 78.4712 41.7516 78.4712C39.9742 78.4712 38.3146 77.9608 36.9074 77.077L31.2935 73.7954C29.9305 72.9787 29.0332 71.4973 29.0332 69.7993V44.5252C29.0357 42.8322 29.9354 41.3557 31.2739 40.554L31.2959 40.5416L52.8569 27.8884C53.5114 27.5174 54.291 27.3008 55.1221 27.3008C55.9531 27.3008 56.7351 27.5199 57.4118 27.9008L57.3872 27.8884L78.9457 40.5416C80.3063 41.3557 81.2036 42.8322 81.2085 44.5252V69.7968C81.206 71.4923 80.3063 72.9738 78.9653 73.7805L78.9433 73.7929L57.3897 86.4361C56.7425 86.8221 55.9629 87.0486 55.1294 87.0486C55.1245 87.0486 55.1172 87.0486 55.1123 87.0486L55.1172 87.0436Z" fill="#0E0E23"></path> <path d="M61.7784 69.6421C52.3451 69.6421 50.3667 65.2451 50.3667 61.5527V61.5502C50.3667 61.2016 50.6437 60.9203 50.9869 60.9203H50.9918H53.7792H53.7816C54.093 60.9203 54.3504 61.1518 54.3994 61.4531V61.4556C54.8186 64.3388 56.0738 65.7928 61.7784 65.7928C66.3211 65.7928 68.2504 64.7496 68.2504 62.3021C68.2504 60.8904 67.7037 59.8447 60.6458 59.1425C54.7475 58.545 51.0997 57.2254 51.0997 52.4325C51.0997 48.0156 54.7671 45.3789 60.9057 45.3789C67.814 45.3789 71.2314 47.8139 71.6629 53.0375C71.6653 53.055 71.6653 53.0749 71.6653 53.0923C71.6653 53.4434 71.3859 53.7247 71.0427 53.7247H68.2651C67.9709 53.7247 67.7233 53.5131 67.662 53.2317V53.2268C66.9903 50.1942 65.3576 49.2257 60.9302 49.2257C55.9708 49.2257 55.3947 50.981 55.3947 52.2931C55.3947 53.8866 56.0762 54.3497 62.7713 55.2485C69.3952 56.1398 72.543 57.3972 72.543 62.1253C72.5332 66.9033 68.6181 69.6371 61.7858 69.6371L61.7784 69.6421Z" fill="#0E0E23"></path> </svg> 