<?xml version="1.0" encoding="UTF-8"?> <svg xmlns="http://www.w3.org/2000/svg" width="60" height="60" viewBox="0 0 60 60" fill="none"> <path d="M23.0432 28.7909H38.5454L46.1307 36.4214V0.847656H0.634277V28.7909H10.7379V16.5309L23.0281 28.7758L23.0432 28.7909ZM20.8566 12.8966L24.9583 16.5912L33.4182 9.0361L34.9442 10.7072L24.9583 19.4978L19.3306 14.5091L20.8566 12.8966Z" fill="#3679FF"></path> <path d="M49.4784 32.1555V44.6116L37.0676 32.2007H21.4899L14.0103 24.6758V59.7971H59.5368V32.1555H49.4784ZM56.7922 57.0526H16.6643L16.7096 31.1903L19.6049 34.0857L20.4193 34.9H21.5352H35.9517L47.5482 46.4966L52.1325 51.0809V44.5663V34.8095H56.7922V57.0526Z" fill="#3679FF"></path> <path d="M26.3457 45.8789H23.1789V49.0457H26.3457V45.8789Z" fill="#3679FF"></path> <path d="M33.5992 45.8789H30.4324V49.0457H33.5992V45.8789Z" fill="#3679FF"></path> <path d="M40.8376 45.8789H37.6708V49.0457H40.8376V45.8789Z" fill="#3679FF"></path> </svg> 