<?xml version="1.0" encoding="UTF-8"?> <svg xmlns="http://www.w3.org/2000/svg" width="106" height="33" viewBox="0 0 106 33" fill="none"> <path d="M17.8516 29.5156H16.1426V19.8789H21.847V21.3181H17.8516V24.0037H21.4612V25.3908H17.8516V29.5156Z" fill="#0E0E23"></path> <path d="M26.7793 25.817V29.5176H25.0703V19.8809H27.9737C28.8723 19.83 29.7586 20.1088 30.4662 20.6651C30.7682 20.9216 31.0083 21.243 31.1687 21.6053C31.329 21.9676 31.4053 22.3616 31.3921 22.7575C31.4059 23.3414 31.2343 23.9146 30.9019 24.3947C30.5695 24.8749 30.0934 25.2372 29.5421 25.4298L32.0091 28.5387V29.5165H30.6728L27.8469 25.8159L26.7793 25.817ZM26.7668 21.3457V24.4296H27.9618C28.1877 24.44 28.4136 24.4056 28.6263 24.3284C28.8389 24.2513 29.0342 24.133 29.2009 23.9801C29.3575 23.827 29.4802 23.6424 29.561 23.4388C29.6418 23.2352 29.6791 23.0168 29.6702 22.798C29.6736 22.6023 29.6338 22.4082 29.5539 22.2296C29.4739 22.0509 29.3557 21.8922 29.2075 21.7644C28.8602 21.4723 28.4149 21.3231 27.9618 21.3474L26.7668 21.3457Z" fill="#0E0E23"></path> <path d="M40.8864 29.5156H35.1309V19.8789H40.8864V21.3181H36.8374V23.8787H40.4733V25.2652H36.8374V28.0782H40.8864V29.5156Z" fill="#0E0E23"></path> <path d="M47.0659 29.671C46.3303 29.6941 45.6015 29.5234 44.9526 29.1761C44.4295 28.9056 44.0107 28.4695 43.7617 27.9358V27.0112H45.0599C45.1919 27.3901 45.4475 27.7136 45.7857 27.9294C46.1771 28.1692 46.6305 28.2877 47.0891 28.2705C47.5265 28.2888 47.9571 28.1576 48.3098 27.8983C48.4625 27.7834 48.5853 27.6335 48.6682 27.4613C48.751 27.2891 48.7915 27.0996 48.7861 26.9086C48.7914 26.7436 48.7609 26.5795 48.6965 26.4274C48.6322 26.2754 48.5355 26.139 48.4133 26.0279C48.0635 25.7521 47.6545 25.5611 47.2184 25.47L46.4478 25.2772C44.7087 24.8485 43.8394 23.919 43.8398 22.4887C43.8251 22.1029 43.8997 21.719 44.058 21.3667C44.2162 21.0145 44.4538 20.7034 44.752 20.4582C45.431 19.9469 46.2668 19.6881 47.1159 19.7264C47.8028 19.6987 48.485 19.8516 49.0945 20.1694C49.5758 20.4255 49.936 20.8619 50.0962 21.383V22.309H48.7861C48.6877 21.9337 48.4563 21.6066 48.1349 21.3891C47.8136 21.1717 47.4241 21.0785 47.0391 21.1269C46.6272 21.0991 46.2195 21.2252 45.8952 21.4807C45.766 21.5927 45.6633 21.7318 45.5944 21.8883C45.5255 22.0448 45.4922 22.2149 45.4969 22.3858C45.4926 22.5374 45.5222 22.688 45.5832 22.8269C45.6443 22.9657 45.7354 23.0889 45.85 23.1882C46.1729 23.4414 46.5482 23.6193 46.9486 23.7093L47.8608 23.9535C49.5824 24.4247 50.4432 25.3972 50.4432 26.8711C50.4568 27.2602 50.3791 27.647 50.2162 28.0006C50.0534 28.3543 49.8099 28.6649 49.5054 28.9075C48.8072 29.4407 47.9435 29.7111 47.0659 29.671Z" fill="#0E0E23"></path> <path d="M55.4043 29.5156H53.6953V19.8789H55.4043V23.8487H59.6694V19.8789H61.3909V29.5156H59.6694V25.2879H55.4043V29.5156Z" fill="#0E0E23"></path> <path d="M69.4111 29.6701C68.7638 29.7049 68.1169 29.5976 67.5156 29.3558C66.9142 29.1139 66.373 28.7434 65.9301 28.2701C65.0678 27.2751 64.6173 25.9887 64.6702 24.6731C64.6219 23.3624 65.0926 22.0857 65.9801 21.1202C66.4199 20.6574 66.9532 20.2935 67.5446 20.0531C68.1361 19.8128 68.772 19.7013 69.4099 19.726C69.8796 19.7217 70.348 19.7755 70.8045 19.8862C71.1572 19.967 71.4976 20.0945 71.8167 20.2651C72.0533 20.3995 72.2732 20.5614 72.4717 20.7474C72.618 20.8786 72.7474 21.0272 72.857 21.1902C72.9147 21.2778 72.9599 21.3731 72.9914 21.4731V22.398H71.6815C71.666 22.3303 71.6401 22.2653 71.6047 22.2055C71.5374 22.0957 71.4599 21.9924 71.3732 21.897C71.2558 21.7631 71.122 21.6444 70.9753 21.5435C70.7791 21.4181 70.5644 21.325 70.3388 21.2673C70.0437 21.1873 69.7389 21.1484 69.4332 21.1521C69.0127 21.1342 68.5937 21.2129 68.2084 21.3821C67.8231 21.5513 67.4816 21.8065 67.2103 22.1282C66.6386 22.8495 66.3469 23.753 66.3886 24.6725C66.3515 25.5949 66.6426 26.5007 67.2103 27.2287C67.4774 27.557 67.8175 27.8185 68.2033 27.9925C68.5892 28.1664 69.0103 28.248 69.4332 28.2309C69.7372 28.2337 70.0401 28.1924 70.3323 28.1082C70.5641 28.046 70.7849 27.9487 70.9872 27.8195C71.1424 27.7145 71.2848 27.5914 71.4113 27.4531C71.5065 27.3536 71.5903 27.2439 71.6613 27.1258C71.6977 27.0655 71.726 27.0005 71.7453 26.9327H73.0553V27.8582C72.9935 28.0158 72.9044 28.1615 72.792 28.2882C72.6076 28.506 72.4011 28.704 72.1758 28.8793C71.834 29.1336 71.4486 29.323 71.0385 29.4384C70.511 29.5979 69.9621 29.6761 69.4111 29.6701Z" fill="#0E0E23"></path> <path d="M83.8486 28.257C82.9262 29.1625 81.6853 29.6697 80.3927 29.6697C79.1001 29.6697 77.859 29.1625 76.9366 28.257C76.0402 27.2783 75.5648 25.9862 75.613 24.6599C75.588 24.0097 75.6921 23.3609 75.9193 22.7512C76.1465 22.1414 76.4922 21.5829 76.9366 21.1076C77.8688 20.221 79.1062 19.7266 80.3927 19.7266C81.6792 19.7266 82.9164 20.221 83.8486 21.1076C84.2929 21.583 84.6384 22.1417 84.8655 22.7515C85.0926 23.3612 85.1967 24.0097 85.1717 24.6599C85.2199 25.9861 84.7448 27.2781 83.8486 28.257ZM80.395 28.2439C80.8178 28.259 81.2384 28.1771 81.6247 28.0046C82.011 27.8322 82.3527 27.5738 82.6237 27.249C83.2083 26.5162 83.5075 25.5963 83.4657 24.6599C83.5056 23.7414 83.2059 22.8403 82.6237 22.1287C82.341 21.821 81.9975 21.5754 81.6149 21.4074C81.2322 21.2393 80.8189 21.1527 80.401 21.1527C79.9831 21.1527 79.5698 21.2393 79.1871 21.4074C78.8045 21.5754 78.461 21.821 78.1783 22.1287C77.5963 22.8404 77.2968 23.7414 77.3368 24.6599C77.2949 25.5963 77.5939 26.5162 78.1783 27.249C78.4471 27.5726 78.7862 27.8303 79.1698 28.0029C79.5535 28.1754 79.9715 28.2581 80.392 28.2445L80.395 28.2439Z" fill="#0E0E23"></path> <path d="M91.5937 29.5162H88.4336V19.8795H91.5937C92.2419 19.851 92.8888 19.9587 93.4928 20.1955C94.0969 20.4323 94.6447 20.793 95.1008 21.2544C95.5365 21.7056 95.8779 22.239 96.105 22.8236C96.3322 23.4081 96.4406 24.0321 96.4238 24.659C96.4419 25.2948 96.3344 25.9279 96.1074 26.5221C95.8803 27.1163 95.5383 27.6601 95.1008 28.1218C94.6477 28.5885 94.1009 28.954 93.4965 29.1943C92.892 29.4347 92.2436 29.5443 91.5937 29.5162ZM90.142 21.3187V28.0764H91.5549C91.9832 28.0926 92.4097 28.0127 92.8032 27.8427C93.1967 27.6727 93.5472 27.417 93.8289 27.094C94.4102 26.4186 94.7174 25.5497 94.69 24.659C94.715 23.7865 94.4072 22.9373 93.8289 22.2834C93.5443 21.9651 93.1928 21.7136 92.7997 21.5469C92.4066 21.3802 91.9816 21.3022 91.5549 21.3187H90.142Z" fill="#0E0E23"></path> <path d="M105.445 29.5156H99.6895V19.8789H105.445V21.3181H101.396V23.8787H105.032V25.2652H101.396V28.0782H105.445V29.5156Z" fill="#0E0E23"></path> <path d="M2.38168 29.3905C3.3207 29.3905 3.909 28.8587 4.20314 28.2931L4.30497 29.2773H5.01771V25.7815C5.01771 24.3107 4.2484 23.5414 2.80028 23.5414C1.25034 23.5414 0.786487 24.5257 0.786487 24.5257V25.1253H1.37479C1.37479 25.1253 1.66893 24.3107 2.77765 24.3107C3.71667 24.3107 4.12395 24.8198 4.12395 25.7589V26.1548C4.12395 26.1548 3.51303 26.0078 2.74371 26.0078C1.11458 26.0078 0.458397 26.7205 0.458397 27.6708C0.458397 28.6325 1.09195 29.3905 2.38168 29.3905ZM2.51744 28.6551C1.73682 28.6551 1.32953 28.327 1.32953 27.6708C1.32953 27.173 1.63499 26.6979 2.74371 26.6979C3.55828 26.6979 4.12395 26.845 4.12395 26.845V27.173C4.12395 27.8405 3.56959 28.6551 2.51744 28.6551ZM8.84979 29.3905C9.77749 29.3905 10.1848 28.8814 10.3432 28.4854V27.8971H9.75486C9.73223 28.0781 9.60779 28.6212 8.8611 28.6212C8.11441 28.6212 7.83158 28.1347 7.83158 27.3427V24.4239H10.049V23.6546H7.83158V22.2064H7.03964L6.98307 23.6546H6.02143V24.4239H6.93781V27.4559C6.93781 28.7343 7.63925 29.3905 8.84979 29.3905Z" fill="#0E0E23"></path> <path d="M4.70094 13.9061C7.1107 13.9061 7.88001 12.3901 7.88001 12.3901V11.7565H7.16727C7.16727 11.7565 6.63553 13.0915 4.72356 13.0915C2.76634 13.0915 1.54449 11.5303 1.54449 9.51649C1.54449 7.54795 2.69846 5.99801 4.72356 5.99801C6.65816 5.99801 7.1107 7.28774 7.1107 7.28774H7.82345V6.65419C7.82345 6.65419 7.14464 5.19476 4.70094 5.19476C2.16673 5.19476 0.571531 7.05016 0.571531 9.51649C0.571531 11.9602 2.00834 13.9061 4.70094 13.9061ZM13.0429 13.9061C15.5658 13.9061 17.1949 12.0394 17.1949 9.51649C17.1949 7.02753 15.5658 5.19476 13.0429 5.19476C10.52 5.19476 8.89089 7.02753 8.89089 9.51649C8.89089 12.0394 10.52 13.9061 13.0429 13.9061ZM13.0429 13.1028C11.0857 13.1028 9.86384 11.5868 9.86384 9.51649C9.86384 7.49138 11.0857 5.99801 13.0429 5.99801C15.0001 5.99801 16.222 7.49138 16.222 9.51649C16.222 11.5868 15.0001 13.1028 13.0429 13.1028ZM18.5298 10.5121H21.5844V9.74276H18.5298V10.5121ZM23.4766 13.793H24.4608V9.92377H27.8775V9.12052H24.4608V6.11114H28.2169V5.30789H23.4766V13.793ZM33.3165 13.9061C35.8394 13.9061 37.4685 12.0394 37.4685 9.51649C37.4685 7.02753 35.8394 5.19476 33.3165 5.19476C30.7936 5.19476 29.1645 7.02753 29.1645 9.51649C29.1645 12.0394 30.7936 13.9061 33.3165 13.9061ZM33.3165 13.1028C31.3593 13.1028 30.1374 11.5868 30.1374 9.51649C30.1374 7.49138 31.3593 5.99801 33.3165 5.99801C35.2737 5.99801 36.4956 7.49138 36.4956 9.51649C36.4956 11.5868 35.2737 13.1028 33.3165 13.1028ZM42.2313 13.9061C44.1885 13.9061 45.3991 12.5485 45.3991 10.7383V5.30789H44.5053V10.7497C44.5053 12.1073 43.6908 13.1028 42.2313 13.1028C40.8511 13.1028 40.0365 12.1073 40.0365 10.7497V5.30789H39.0636V10.7383C39.0636 12.5485 40.2854 13.9061 42.2313 13.9061ZM47.5508 13.793H48.4445V6.94834L53.0265 13.793H53.9202V5.30789H53.0265V12.2091L48.4445 5.30789H47.5508V13.793ZM56.1574 13.793H58.6916C61.3389 13.793 62.9794 11.8697 62.9794 9.51649C62.9794 7.19723 61.3389 5.30789 58.6916 5.30789H56.1574V13.793ZM57.1416 12.9897V6.11114H58.6576C60.6375 6.11114 62.0064 7.58189 62.0064 9.51649C62.0064 11.4963 60.6375 12.9897 58.6576 12.9897H57.1416ZM64.6645 13.793H69.4388V12.9897H65.6488V9.82195H69.0655V9.0187H65.6488V6.11114H69.4388V5.30789H64.6645V13.793ZM72.1452 13.793V10.2292H73.4123L76.1615 13.793H76.8403V13.1255L74.4079 10.0256C75.6184 9.72013 76.2746 8.83768 76.2746 7.68371C76.2746 6.22428 75.1998 5.30789 73.4123 5.30789H71.1609V13.793H72.1452ZM72.1452 9.40335V6.1564H73.4689C74.7699 6.1564 75.2903 6.98228 75.2903 7.71765C75.2903 8.65667 74.6907 9.40335 73.4689 9.40335H72.1452Z" fill="#0E0E23"></path> </svg> 