<?xml version="1.0" encoding="UTF-8"?> <svg xmlns="http://www.w3.org/2000/svg" width="25" height="18" viewBox="0 0 25 18" fill="none"> <path d="M24.1077 3.25463C23.8278 2.21414 23.0075 1.39394 21.9671 1.11377C20.0666 0.59375 12.4642 0.59375 12.4642 0.59375C12.4642 0.59375 4.86208 0.59375 2.96152 1.09405C1.94119 1.37393 1.10083 2.21429 0.820957 3.25463C0.320801 5.15504 0.320801 9.09625 0.320801 9.09625C0.320801 9.09625 0.320801 13.0573 0.820957 14.9379C1.10113 15.9782 1.92118 16.7984 2.96166 17.0786C4.88209 17.5987 12.4645 17.5987 12.4645 17.5987C12.4645 17.5987 20.0666 17.5987 21.9671 17.0984C23.0076 16.8184 23.8278 15.9982 24.108 14.9579C24.608 13.0573 24.608 9.11626 24.608 9.11626C24.608 9.11626 24.628 5.15504 24.1077 3.25463V3.25463ZM10.0437 12.7373V5.45522L16.3655 9.09625L10.0437 12.7373Z" fill="white"></path> </svg> 