<?xml version="1.0" encoding="UTF-8"?> <!-- Generator: Adobe Illustrator 25.2.3, SVG Export Plug-In . SVG Version: 6.00 Build 0) --> <svg xmlns="http://www.w3.org/2000/svg" xmlns:xlink="http://www.w3.org/1999/xlink" id="Layer_1" x="0px" y="0px" viewBox="0 0 20 20" style="enable-background:new 0 0 20 20;" xml:space="preserve"> <style type="text/css"> .st0{fill:#FFFFFF;} .st1{fill-rule:evenodd;clip-rule:evenodd;fill:#FFFFFF;} </style> <path class="st0" d="M9.8,6.4C8,6.4,6.6,7.9,6.6,9.6c0,1.7,1.4,3.2,3.2,3.2c1.7,0,3.2-1.4,3.2-3.2C12.9,7.9,11.5,6.4,9.8,6.4z"></path> <path class="st1" d="M19.3,7.2c0-1,0-2-0.3-3c-0.3-1.2-0.9-2.1-1.8-2.8c-0.9-0.7-2-1.1-3.2-1.2c-1.3-0.1-2.7-0.1-4.2-0.1 s-2.9,0-4.2,0.1C4.4,0.3,3.2,0.7,2.3,1.4C1.5,2.1,0.9,3.1,0.6,4.2c-0.3,1-0.3,2-0.3,3c0,0.7,0,1.5,0,2.4c0,0.8,0,1.7,0,2.3 c0,1,0,2,0.3,3c0.3,1.2,0.9,2.1,1.7,2.8c0.9,0.7,2,1.2,3.2,1.2c1.3,0.1,2.7,0.1,4.2,0.1H10c1.4,0,2.7,0,4-0.1 c1.2-0.1,2.3-0.5,3.2-1.2c0.9-0.7,1.5-1.7,1.8-2.8c0.3-1,0.3-2,0.3-3c0-0.7,0-1.5,0-2.3C19.3,8.8,19.3,7.9,19.3,7.2z M5.1,9.6 C5.1,7,7.2,5,9.8,5s4.6,2.1,4.6,4.6s-2.1,4.6-4.6,4.6S5.1,12.2,5.1,9.6z M14.9,5.7c-0.6,0-1.1-0.5-1.1-1.1c0-0.6,0.5-1.1,1.1-1.1 C15.5,3.5,16,4,16,4.6C16,5.2,15.5,5.7,14.9,5.7z"></path> </svg> 