<?xml version="1.0" encoding="UTF-8"?> <svg xmlns="http://www.w3.org/2000/svg" width="563" height="557" viewBox="0 0 563 557" fill="none"> <path d="M555.567 278.829L278.508 1.76953L1.44843 278.829L278.508 555.888L555.567 278.829Z" stroke="#4C4C72" stroke-width="1.17709"></path> <path d="M185.6 278.83L93.2461 186.477L0.89254 278.83L93.2461 371.184L185.6 278.83Z" stroke="#4C4C72" stroke-width="1.17709"></path> <path d="M370.584 278.828L185.877 94.1211L1.16985 278.828L185.877 463.535L370.584 278.828Z" stroke="#4C4C72" stroke-width="1.17709"></path> <path d="M363.154 271.518L370.465 278.828L363.154 286.139L355.844 278.828L363.154 271.518Z" fill="#3679FF" stroke="#19192E" stroke-width="0.588546"></path> <path d="M374.627 278.828L363.154 267.355L351.682 278.828L363.154 290.3L374.627 278.828Z" fill="#3679FF" stroke="#19192E" stroke-width="5.29692"></path> <path d="M177.404 271.518L184.715 278.828L177.404 286.139L170.094 278.828L177.404 271.518Z" fill="#12E6AD" stroke="#19192E" stroke-width="0.588546"></path> <path d="M188.877 278.828L177.404 267.355L165.932 278.828L177.404 290.3L188.877 278.828Z" fill="#12E6AD" stroke="#19192E" stroke-width="5.29692"></path> <path d="M547.617 271.518L554.928 278.828L547.617 286.139L540.306 278.828L547.617 271.518Z" fill="#773EE8" stroke="#19192E" stroke-width="0.588546"></path> <path d="M559.09 278.828L547.617 267.355L536.145 278.828L547.617 290.3L559.09 278.828Z" stroke="#19192E" stroke-width="5.29692"></path> <path d="M273.545 284.879H274.76V275.288H280.071V284.879H281.285V274.285H273.545V284.879ZM284.084 284.879H285.312V280.881H286.838C289.31 280.881 290.553 279.271 290.553 277.463C290.553 275.514 289.112 274.285 286.838 274.285H284.084V284.879ZM285.312 279.879V275.288H286.824C288.491 275.288 289.338 276.347 289.338 277.506C289.338 278.89 288.434 279.879 286.824 279.879H285.312ZM291.498 284.879L292.699 281.814H297.36L298.561 284.879H299.451V283.975L295.538 274.285H294.563L290.622 284.088V284.879H291.498ZM296.95 280.825H293.094L295.029 275.895L296.95 280.825ZM302.362 279.808L307.546 284.879H308.379V284.046L303.661 279.483L308.125 275.062V274.285H307.348L302.362 279.328V274.285H301.133V284.879H302.362V279.808ZM312.459 284.879H313.674V275.288H317.205V274.285H308.914V275.288H312.459V284.879ZM318.858 284.879H320.073L325.709 276.192V284.879H326.938V274.285H325.709L320.073 283.085V274.285H318.858V284.879ZM330.957 279.808L336.141 284.879H336.974V284.046L332.256 279.483L336.72 275.062V274.285H335.943L330.957 279.328V274.285H329.728V284.879H330.957V279.808ZM338.37 284.879L339.571 281.814H344.232L345.433 284.879H346.323V283.975L342.41 274.285H341.435L337.495 284.088V284.879H338.37ZM343.823 280.825H339.966L341.902 275.895L343.823 280.825Z" fill="white"></path> <path d="M108.94 284.879H110.155V275.288H113.686V274.285H105.395V275.288H108.94V284.879ZM115.34 284.879H121.301V283.876H116.569V279.921H120.834V278.918H116.569V275.288H121.301V274.285H115.34V284.879ZM127.791 285.02C130.941 285.02 132.975 282.69 132.975 279.54C132.975 276.432 130.941 274.144 127.791 274.144C124.641 274.144 122.607 276.432 122.607 279.54C122.607 282.69 124.641 285.02 127.791 285.02ZM127.791 284.017C125.347 284.017 123.822 282.125 123.822 279.54C123.822 277.011 125.347 275.147 127.791 275.147C130.234 275.147 131.76 277.011 131.76 279.54C131.76 282.125 130.234 284.017 127.791 284.017ZM135.079 284.879H136.308V280.881H137.833C140.305 280.881 141.548 279.271 141.548 277.463C141.548 275.514 140.108 274.285 137.833 274.285H135.079V284.879ZM136.308 279.879V275.288H137.819C139.486 275.288 140.334 276.347 140.334 277.506C140.334 278.89 139.43 279.879 137.819 279.879H136.308ZM143.466 284.879H144.695V274.285H143.466V284.879ZM152.466 280.472V284.879H153.695V274.285H150.841C148.666 274.285 147.268 275.486 147.268 277.378C147.268 278.763 148.073 279.85 149.542 280.26L146.618 284.046V284.879H147.437L150.785 280.472H152.466ZM150.841 279.469C149.401 279.469 148.482 278.678 148.482 277.393C148.482 276.178 149.358 275.288 150.827 275.288H152.466V279.469H150.841Z" fill="white"></path> <path d="M431.947 284.879L433.147 281.814H437.809L439.009 284.879H439.899V283.975L435.987 274.285H435.012L431.071 284.088V284.879H431.947ZM437.399 280.825H433.543L435.478 275.895L437.399 280.825ZM442.811 279.808L447.995 284.879H448.828V284.046L444.11 279.483L448.574 275.062V274.285H447.797L442.811 279.328V274.285H441.582V284.879H442.811V279.808ZM452.908 284.879H454.122V275.288H457.654V274.285H449.362V275.288H452.908V284.879ZM461.115 284.879L466.257 275.062V274.285H465.48L462.273 280.542L458.912 274.285H458.078V275.118L461.624 281.729L460.338 284.102V284.879H461.115ZM466.749 284.879L467.95 281.814H472.611L473.812 284.879H474.702V283.975L470.789 274.285H469.814L465.873 284.088V284.879H466.749ZM472.202 280.825H468.345L470.281 275.895L472.202 280.825ZM475.169 284.879H475.607C477.669 284.879 478.107 282.831 478.22 278.96L478.319 275.288H482.274V284.879H483.503V274.285H477.232L477.104 278.989C477.006 282.379 476.624 283.763 475.508 283.763H475.169V284.879ZM486.302 284.879H487.531V274.285H486.302V284.879ZM492.985 285.02C495.09 285.02 496.361 283.707 496.361 281.828C496.361 280.514 495.599 279.554 494.327 279.229C495.302 278.805 495.909 277.943 495.909 276.912C495.909 275.26 494.652 274.144 492.774 274.144C490.655 274.144 489.878 275.443 489.779 275.768V276.559H490.669C490.754 276.178 491.276 275.147 492.731 275.147C493.96 275.147 494.68 275.895 494.68 276.912C494.68 278.056 493.946 278.847 492.646 278.847H491.615V279.864H492.703C494.384 279.864 495.132 280.641 495.132 281.856C495.132 283.212 494.285 284.003 492.901 284.003C491.206 284.003 490.514 282.831 490.443 282.393H489.567V283.184C489.624 283.509 490.443 285.02 492.985 285.02ZM498.089 284.879L499.29 281.814H503.951L505.152 284.879H506.042V283.975L502.129 274.285H501.154L497.214 284.088V284.879H498.089ZM503.542 280.825H499.685L501.621 275.895L503.542 280.825ZM515.761 286.998H516.877V283.876H515.465V274.285H514.25V283.876H508.939V274.285H507.724V284.879H515.761V286.998ZM518.732 284.879H519.961V274.285H518.732V284.879ZM527.732 280.472V284.879H528.961V274.285H526.107C523.932 274.285 522.534 275.486 522.534 277.378C522.534 278.763 523.339 279.85 524.808 280.26L521.884 284.046V284.879H522.703L526.051 280.472H527.732ZM526.107 279.469C524.667 279.469 523.748 278.678 523.748 277.393C523.748 276.178 524.624 275.288 526.093 275.288H527.732V279.469H526.107Z" fill="white"></path> </svg> 