<?xml version="1.0" encoding="UTF-8"?> <svg xmlns="http://www.w3.org/2000/svg" width="111" height="111" viewBox="0 0 111 111" fill="none"> <rect x="0.147461" y="0.800781" width="110" height="110" fill="white"></rect> <path d="M61.5391 55.8507H66.903C67.0275 55.8507 67.1468 55.8016 67.2351 55.7143C67.3233 55.6269 67.3732 55.5084 67.3739 55.3845V50.6298C67.3739 50.5055 67.3243 50.3863 67.236 50.2984C67.1477 50.2105 67.0279 50.1611 66.903 50.1611H61.5391C61.4149 50.1611 61.2958 50.2103 61.2079 50.2977C61.1201 50.3851 61.0708 50.5037 61.0708 50.6273V55.3845C61.0708 55.6415 61.2809 55.8507 61.5391 55.8507V55.8507ZM54.0615 42.1686H59.4229C59.5477 42.1686 59.6675 42.1192 59.7558 42.0313C59.8441 41.9434 59.8937 41.8242 59.8937 41.6999V36.9427C59.893 36.8188 59.8431 36.7003 59.7549 36.6129C59.6667 36.5256 59.5473 36.4766 59.4229 36.4766H54.0615C53.9372 36.4766 53.8181 36.5257 53.7303 36.6131C53.6425 36.7005 53.5931 36.8191 53.5931 36.9427V41.6999C53.5931 41.9569 53.8007 42.1661 54.0615 42.1661V42.1686ZM54.0615 49.0096H59.4229C59.5475 49.009 59.6669 48.9594 59.7551 48.8716C59.8432 48.7839 59.893 48.6651 59.8937 48.541V43.7863C59.893 43.6624 59.8431 43.5438 59.7549 43.4565C59.6667 43.3691 59.5473 43.3201 59.4229 43.3201H54.0615C53.9372 43.3201 53.8181 43.3692 53.7303 43.4566C53.6425 43.5441 53.5931 43.6626 53.5931 43.7863V48.541C53.5931 48.798 53.8007 49.0071 54.0615 49.0096ZM46.6446 49.0096H52.011C52.135 49.0083 52.2535 48.9583 52.3407 48.8706C52.4279 48.7828 52.4768 48.6644 52.4768 48.541V43.7863C52.4768 43.6626 52.4275 43.5441 52.3397 43.4566C52.2518 43.3692 52.1327 43.3201 52.0085 43.3201H46.6471C46.5229 43.3201 46.4038 43.3692 46.316 43.4566C46.2281 43.5441 46.1788 43.6626 46.1788 43.7863V48.541C46.1788 48.798 46.3889 49.0071 46.6471 49.0096H46.6446ZM39.1442 49.0096H44.5081C44.6325 49.009 44.7516 48.9593 44.8394 48.8715C44.9272 48.7837 44.9764 48.6648 44.9764 48.541V43.7863C44.9764 43.6626 44.9271 43.5441 44.8392 43.4566C44.7514 43.3692 44.6323 43.3201 44.5081 43.3201H39.1442C39.0197 43.3201 38.9003 43.3691 38.8121 43.4565C38.7239 43.5438 38.674 43.6624 38.6733 43.7863V48.541C38.6733 48.798 38.886 49.0071 39.1442 49.0096V49.0096ZM54.0615 55.8507H59.4229C59.5473 55.8507 59.6667 55.8016 59.7549 55.7143C59.8431 55.6269 59.893 55.5084 59.8937 55.3845V50.6298C59.8937 50.5055 59.8441 50.3863 59.7558 50.2984C59.6675 50.2105 59.5477 50.1611 59.4229 50.1611H54.0615C53.9372 50.1611 53.8181 50.2103 53.7303 50.2977C53.6425 50.3851 53.5931 50.5037 53.5931 50.6273V55.3845C53.5931 55.6415 53.8007 55.8507 54.0615 55.8507V55.8507ZM46.6446 55.8507H52.011C52.1348 55.85 52.2533 55.8006 52.3406 55.7132C52.4278 55.6259 52.4768 55.5077 52.4768 55.3845V50.6298C52.4772 50.5686 52.4654 50.5079 52.4421 50.4512C52.4189 50.3945 52.3847 50.343 52.3414 50.2994C52.2982 50.2559 52.2468 50.2213 52.1901 50.1976C52.1334 50.1739 52.0725 50.1615 52.011 50.1611H46.6446C46.5208 50.1618 46.4023 50.2112 46.3151 50.2986C46.2278 50.3859 46.1788 50.5041 46.1788 50.6273V55.3845C46.1788 55.6415 46.3889 55.8507 46.6471 55.8507H46.6446ZM39.1442 55.8507H44.5081C44.6323 55.8507 44.7514 55.8015 44.8392 55.7141C44.9271 55.6267 44.9764 55.5081 44.9764 55.3845V50.6298C44.9767 50.5686 44.965 50.5079 44.9417 50.4512C44.9185 50.3945 44.8843 50.343 44.841 50.2994C44.7978 50.2559 44.7463 50.2213 44.6897 50.1976C44.633 50.1739 44.5721 50.1615 44.5106 50.1611H39.1442C39.0193 50.1611 38.8995 50.2105 38.8112 50.2984C38.7229 50.3863 38.6733 50.5055 38.6733 50.6298V55.3845C38.6733 55.6415 38.886 55.8507 39.1442 55.8507V55.8507ZM31.7526 55.8507H37.1191C37.2428 55.85 37.3613 55.8006 37.4486 55.7132C37.5359 55.6259 37.5848 55.5077 37.5848 55.3845V50.6298C37.5852 50.5686 37.5734 50.5079 37.5502 50.4512C37.5269 50.3945 37.4927 50.343 37.4495 50.2994C37.4062 50.2559 37.3548 50.2213 37.2981 50.1976C37.2414 50.1739 37.1806 50.1615 37.1191 50.1611H31.7526C31.6288 50.1618 31.5104 50.2112 31.4231 50.2986C31.3358 50.3859 31.2868 50.5041 31.2868 50.6273V55.3845C31.2868 55.6415 31.4944 55.8507 31.7551 55.8507H31.7526ZM86.2958 52.8572C86.1312 52.7287 84.5947 51.5722 81.3495 51.5722C80.4939 51.5747 79.6383 51.6478 78.7928 51.7914C78.165 47.5079 74.6085 45.4165 74.449 45.3258L73.5782 44.8244L73.0061 45.6483C72.2872 46.752 71.7658 47.9715 71.4569 49.2515C70.8747 51.6956 71.2291 53.9936 72.4771 55.9565C70.9709 56.793 68.5535 56.9971 68.0624 57.0148H28.0442C27.5417 57.0154 27.06 57.2141 26.7042 57.5672C26.3485 57.9204 26.1476 58.3994 26.1456 58.8995C26.0988 62.3889 26.6924 65.8575 27.8973 69.1346C29.2769 72.7328 31.3273 75.3835 33.9979 77.0062C36.9849 78.8279 41.8451 79.8711 47.3508 79.8711C49.8391 79.8787 52.3199 79.6544 54.7677 79.2009C58.1669 78.5793 61.4378 77.3964 64.4451 75.701C66.9258 74.2723 69.1534 72.4556 71.0519 70.3189C74.2212 66.7459 76.1096 62.7673 77.5145 59.2321H78.0739C81.5469 59.2321 83.6809 57.8488 84.8579 56.6897C85.6401 55.9514 86.2502 55.0519 86.6476 54.0541L86.8957 53.3284L86.2958 52.8572Z" fill="#0E0E23"></path> </svg> 