<?xml version="1.0" encoding="UTF-8"?> <svg xmlns="http://www.w3.org/2000/svg" width="59" height="50" viewBox="0 0 59 50" fill="none"> <path d="M57.0398 21.3497H58.3536V0.289062H0.18811V21.3497H1.50191C3.31336 21.3497 4.80631 22.8128 4.80631 24.6541C4.80631 26.4954 3.32331 27.9585 1.50191 27.9585H0.18811V49.0191H58.3436V27.9485H57.0298C55.2184 27.9485 53.7254 26.4655 53.7254 24.6441C53.7354 22.8426 55.2184 21.3497 57.0398 21.3497ZM55.6563 30.4766V46.3317H2.87543V30.4865C3.95035 30.2377 4.9357 29.6903 5.73194 28.894C6.86659 27.7594 7.49363 26.2565 7.49363 24.6541C7.49363 21.8175 5.52293 19.4387 2.87543 18.8216V2.97638H55.6663V18.8216C53.0287 19.4387 51.058 21.8075 51.0381 24.6242V24.6441C51.0381 27.4708 53.0188 29.8495 55.6563 30.4766Z" fill="#3679FF"></path> <path d="M29.2709 10.5391C21.4776 10.5391 15.1575 16.8592 15.1575 24.6525C15.1575 32.4457 21.4776 38.7658 29.2709 38.7658C37.0641 38.7658 43.3842 32.4457 43.3842 24.6525C43.3842 16.8592 37.0641 10.5391 29.2709 10.5391ZM35.9394 26.3246H28.1661V15.7843H30.5747V23.906H35.9394V26.3246Z" fill="#3679FF"></path> </svg> 