<?xml version="1.0" encoding="UTF-8"?> <svg xmlns="http://www.w3.org/2000/svg" width="394" height="393" viewBox="0 0 394 393" fill="none"> <path d="M197.22 196.293L197.028 196.488H196.99V196.296L197.22 196.293Z" fill="#19192E"></path> <path d="M196.993 196.293V196.488H196.765L196.959 196.296L196.993 196.293Z" fill="#19192E"></path> <path d="M196.993 196.293V196.488H196.765L196.959 196.296L196.993 196.293Z" fill="#19192E"></path> <path d="M393.072 196.293V196.329L197.01 392.473H0.887695V392.436L196.75 196.484H197.01L197.198 196.296L393.072 196.293Z" fill="#19192E"></path> <path d="M393.074 0.29983V0.336025L197.215 196.289H196.955L196.767 196.476H0.905762V196.44L196.967 0.296875L393.074 0.29983Z" fill="#19192E"></path> <path d="M197.22 196.293L197.028 196.488H196.99V196.296L197.22 196.293Z" fill="#19192E"></path> </svg> 